{"glyphs":{"0":{"ha":1068,"x_min":75,"x_max":1069,"o":"m 572 979 q 925 835 781 979 q 1069 482 1069 690 q 925 129 1069 274 q 572 -15 781 -15 q 219 129 364 -15 q 75 482 75 274 q 219 835 75 690 q 572 979 364 979 m 572 792 q 351 703 440 792 q 263 482 263 614 q 352 262 263 351 q 572 172 442 172 q 792 262 703 172 q 882 482 882 351 q 792 702 882 613 q 572 792 703 792 z "},"1":{"ha":263,"x_min":75,"x_max":263,"o":"m 263 886 l 263 81 q 236 13 263 39 q 168 -12 210 -12 q 101 13 126 -12 q 75 81 75 39 l 75 886 q 101 953 75 928 q 168 979 126 979 q 236 953 210 979 q 263 886 263 928 z "},"2":{"ha":785,"x_min":61,"x_max":785,"o":"m 463 175 l 690 175 q 758 149 732 175 q 785 81 785 122 q 758 13 785 39 q 690 -12 732 -12 l 168 -12 q 61 68 61 -12 q 119 161 61 122 q 301 288 200 214 q 482 433 414 368 q 597 625 597 543 q 548 743 597 694 q 429 792 499 792 q 311 743 360 792 q 263 625 263 694 q 236 557 263 583 q 168 531 210 531 q 101 557 126 531 q 75 625 75 583 q 177 877 75 775 q 429 979 279 979 q 682 877 579 979 q 785 625 785 775 q 676 367 785 492 q 463 175 615 296 z "},"3":{"ha":667,"x_min":74,"x_max":663,"o":"m 75 686 q 160 894 75 810 q 368 979 244 979 q 577 894 492 979 q 663 686 663 810 q 581 482 663 567 q 663 281 663 399 q 577 72 663 157 q 368 -12 492 -12 l 168 -12 q 100 13 126 -12 q 74 81 74 39 q 100 149 74 122 q 168 175 126 175 l 368 175 q 444 206 413 175 q 475 281 475 236 q 440 357 475 326 q 358 393 406 388 q 292 423 319 397 q 265 486 265 449 q 294 553 265 528 q 368 579 324 578 q 444 611 413 581 q 475 686 475 642 q 444 761 475 731 q 368 792 413 792 q 294 760 325 792 q 263 688 263 729 q 237 619 263 646 q 169 592 211 592 q 101 618 128 592 q 75 686 75 644 z "},"4":{"ha":675,"x_min":75,"x_max":674,"o":"m 486 272 l 375 272 q 161 358 247 272 q 75 572 75 444 l 75 883 q 101 951 75 925 q 168 978 126 978 q 236 951 210 978 q 263 883 263 925 l 263 572 q 295 492 263 525 q 375 460 328 460 l 486 460 l 486 886 q 513 953 486 926 q 581 979 540 979 q 648 953 622 979 q 674 886 674 928 l 674 81 q 648 13 674 39 q 581 -12 622 -12 q 513 14 540 -12 q 486 81 486 40 l 486 272 z "},"5":{"ha":690,"x_min":75,"x_max":690,"o":"m 581 792 l 263 792 l 263 697 l 335 697 q 588 594 485 697 q 690 342 690 492 q 587 90 690 193 q 335 -12 483 -12 l 168 -12 q 101 13 126 -12 q 75 81 75 39 q 101 149 75 122 q 168 175 126 175 l 335 175 q 453 224 404 175 q 503 342 503 272 q 453 460 503 411 q 335 510 404 510 l 168 510 q 103 538 131 510 q 75 603 75 565 l 75 886 q 103 951 75 924 q 168 979 131 979 l 581 979 q 648 953 622 979 q 674 886 674 928 q 581 792 674 792 z "},"6":{"ha":786,"x_min":75,"x_max":785,"o":"m 785 340 q 682 88 785 190 q 429 -15 579 -15 q 177 88 279 -15 q 75 340 75 190 l 75 625 q 177 877 75 775 q 429 979 279 979 q 686 871 581 979 q 714 806 714 842 q 685 738 714 767 q 617 710 656 710 q 550 740 579 710 q 429 792 501 792 q 322 753 368 792 q 265 654 275 714 q 429 694 342 694 q 682 592 579 694 q 785 340 785 490 m 597 340 q 548 458 597 410 q 429 507 499 507 q 311 458 360 507 q 263 340 263 410 q 311 222 263 271 q 429 172 360 172 q 548 222 499 172 q 597 340 597 271 z "},"7":{"ha":701,"x_min":75,"x_max":701,"o":"m 168 979 l 610 979 q 701 893 701 979 q 624 597 701 822 l 435 51 q 349 -14 413 -14 q 280 12 308 -14 q 251 78 251 38 q 257 110 251 93 l 481 792 l 168 792 q 101 818 126 792 q 75 886 75 844 q 101 953 75 928 q 168 979 126 979 z "},"8":{"ha":696,"x_min":75,"x_max":694,"o":"m 385 793 q 319 766 346 793 q 293 700 293 739 q 320 635 293 663 q 385 608 347 608 q 451 635 424 608 q 478 700 478 661 q 451 766 478 739 q 385 793 424 793 m 600 521 q 694 297 694 429 q 605 77 694 167 q 385 -12 515 -12 q 165 77 254 -12 q 75 297 75 167 q 169 521 75 429 q 106 700 106 599 q 186 899 106 818 q 385 981 267 981 q 585 900 504 981 q 665 700 665 819 q 600 521 665 599 m 385 421 q 298 385 333 421 q 263 297 263 349 q 299 211 263 247 q 385 175 335 175 q 472 210 436 175 q 507 297 507 246 q 472 385 507 349 q 385 421 436 421 z "},"9":{"ha":785,"x_min":75,"x_max":785,"o":"m 429 269 q 177 372 279 269 q 75 625 75 475 q 177 877 75 775 q 429 979 279 979 q 682 877 579 979 q 785 625 785 775 l 785 340 q 682 88 785 190 q 429 -15 579 -15 q 174 94 278 -15 q 146 158 146 124 q 174 226 146 197 q 242 254 203 254 q 308 224 279 254 q 429 172 358 172 q 537 211 490 172 q 594 310 583 250 q 429 269 517 269 m 429 457 q 548 506 499 457 q 597 625 597 556 q 548 743 597 694 q 429 792 499 792 q 311 743 360 792 q 263 625 263 694 q 311 506 263 556 q 429 457 360 457 z "}," ":{"ha":421,"x_min":0,"x_max":0,"o":""},"!":{"ha":264,"x_min":53,"x_max":283,"o":"m 74 886 q 100 953 74 926 q 167 979 126 979 q 235 953 208 979 q 261 886 261 928 l 261 390 q 235 322 261 349 q 167 296 208 296 q 99 322 125 296 q 74 390 74 349 l 74 886 m 168 0 q 250 33 217 0 q 283 115 283 67 q 249 196 283 163 q 168 229 215 229 q 87 196 121 229 q 53 115 53 163 q 86 33 53 67 q 168 0 119 0 z "},"\"":{"ha":576,"x_min":53,"x_max":575,"o":"m 283 864 q 249 945 283 911 q 168 979 215 979 q 87 945 121 979 q 53 864 53 911 l 53 693 q 87 613 53 646 q 168 579 121 579 q 249 613 215 579 q 283 693 283 646 l 283 864 m 575 864 q 542 946 575 913 q 460 979 508 979 q 379 945 413 979 q 346 864 346 911 l 346 693 q 379 613 346 646 q 460 579 413 579 q 542 612 508 579 q 575 693 575 644 l 575 864 z "},"#":{"ha":749,"x_min":76,"x_max":747,"o":"m 454 601 l 454 686 l 369 686 l 369 601 l 454 601 m 454 401 l 454 414 l 369 414 l 369 401 q 344 333 369 360 q 276 307 318 307 q 208 333 235 307 q 182 401 182 360 l 182 414 l 169 414 q 102 440 128 414 q 76 508 76 467 q 102 576 76 550 q 169 601 128 601 l 182 601 l 182 686 l 169 686 q 102 712 128 686 q 76 779 76 738 q 102 847 76 821 q 169 874 128 874 l 182 874 l 182 886 q 208 953 182 928 q 276 979 235 979 q 344 953 318 979 q 369 886 369 928 l 369 874 l 454 874 l 454 886 q 480 953 454 928 q 547 979 506 979 q 615 953 589 979 q 642 886 642 928 l 642 874 l 654 874 q 722 847 696 874 q 747 779 747 821 q 722 712 747 738 q 654 686 696 686 l 642 686 l 642 601 l 654 601 q 722 576 696 601 q 747 508 747 550 q 654 414 747 414 l 642 414 l 642 401 q 615 333 642 360 q 547 307 589 307 q 480 333 506 307 q 454 401 454 360 z "},"$":{"ha":619,"x_min":75,"x_max":621,"o":"m 465 619 q 453 608 465 619 q 442 561 442 596 l 440 400 q 360 207 439 286 q 168 128 282 128 q 101 153 126 128 q 75 221 75 179 q 101 289 75 263 q 168 315 126 315 q 228 340 204 315 q 253 400 253 364 q 253 428 253 413 q 254 485 254 483 l 254 561 q 333 755 254 676 q 526 833 411 833 q 594 808 568 833 q 621 740 621 782 q 596 675 621 700 q 530 647 571 650 q 465 619 489 643 m 333 -24 q 281 -3 303 -24 q 260 49 260 18 q 281 101 260 79 q 333 122 303 122 q 385 101 364 122 q 407 49 407 79 q 385 -3 407 18 q 333 -24 364 -24 m 333 832 q 281 853 303 832 q 260 906 260 875 q 281 958 260 936 q 333 979 303 979 q 385 958 364 979 q 407 906 407 936 q 385 853 407 875 q 333 832 364 832 z "},"%":{"ha":993,"x_min":75,"x_max":993,"o":"m 804 951 l 431 -94 q 346 -157 408 -157 q 277 -131 307 -157 q 247 -67 247 -106 q 254 -31 247 -50 l 626 1014 q 713 1078 649 1078 q 781 1051 751 1078 q 810 986 810 1025 q 804 951 810 967 m 815 411 q 690 359 742 411 q 638 233 638 307 q 690 108 638 160 q 815 56 742 56 q 941 108 889 56 q 993 233 993 160 q 941 359 993 307 q 815 411 889 411 m 815 317 q 874 292 850 317 q 899 233 899 268 q 874 174 899 199 q 815 150 850 150 q 756 174 781 150 q 732 233 732 199 q 756 292 732 268 q 815 317 781 317 m 253 974 q 127 922 179 974 q 75 796 75 869 q 127 670 75 722 q 253 618 179 618 q 378 670 326 618 q 431 796 431 722 q 378 922 431 869 q 253 974 326 974 m 253 879 q 312 855 288 879 q 336 796 336 831 q 312 737 336 761 q 253 713 288 713 q 194 737 218 713 q 169 796 169 761 q 194 855 169 831 q 253 879 218 879 z "},"&":{"ha":1129,"x_min":75,"x_max":1129,"o":"m 253 278 q 127 330 179 278 q 75 456 75 382 q 127 581 75 529 q 253 633 179 633 q 378 581 326 633 q 431 456 431 529 l 431 325 q 383 279 431 279 q 336 325 336 279 l 336 456 q 312 515 336 490 q 253 539 288 539 q 194 515 218 539 q 169 456 169 490 q 194 397 169 421 q 253 372 218 372 q 300 325 300 372 q 253 278 300 278 m 549 482 l 549 325 q 501 278 549 278 q 454 325 454 278 l 454 482 q 498 588 454 544 q 604 632 542 632 q 710 588 667 632 q 754 482 754 544 l 754 325 q 707 278 754 278 q 660 325 660 278 l 660 482 q 644 522 660 506 q 604 539 628 539 q 565 522 581 539 q 549 482 549 506 m 951 539 q 892 515 917 539 q 868 456 868 490 q 892 397 868 421 q 951 372 917 372 q 1010 397 986 372 q 1035 456 1035 421 l 1035 726 q 1082 774 1035 774 q 1129 726 1129 774 l 1129 456 q 1077 330 1129 382 q 951 278 1025 278 q 826 330 878 278 q 774 456 774 382 q 826 581 774 529 q 951 633 878 633 q 999 586 999 633 q 951 539 999 539 z "},"'":{"ha":264,"x_min":53,"x_max":283,"o":"m 283 864 q 249 945 283 911 q 168 979 215 979 q 87 945 121 979 q 53 864 53 911 l 53 693 q 87 613 53 646 q 168 579 121 579 q 249 613 215 579 q 283 693 283 646 l 283 864 z "},"(":{"ha":665,"x_min":75,"x_max":667,"o":"m 572 -112 q 640 -87 614 -112 q 667 -19 667 -61 q 640 49 667 22 q 572 75 614 75 q 352 165 442 75 q 263 385 263 254 l 263 579 q 352 799 263 710 q 572 889 442 889 q 640 915 614 889 q 667 983 667 942 q 640 1051 667 1025 q 572 1076 614 1076 q 219 932 364 1076 q 75 579 75 788 l 75 385 q 219 32 75 176 q 572 -112 364 -112 z "},")":{"ha":665,"x_min":74,"x_max":665,"o":"m 168 -112 q 100 -87 126 -112 q 74 -19 74 -61 q 100 49 74 22 q 168 75 126 75 q 388 165 299 75 q 478 385 478 254 l 478 579 q 388 799 478 710 q 168 889 299 889 q 100 915 126 889 q 74 983 74 942 q 100 1051 74 1025 q 168 1076 126 1076 q 521 932 376 1076 q 665 579 665 788 l 665 385 q 521 32 665 176 q 168 -112 376 -112 z "},"*":{"ha":593,"x_min":76,"x_max":593,"o":"m 335 154 q 194 108 218 108 q 161 174 161 108 q 165 278 161 194 q 76 408 76 386 q 114 443 76 428 q 231 476 135 451 q 293 571 250 507 q 335 601 315 601 q 376 571 353 601 q 439 476 381 567 q 556 443 535 451 q 593 408 593 428 q 504 278 593 386 q 508 174 508 194 q 475 108 508 108 q 335 154 451 108 z "},"+":{"ha":610,"x_min":76,"x_max":608,"o":"m 249 179 l 249 258 l 169 258 q 102 285 128 258 q 76 353 76 311 q 102 420 76 394 q 169 446 128 446 l 249 446 l 249 525 q 343 618 249 618 q 410 592 385 618 q 436 525 436 567 l 436 446 l 515 446 q 583 420 557 446 q 608 353 608 394 q 515 258 608 258 l 436 258 l 436 179 q 410 112 436 138 q 343 86 385 86 q 275 112 301 86 q 249 179 249 138 z "},",":{"ha":264,"x_min":53,"x_max":283,"o":"m 283 115 q 249 196 283 163 q 168 229 215 229 q 87 196 121 229 q 53 115 53 163 l 53 -56 q 87 -137 53 -103 q 168 -171 121 -171 q 249 -137 215 -171 q 283 -56 283 -103 l 283 115 z "},"-":{"ha":264,"x_min":53,"x_max":283,"o":"m 168 315 q 249 349 215 315 q 283 431 283 383 q 249 512 283 478 q 168 546 215 546 q 87 512 121 546 q 53 431 53 478 q 87 349 53 383 q 168 315 121 315 z "},".":{"ha":264,"x_min":53,"x_max":283,"o":"m 168 0 q 250 33 217 0 q 283 115 283 67 q 249 196 283 163 q 168 229 215 229 q 87 196 121 229 q 53 115 53 163 q 86 33 53 67 q 168 0 119 0 z "},"/":{"ha":501,"x_min":-3,"x_max":558,"o":"m 553 951 l 179 -94 q 94 -157 157 -157 q 26 -131 56 -157 q -3 -67 -3 -106 q 3 -31 -3 -46 l 376 1014 q 461 1078 399 1078 q 530 1052 501 1078 q 558 986 558 1026 q 553 951 558 967 z "},":":{"ha":264,"x_min":53,"x_max":283,"o":"m 168 315 q 249 349 215 315 q 283 431 283 383 q 249 512 283 478 q 168 546 215 546 q 87 512 121 546 q 53 431 53 478 q 87 349 53 383 q 168 315 121 315 m 168 0 q 250 33 217 0 q 283 115 283 67 q 249 196 283 163 q 168 229 215 229 q 87 196 121 229 q 53 115 53 163 q 86 33 53 67 q 168 0 119 0 z "},";":{"ha":264,"x_min":53,"x_max":283,"o":"m 168 315 q 249 349 215 315 q 283 431 283 383 q 249 512 283 478 q 168 546 215 546 q 87 512 121 546 q 53 431 53 478 q 87 349 53 383 q 168 315 121 315 m 283 115 q 249 196 283 163 q 168 229 215 229 q 87 196 121 229 q 53 115 53 163 l 53 -56 q 87 -137 53 -103 q 168 -171 121 -171 q 249 -137 215 -171 q 283 -56 283 -103 l 283 115 z "},"<":{"ha":403,"x_min":78,"x_max":403,"o":"m 240 554 l 118 431 q 78 353 78 390 q 118 275 78 322 q 240 151 126 265 q 307 122 269 122 q 374 151 344 122 q 403 218 403 181 q 374 283 403 254 l 304 353 l 374 422 q 403 488 403 451 q 374 554 403 525 q 307 583 344 583 q 240 554 269 583 z "},"=":{"ha":610,"x_min":76,"x_max":608,"o":"m 169 582 l 515 582 q 583 556 557 582 q 608 488 608 529 q 583 420 608 446 q 515 394 557 394 l 169 394 q 102 420 128 394 q 76 488 76 446 q 102 556 76 529 q 169 582 128 582 m 169 310 l 515 310 q 583 284 557 310 q 608 217 608 258 q 515 122 608 122 l 169 122 q 102 149 128 122 q 76 217 76 175 q 102 284 76 258 q 169 310 128 310 z "},">":{"ha":403,"x_min":76,"x_max":401,"o":"m 239 554 l 361 431 q 401 353 401 390 q 361 275 401 322 q 239 151 353 265 q 172 122 210 122 q 106 151 135 122 q 76 218 76 181 q 106 283 76 254 l 175 353 l 106 422 q 76 488 76 451 q 106 554 76 525 q 172 583 135 583 q 239 554 210 583 z "},"?":{"ha":694,"x_min":75,"x_max":785,"o":"m 75 625 q 177 877 75 775 q 429 979 279 979 q 682 877 579 979 q 785 625 785 775 q 682 372 785 475 q 429 269 579 269 l 319 269 q 252 295 278 269 q 226 363 226 321 q 252 431 226 404 q 319 457 278 457 l 429 457 q 548 506 499 457 q 597 625 597 556 q 548 743 597 694 q 429 792 499 792 q 311 743 360 792 q 263 625 263 694 q 236 557 263 583 q 168 531 210 531 q 101 557 126 531 q 75 625 75 583 m 333 224 q 252 190 286 224 q 218 110 218 157 q 251 28 218 61 q 333 -6 285 -6 q 415 28 382 -6 q 449 110 449 61 q 415 190 449 157 q 333 224 381 224 z "},"@":{"ha":1068,"x_min":75,"x_max":1069,"o":"m 572 979 q 925 835 781 979 q 1069 482 1069 690 q 925 129 1069 274 q 572 -15 781 -15 q 219 129 364 -15 q 75 482 75 274 q 219 835 75 690 q 572 979 364 979 m 572 226 q 391 301 465 226 q 317 482 317 375 q 391 663 317 589 q 572 738 465 738 q 753 663 679 738 q 828 482 828 589 l 828 307 q 882 482 882 386 q 792 702 882 613 q 572 792 703 792 q 351 703 440 792 q 263 482 263 614 q 352 262 263 351 q 572 172 442 172 q 693 196 635 172 l 693 482 q 658 567 693 532 q 572 603 622 603 q 487 567 522 603 q 451 482 451 532 q 487 397 451 432 q 572 361 522 361 q 640 293 640 361 q 621 245 640 264 q 572 226 601 226 z "},"A":{"ha":785,"x_min":75,"x_max":996,"o":"m 903 -318 l 896 -318 q 683 -231 769 -318 q 597 -18 597 -144 l 597 311 q 429 269 518 269 q 362 296 388 269 q 336 364 336 322 q 362 431 336 406 q 429 457 388 457 q 548 506 499 457 q 597 625 597 556 q 548 743 597 694 q 429 792 499 792 q 311 743 360 792 q 263 625 263 694 l 263 81 q 236 13 263 39 q 168 -12 210 -12 q 101 13 126 -12 q 75 81 75 39 l 75 625 q 177 877 75 775 q 429 979 279 979 q 682 877 579 979 q 785 625 785 775 l 785 -18 q 817 -98 785 -65 q 896 -131 849 -131 l 903 -131 q 970 -157 944 -131 q 996 -225 996 -183 q 969 -292 996 -265 q 903 -318 943 -318 z "},"B":{"ha":663,"x_min":75,"x_max":663,"o":"m 75 81 l 75 686 q 160 894 75 810 q 368 979 244 979 q 577 894 492 979 q 663 686 663 810 q 581 482 663 567 q 663 281 663 399 q 577 72 663 157 q 368 -12 492 -12 q 301 14 328 -12 q 275 81 275 40 q 301 149 275 122 q 370 175 328 175 q 444 206 413 175 q 475 281 475 238 q 440 357 475 326 q 358 393 406 388 q 292 423 319 397 q 265 486 265 449 q 294 553 265 528 q 368 579 324 578 q 444 611 413 581 q 475 686 475 642 q 444 761 475 731 q 368 792 413 792 q 294 760 325 792 q 263 686 263 729 l 263 81 q 237 13 263 39 q 169 -12 211 -12 q 101 13 128 -12 q 75 81 75 39 z "},"C":{"ha":665,"x_min":75,"x_max":667,"o":"m 572 -15 q 219 129 364 -15 q 75 482 75 274 q 219 835 75 690 q 572 979 364 979 q 640 953 614 979 q 667 886 667 928 q 640 818 667 844 q 572 792 614 792 q 352 702 442 792 q 263 482 263 613 q 352 262 263 351 q 572 172 442 172 q 640 146 614 172 q 667 78 667 119 q 640 10 667 36 q 572 -15 614 -15 z "},"D":{"ha":874,"x_min":75,"x_max":872,"o":"m 375 172 q 595 262 506 172 q 685 482 685 351 q 596 703 685 614 q 375 792 507 792 l 263 792 l 263 81 q 236 13 263 39 q 168 -12 210 -12 q 101 13 126 -12 q 75 81 75 39 l 75 886 q 103 951 75 924 q 168 979 131 979 l 375 979 q 728 835 585 979 q 872 482 872 692 q 728 128 872 272 q 375 -15 585 -15 q 308 10 333 -15 q 282 78 282 36 q 308 146 282 119 q 375 172 333 172 z "},"E":{"ha":661,"x_min":75,"x_max":667,"o":"m 572 -15 q 219 129 364 -15 q 75 482 75 274 q 219 835 75 690 q 572 979 364 979 q 640 953 614 979 q 667 886 667 928 q 640 818 667 844 q 572 792 614 792 q 392 734 472 792 q 279 582 311 676 l 572 582 q 640 556 614 582 q 667 489 667 531 q 640 421 667 447 q 572 394 614 394 l 275 394 q 387 234 304 296 q 572 172 469 172 q 640 146 614 172 q 667 78 667 119 q 640 10 667 36 q 572 -15 614 -15 z "},"F":{"ha":600,"x_min":75,"x_max":599,"o":"m 504 360 l 263 360 l 263 81 q 236 13 263 39 q 168 -12 210 -12 q 101 13 126 -12 q 75 81 75 39 l 75 679 q 161 893 75 807 q 375 979 247 979 l 504 979 q 572 953 546 979 q 599 886 599 928 q 572 818 599 844 q 504 792 546 792 l 375 792 q 295 759 328 792 q 263 679 263 726 l 263 547 l 504 547 q 572 522 546 547 q 599 454 599 496 q 572 386 599 413 q 504 360 546 360 z "},"G":{"ha":1064,"x_min":75,"x_max":1069,"o":"m 679 576 l 976 576 q 1042 548 1014 576 q 1069 482 1069 519 q 925 129 1069 274 q 572 -15 781 -15 q 219 129 364 -15 q 75 482 75 274 q 219 835 75 690 q 572 979 364 979 q 943 813 793 979 q 969 751 969 783 q 940 684 969 713 q 872 656 911 656 q 804 689 835 656 q 572 792 713 792 q 351 703 440 792 q 263 482 263 614 q 352 262 263 351 q 572 172 442 172 q 756 232 675 172 q 868 389 838 292 l 679 389 q 612 415 638 389 q 586 483 586 442 q 612 551 586 525 q 679 576 638 576 z "},"H":{"ha":829,"x_min":75,"x_max":1046,"o":"m 951 -318 l 943 -318 q 730 -231 817 -318 q 643 -18 643 -144 l 643 429 l 263 429 l 263 81 q 236 13 263 39 q 168 -12 210 -12 q 101 13 126 -12 q 75 81 75 39 l 75 886 q 101 953 75 928 q 168 979 126 979 q 236 953 210 979 q 263 886 263 928 l 263 617 l 643 617 l 643 886 q 669 953 643 928 q 736 979 694 979 q 804 953 778 979 q 831 886 831 928 l 831 -18 q 863 -98 831 -65 q 943 -131 896 -131 l 951 -131 q 1019 -157 993 -131 q 1046 -225 1046 -183 q 1019 -292 1046 -267 q 951 -318 993 -318 z "},"I":{"ha":263,"x_min":75,"x_max":263,"o":"m 263 886 l 263 81 q 236 13 263 39 q 168 -12 210 -12 q 101 13 126 -12 q 75 81 75 39 l 75 886 q 101 953 75 928 q 168 979 126 979 q 236 953 210 979 q 263 886 263 928 z "},"J":{"ha":686,"x_min":75,"x_max":688,"o":"m 688 886 l 688 292 q 599 74 688 163 q 381 -15 510 -15 q 163 74 251 -15 q 75 292 75 163 q 101 359 75 333 q 169 385 128 385 q 237 359 211 385 q 263 292 263 333 q 297 207 263 242 q 381 172 331 172 q 465 207 431 172 q 500 292 500 242 l 500 886 q 526 953 500 928 q 593 979 551 979 q 661 953 635 979 q 688 886 688 928 z "},"K":{"ha":714,"x_min":75,"x_max":925,"o":"m 832 -318 l 826 -318 q 613 -232 699 -318 q 526 -18 526 -146 l 526 289 q 493 367 526 335 q 414 400 460 400 l 263 400 l 263 81 q 236 13 263 39 q 168 -12 210 -12 q 101 13 126 -12 q 75 81 75 39 l 75 883 q 101 951 75 925 q 168 978 126 978 q 236 951 210 978 q 263 883 263 925 l 263 589 l 333 588 q 406 624 378 592 q 435 701 435 657 q 461 768 435 742 q 528 794 488 794 q 596 768 569 794 q 622 700 622 742 q 576 540 622 614 q 714 289 714 451 l 714 -18 q 747 -98 714 -65 q 826 -131 779 -131 l 832 -131 q 925 -225 925 -131 q 899 -292 925 -267 q 832 -318 874 -318 z "},"L":{"ha":529,"x_min":75,"x_max":529,"o":"m 436 -12 l 375 -12 q 161 74 247 -12 q 75 288 75 160 l 75 886 q 101 953 75 928 q 168 979 126 979 q 236 953 210 979 q 263 886 263 928 l 263 288 q 295 208 263 240 q 375 175 328 175 l 436 175 q 503 149 478 175 q 529 81 529 122 q 503 13 529 39 q 436 -12 478 -12 z "},"M":{"ha":1064,"x_min":75,"x_max":1275,"o":"m 875 679 q 842 758 875 725 q 764 792 810 792 q 675 747 708 792 l 675 81 q 649 13 675 39 q 581 -12 622 -12 q 513 13 539 -12 q 488 81 488 39 l 488 679 q 454 758 488 725 q 375 792 421 792 q 295 759 328 792 q 263 679 263 726 l 263 81 q 237 13 263 39 q 169 -12 211 -12 q 101 13 128 -12 q 75 81 75 39 l 75 679 q 162 892 75 806 q 375 979 249 979 q 569 907 485 979 q 764 979 653 979 q 976 892 890 979 q 1063 679 1063 806 l 1063 -18 q 1095 -98 1063 -65 q 1175 -131 1128 -131 l 1181 -131 q 1249 -157 1222 -131 q 1275 -225 1275 -183 q 1249 -292 1275 -267 q 1181 -318 1222 -318 l 1175 -318 q 962 -231 1049 -318 q 875 -18 875 -144 l 875 679 z "},"N":{"ha":675,"x_min":75,"x_max":888,"o":"m 793 -318 l 788 -318 q 574 -232 660 -318 q 488 -18 488 -146 l 488 63 l 486 679 q 453 758 486 725 q 375 792 421 792 q 295 759 328 792 q 263 679 263 726 l 263 81 q 236 13 263 39 q 168 -12 210 -12 q 101 13 126 -12 q 75 81 75 39 l 75 679 q 162 892 75 806 q 375 979 249 979 q 583 897 493 979 q 674 696 674 814 l 675 -18 q 708 -98 675 -65 q 788 -131 740 -131 l 793 -131 q 861 -157 835 -131 q 888 -225 888 -183 q 861 -292 888 -267 q 793 -318 835 -318 z "},"O":{"ha":1068,"x_min":75,"x_max":1069,"o":"m 572 979 q 925 835 781 979 q 1069 482 1069 690 q 925 129 1069 274 q 572 -15 781 -15 q 219 129 364 -15 q 75 482 75 274 q 219 835 75 690 q 572 979 364 979 m 572 792 q 351 703 440 792 q 263 482 263 614 q 352 262 263 351 q 572 172 442 172 q 792 262 703 172 q 882 482 882 351 q 792 702 882 613 q 572 792 703 792 z "},"P":{"ha":785,"x_min":75,"x_max":785,"o":"m 429 457 q 548 506 499 457 q 597 625 597 556 q 548 743 597 694 q 429 792 499 792 q 311 743 360 792 q 263 625 263 694 l 263 81 q 236 13 263 39 q 168 -12 210 -12 q 101 14 128 -12 q 75 81 75 40 l 75 625 q 177 877 75 775 q 429 979 279 979 q 682 877 579 979 q 785 625 785 775 q 682 372 785 475 q 429 269 579 269 q 362 296 388 269 q 336 364 336 322 q 362 431 336 406 q 429 457 388 457 z "},"Q":{"ha":1067,"x_min":75,"x_max":1069,"o":"m 675 -242 q 648 -308 675 -282 q 581 -335 621 -335 q 514 -308 540 -335 q 488 -242 488 -282 l 486 269 q 455 349 486 315 q 379 382 424 382 q 308 408 335 382 q 281 476 281 433 q 307 544 281 518 q 375 569 333 569 q 588 483 501 569 q 674 269 674 396 l 674 189 q 825 301 768 221 q 882 482 882 382 q 792 702 882 613 q 572 792 703 792 q 351 703 440 792 q 263 482 263 614 q 375 243 263 336 q 411 172 411 214 q 383 104 411 133 q 315 75 354 75 q 256 99 285 75 q 75 482 75 247 q 219 835 75 690 q 572 979 364 979 q 925 835 781 979 q 1069 482 1069 690 q 958 167 1069 304 q 674 -4 847 31 l 675 -242 z "},"R":{"ha":785,"x_min":75,"x_max":785,"o":"m 524 282 q 557 206 525 238 q 633 175 589 175 q 703 149 676 175 q 729 81 729 124 q 703 13 729 39 q 635 -12 676 -12 q 422 74 507 -12 q 336 288 336 160 l 336 364 q 364 429 336 401 q 429 457 392 457 q 548 506 499 457 q 597 625 597 556 q 548 743 597 694 q 429 792 499 792 q 311 743 360 792 q 263 625 263 694 l 263 81 q 236 13 263 39 q 168 -12 210 -12 q 101 14 128 -12 q 75 81 75 40 l 75 625 q 177 877 75 775 q 429 979 279 979 q 682 877 579 979 q 785 625 785 775 q 713 410 785 504 q 524 282 640 315 z "},"S":{"ha":617,"x_min":75,"x_max":618,"o":"m 464 768 q 439 707 439 743 l 440 258 q 361 65 440 144 q 168 -14 282 -14 q 101 12 126 -14 q 75 79 75 38 q 101 147 75 121 q 168 174 126 174 q 228 198 204 174 q 253 258 253 222 l 251 707 q 331 901 251 822 q 524 979 410 979 q 592 953 565 979 q 618 886 618 928 q 594 820 618 844 q 527 792 569 796 q 464 768 485 789 z "},"T":{"ha":704,"x_min":76,"x_max":704,"o":"m 481 81 q 455 13 481 39 q 388 -12 429 -12 q 319 13 346 -12 q 293 81 293 39 l 293 792 l 171 792 q 103 818 129 792 q 76 886 76 844 q 103 953 76 928 q 171 979 129 979 l 610 979 q 678 953 651 979 q 704 886 704 928 q 678 818 704 844 q 610 792 651 792 l 481 792 l 481 81 z "},"U":{"ha":675,"x_min":75,"x_max":674,"o":"m 263 886 l 263 288 q 295 208 263 240 q 375 175 328 175 q 454 208 422 175 q 486 288 486 240 l 486 888 q 513 955 486 928 q 581 982 540 982 q 648 956 622 982 q 674 888 674 929 l 674 288 q 588 74 674 161 q 375 -12 501 -12 q 161 74 247 -12 q 75 288 75 160 l 75 886 q 101 953 75 928 q 168 979 126 979 q 236 953 210 979 q 263 886 263 928 z "},"V":{"ha":696,"x_min":14,"x_max":761,"o":"m 197 917 l 388 367 l 578 917 q 664 981 600 981 q 732 954 703 981 q 761 889 761 928 q 754 856 761 875 l 476 50 q 388 -29 449 -29 q 299 50 326 -29 l 19 856 q 14 889 14 872 q 43 954 14 928 q 111 981 72 981 q 197 917 175 981 z "},"W":{"ha":1061,"x_min":75,"x_max":1061,"o":"m 461 215 q 375 175 428 175 q 295 208 328 175 q 263 288 263 240 l 263 886 q 237 953 263 928 q 169 979 211 979 q 101 953 128 979 q 75 886 75 928 l 75 288 q 161 74 75 160 q 375 -12 247 -12 q 568 58 485 -12 q 761 -12 651 -12 q 974 74 888 -12 q 1061 288 1061 161 l 1061 886 q 1035 953 1061 928 q 967 979 1008 979 q 899 953 925 979 q 874 886 874 928 l 874 288 q 841 208 874 240 q 761 175 808 175 q 681 208 714 175 q 649 288 649 240 l 649 886 q 623 953 649 928 q 556 979 597 979 q 488 953 514 979 q 461 886 461 928 l 461 215 z "},"X":{"ha":675,"x_min":75,"x_max":674,"o":"m 674 81 q 648 13 674 39 q 581 -12 622 -12 q 513 14 540 -12 q 486 81 486 40 l 486 269 q 453 349 486 315 q 375 382 421 382 q 295 349 328 382 q 263 269 263 317 l 263 81 q 236 13 263 39 q 168 -12 210 -12 q 101 13 126 -12 q 75 81 75 39 l 75 269 q 161 481 75 393 q 75 690 75 568 l 75 886 q 101 953 75 928 q 168 979 126 979 q 236 953 210 979 q 263 886 263 928 l 263 690 q 295 611 263 643 q 375 579 328 579 q 453 612 421 579 q 486 690 486 644 l 486 886 q 513 953 486 926 q 581 979 540 979 q 648 953 622 979 q 674 886 674 928 l 674 690 q 588 481 674 568 q 674 269 674 393 l 674 81 z "},"Y":{"ha":675,"x_min":75,"x_max":674,"o":"m 674 288 q 588 74 674 161 q 375 -12 501 -12 q 161 74 247 -12 q 75 288 75 160 l 75 301 q 101 369 75 343 q 168 394 126 394 q 236 369 210 394 q 263 301 263 343 l 263 288 q 295 208 263 240 q 375 175 328 175 q 454 208 422 175 q 486 288 486 240 l 486 421 q 375 399 433 399 q 161 485 247 399 q 75 699 75 571 l 75 886 q 101 953 75 928 q 168 979 126 979 q 236 953 210 979 q 263 886 263 928 l 263 699 q 295 619 263 651 q 375 586 328 586 q 454 619 422 586 q 486 699 486 651 l 486 699 l 486 886 q 513 953 486 926 q 581 979 540 979 q 648 953 622 979 q 674 886 674 928 l 674 288 z "},"Z":{"ha":665,"x_min":-7,"x_max":665,"o":"m 168 979 l 565 979 q 665 900 665 979 q 646 839 665 872 l 256 175 l 571 175 q 638 149 613 175 q 664 81 664 122 q 638 13 664 39 q 571 -12 613 -12 l 92 -12 q 22 8 51 -12 q -7 67 -7 28 q 11 129 -7 99 l 401 792 l 168 792 q 101 818 126 792 q 75 886 75 844 q 101 953 75 928 q 168 979 126 979 z "},"[":{"ha":529,"x_min":75,"x_max":529,"o":"m 436 -290 l 375 -290 q 162 -203 249 -290 q 75 10 75 -117 l 75 836 q 162 1049 75 963 q 375 1136 249 1136 l 436 1136 q 503 1110 478 1136 q 529 1042 529 1083 q 503 974 529 1000 q 436 949 478 949 l 375 949 q 295 916 328 949 q 263 836 263 883 l 263 10 q 295 -70 263 -37 q 375 -103 328 -103 l 436 -103 q 503 -129 478 -103 q 529 -197 529 -156 q 503 -265 529 -239 q 436 -290 478 -290 z "},"\\":{"ha":501,"x_min":-3,"x_max":558,"o":"m 3 951 l 376 -94 q 461 -157 399 -157 q 529 -131 500 -157 q 558 -67 558 -106 q 553 -31 558 -46 l 179 1014 q 94 1078 157 1078 q 26 1052 54 1078 q -3 986 -3 1026 q 3 951 -3 967 z "},"]":{"ha":529,"x_min":74,"x_max":529,"o":"m 168 -290 l 229 -290 q 442 -203 356 -290 q 529 10 529 -117 l 529 836 q 442 1049 529 961 q 229 1136 354 1136 l 168 1136 q 100 1110 126 1136 q 74 1042 74 1083 q 100 974 74 1000 q 168 949 126 949 l 229 949 q 308 915 275 949 q 342 836 342 882 l 342 10 q 309 -70 342 -37 q 229 -103 276 -103 l 168 -103 q 100 -129 126 -103 q 74 -197 74 -156 q 100 -265 74 -239 q 168 -290 126 -290 z "},"^":{"ha":540,"x_min":78,"x_max":540,"o":"m 511 807 q 386 929 406 911 q 308 971 340 971 q 232 929 279 971 q 107 807 208 908 q 78 742 78 778 q 107 675 78 704 q 174 646 136 646 q 239 675 210 646 l 308 743 l 378 675 q 443 646 407 646 q 511 674 482 646 q 540 742 540 703 q 511 807 540 778 z "},"_":{"ha":793,"x_min":79,"x_max":788,"o":"m 694 188 q 762 162 736 188 q 788 94 788 136 q 762 26 788 53 q 694 0 736 0 l 174 0 q 106 26 132 0 q 79 94 79 53 q 106 162 79 136 q 174 188 132 188 l 694 188 z "},"`":{"ha":364,"x_min":67,"x_max":361,"o":"m 288 901 q 181 972 258 972 q 138 964 158 972 q 67 857 67 935 q 75 814 67 835 l 140 656 q 246 585 169 585 q 290 594 268 585 q 361 700 361 625 q 353 744 361 725 l 288 901 z "},"a":{"ha":785,"x_min":75,"x_max":785,"o":"m 429 -15 q 177 88 279 -15 q 75 340 75 190 q 177 592 75 490 q 429 694 279 694 q 682 592 579 694 q 785 340 785 490 l 785 81 q 758 13 785 39 q 690 -12 732 -12 q 623 13 649 -12 q 597 81 597 39 l 597 340 q 548 458 597 410 q 429 507 499 507 q 311 458 360 507 q 263 340 263 410 q 311 222 263 271 q 429 172 360 172 q 497 147 471 172 q 524 79 524 121 q 497 11 524 38 q 429 -15 471 -15 z "},"b":{"ha":785,"x_min":75,"x_max":785,"o":"m 429 697 q 682 594 579 697 q 785 342 785 492 q 681 90 785 193 q 429 -12 578 -12 q 178 90 281 -12 q 75 342 75 193 l 75 886 q 101 953 75 926 q 168 979 128 979 q 236 953 210 979 q 263 886 263 928 l 263 342 q 311 224 263 272 q 429 175 360 175 q 548 224 499 175 q 597 342 597 272 q 548 460 597 411 q 429 510 499 510 q 362 535 388 510 q 336 603 336 561 q 362 671 336 644 q 429 697 388 697 z "},"c":{"ha":524,"x_min":75,"x_max":524,"o":"m 429 510 q 311 460 360 510 q 263 342 263 411 q 311 224 263 272 q 429 175 360 175 q 497 149 471 175 q 524 81 524 122 q 497 13 524 39 q 429 -12 471 -12 q 178 90 281 -12 q 75 342 75 193 q 177 594 75 492 q 429 697 279 697 q 497 671 471 697 q 524 603 524 644 q 497 535 524 561 q 429 510 471 510 z "},"d":{"ha":785,"x_min":75,"x_max":785,"o":"m 429 510 q 311 460 360 510 q 263 342 263 411 q 311 224 263 272 q 429 175 360 175 q 548 224 499 175 q 597 342 597 272 l 597 886 q 624 953 597 926 q 690 979 650 979 q 758 953 732 979 q 785 886 785 928 l 785 342 q 681 90 785 193 q 429 -12 578 -12 q 178 90 281 -12 q 75 342 75 193 q 177 594 75 492 q 429 697 279 697 q 497 671 471 697 q 524 603 524 644 q 497 535 524 561 q 429 510 471 510 z "},"e":{"ha":714,"x_min":75,"x_max":714,"o":"m 674 446 l 496 272 q 431 243 465 243 q 363 272 392 243 q 335 340 335 301 q 365 406 335 375 l 465 504 q 429 507 447 507 q 311 458 360 507 q 263 340 263 410 q 311 222 263 271 q 429 172 360 172 l 553 172 q 620 147 594 172 q 646 79 646 121 q 620 11 646 38 q 553 -15 594 -15 l 429 -15 q 177 88 279 -15 q 75 340 75 190 q 177 592 75 490 q 429 694 279 694 q 686 586 581 694 q 714 522 714 557 q 674 446 714 476 z "},"f":{"ha":676,"x_min":75,"x_max":679,"o":"m 586 293 l 263 293 l 263 81 q 236 13 263 39 q 168 -12 210 -12 q 101 13 126 -12 q 75 81 75 39 l 75 679 q 161 893 75 807 q 375 979 247 979 q 588 892 501 979 q 674 679 674 806 l 674 669 q 648 601 674 628 q 581 575 622 575 q 513 602 540 575 q 486 669 486 629 l 486 679 q 454 759 486 726 q 375 792 422 792 q 295 759 328 792 q 263 679 263 726 l 263 481 l 586 481 q 653 454 628 481 q 679 386 679 428 q 653 319 679 344 q 586 293 628 293 z "},"g":{"ha":785,"x_min":75,"x_max":783,"o":"m 429 -15 q 177 88 279 -15 q 75 340 75 190 q 177 592 75 490 q 429 694 279 694 q 681 592 579 694 q 783 340 783 490 l 783 6 q 715 -162 783 -93 q 549 -231 646 -231 l 429 -231 q 311 -280 360 -231 q 263 -399 263 -329 q 311 -517 263 -468 q 429 -565 360 -565 q 547 -517 499 -565 q 596 -399 596 -468 q 623 -331 596 -358 q 690 -304 650 -304 q 758 -331 732 -304 q 783 -399 783 -357 q 681 -650 783 -547 q 429 -753 578 -753 q 178 -650 281 -753 q 75 -399 75 -547 q 177 -147 75 -250 q 428 -43 279 -43 l 549 -43 q 582 -28 568 -43 q 596 6 596 -14 l 596 340 q 547 458 596 410 q 429 507 499 507 q 311 458 360 507 q 263 340 263 410 q 311 222 263 271 q 429 172 360 172 q 497 147 471 172 q 524 79 524 121 q 497 11 524 38 q 429 -15 471 -15 z "},"h":{"ha":675,"x_min":75,"x_max":886,"o":"m 793 -318 l 788 -318 q 574 -231 660 -318 q 488 -18 488 -144 l 486 396 q 453 474 486 442 q 375 507 421 507 q 295 475 328 507 q 263 396 263 443 l 263 81 q 236 13 263 39 q 168 -12 210 -12 q 101 13 126 -12 q 75 81 75 39 l 75 886 q 101 953 75 928 q 168 979 126 979 q 236 953 210 979 q 263 886 263 928 l 263 674 q 375 694 315 694 q 588 608 501 694 q 675 396 675 522 l 675 -18 q 708 -98 675 -65 q 788 -131 740 -131 l 793 -131 q 860 -157 835 -131 q 886 -225 886 -183 q 860 -292 886 -267 q 793 -318 835 -318 z "},"i":{"ha":264,"x_min":53,"x_max":283,"o":"m 263 81 q 236 13 263 39 q 168 -12 210 -12 q 101 13 126 -12 q 75 81 75 39 l 75 601 q 101 669 75 643 q 168 694 126 694 q 263 601 263 694 l 263 81 m 168 992 q 87 958 121 992 q 53 876 53 924 q 87 795 53 829 q 168 761 121 761 q 249 795 215 761 q 283 876 283 829 q 249 958 283 924 q 168 992 215 992 z "},"j":{"ha":263,"x_min":-137,"x_max":283,"o":"m 168 992 q 87 958 121 992 q 53 876 53 924 q 87 795 53 829 q 168 761 121 761 q 249 795 215 761 q 283 876 283 829 q 249 958 283 924 q 168 992 215 992 m -43 -318 l -37 -318 q 176 -231 89 -318 q 263 -18 263 -144 l 263 601 q 168 694 263 694 q 101 669 126 694 q 75 601 75 643 l 75 -18 q 42 -98 75 -65 q -37 -131 10 -131 l -43 -131 q -111 -157 -85 -131 q -137 -225 -137 -183 q -111 -292 -137 -267 q -43 -318 -85 -318 z "},"k":{"ha":653,"x_min":75,"x_max":865,"o":"m 771 -318 l 765 -318 q 552 -231 639 -318 q 465 -18 465 -144 l 465 146 q 433 225 465 193 q 353 257 400 257 l 263 257 l 263 81 q 236 13 263 39 q 168 -12 210 -12 q 101 13 126 -12 q 75 81 75 39 l 75 883 q 101 951 75 925 q 168 978 126 978 q 236 951 210 978 q 263 883 263 925 l 263 490 l 322 489 q 401 520 368 488 q 435 599 435 553 q 528 694 435 694 q 596 669 569 694 q 622 601 622 643 q 531 386 622 475 q 653 146 653 296 l 653 -18 q 685 -98 653 -65 q 765 -131 718 -131 l 771 -131 q 839 -157 813 -131 q 865 -225 865 -183 q 839 -292 865 -267 q 771 -318 813 -318 z "},"l":{"ha":263,"x_min":75,"x_max":263,"o":"m 263 883 l 263 81 q 236 13 263 39 q 168 -12 210 -12 q 101 13 126 -12 q 75 81 75 39 l 75 883 q 101 951 75 925 q 168 976 126 976 q 263 883 263 976 z "},"m":{"ha":1064,"x_min":75,"x_max":1275,"o":"m 875 396 q 842 474 875 442 q 764 507 810 507 q 675 464 708 507 l 675 81 q 649 13 675 39 q 581 -12 622 -12 q 513 13 539 -12 q 488 81 488 39 l 488 396 q 454 474 488 442 q 375 507 421 507 q 295 475 328 507 q 263 396 263 443 l 263 81 q 237 13 263 39 q 169 -12 211 -12 q 101 13 128 -12 q 75 81 75 39 l 75 396 q 162 608 75 522 q 375 694 249 694 q 569 624 485 694 q 764 694 653 694 q 976 608 890 694 q 1063 396 1063 522 l 1063 -18 q 1095 -98 1063 -65 q 1175 -131 1128 -131 l 1181 -131 q 1249 -157 1222 -131 q 1275 -225 1275 -183 q 1249 -292 1275 -267 q 1181 -318 1222 -318 l 1175 -318 q 962 -231 1049 -318 q 875 -18 875 -144 l 875 396 z "},"n":{"ha":675,"x_min":75,"x_max":888,"o":"m 793 -318 l 788 -318 q 574 -232 660 -318 q 488 -18 488 -146 l 488 47 l 486 396 q 453 474 486 442 q 375 507 421 507 q 295 475 328 507 q 263 396 263 443 l 263 81 q 236 13 263 39 q 168 -12 210 -12 q 101 13 126 -12 q 75 81 75 39 l 75 396 q 162 608 75 522 q 375 694 249 694 q 588 608 501 694 q 675 396 675 522 l 675 -18 q 708 -98 675 -65 q 788 -131 740 -131 l 793 -131 q 861 -157 835 -131 q 888 -225 888 -183 q 861 -292 888 -267 q 793 -318 835 -318 z "},"o":{"ha":786,"x_min":75,"x_max":785,"o":"m 429 694 q 682 592 579 694 q 785 340 785 490 q 682 88 785 190 q 429 -15 579 -15 q 177 88 279 -15 q 75 340 75 190 q 177 592 75 490 q 429 694 279 694 m 429 507 q 311 458 360 507 q 263 340 263 410 q 311 222 263 271 q 429 172 360 172 q 548 222 499 172 q 597 340 597 271 q 548 458 597 410 q 429 507 499 507 z "},"p":{"ha":785,"x_min":75,"x_max":785,"o":"m 429 172 q 548 222 499 172 q 597 340 597 271 q 548 458 597 410 q 429 507 499 507 q 311 458 360 507 q 263 340 263 410 l 263 -203 q 236 -271 263 -244 q 168 -297 210 -297 q 101 -271 126 -297 q 75 -203 75 -244 l 75 340 q 177 592 75 490 q 429 694 279 694 q 682 592 579 694 q 785 340 785 490 q 682 88 785 190 q 429 -15 579 -15 q 362 11 388 -15 q 336 79 336 38 q 362 147 336 121 q 429 172 388 172 z "},"q":{"ha":785,"x_min":75,"x_max":785,"o":"m 429 -15 q 177 88 279 -15 q 75 340 75 190 q 177 592 75 490 q 429 694 279 694 q 682 592 579 694 q 785 340 785 490 l 785 -203 q 758 -271 785 -244 q 690 -297 732 -297 q 623 -271 649 -297 q 597 -203 597 -244 l 597 340 q 548 458 597 410 q 429 507 499 507 q 311 458 360 507 q 263 340 263 410 q 311 222 263 271 q 429 172 360 172 q 497 147 471 172 q 524 79 524 121 q 497 11 524 38 q 429 -15 471 -15 z "},"r":{"ha":468,"x_min":75,"x_max":468,"o":"m 263 396 l 263 81 q 236 13 263 39 q 168 -12 210 -12 q 101 13 126 -12 q 75 81 75 39 l 75 396 q 162 608 75 522 q 375 694 249 694 q 442 668 415 694 q 468 601 468 642 q 372 507 468 515 q 294 473 325 503 q 263 396 263 443 z "},"s":{"ha":619,"x_min":75,"x_max":621,"o":"m 465 481 q 453 469 465 481 q 442 422 442 457 l 440 261 q 360 68 439 147 q 168 -11 282 -11 q 101 15 126 -11 q 75 82 75 40 q 101 150 75 124 q 168 176 126 176 q 228 201 204 176 q 253 261 253 225 q 253 289 253 274 q 254 346 254 344 l 254 422 q 333 616 254 538 q 526 694 411 694 q 594 669 568 694 q 621 601 621 643 q 596 536 621 561 q 530 508 571 511 q 465 481 489 504 z "},"t":{"ha":675,"x_min":75,"x_max":674,"o":"m 674 288 q 588 74 674 161 q 375 -12 501 -12 q 161 74 247 -12 q 75 288 75 160 l 75 765 q 101 833 75 807 q 168 860 126 860 q 236 833 210 860 q 263 765 263 807 l 263 692 l 581 692 q 648 666 622 692 q 674 599 674 640 q 581 504 674 504 l 263 504 l 263 288 q 295 208 263 240 q 375 175 328 175 q 454 208 422 175 q 486 288 486 240 l 486 300 q 513 367 486 340 q 581 393 540 393 q 647 367 621 393 q 674 300 674 340 l 674 288 z "},"u":{"ha":675,"x_min":75,"x_max":674,"o":"m 263 599 l 263 288 q 295 208 263 240 q 375 175 328 175 q 454 208 422 175 q 486 288 486 240 l 486 601 q 513 669 486 643 q 581 694 539 694 q 648 669 622 694 q 674 601 674 643 l 674 288 q 588 74 674 161 q 375 -12 501 -12 q 161 74 247 -12 q 75 288 75 160 l 75 599 q 101 667 75 640 q 168 693 126 693 q 236 667 210 693 q 263 599 263 640 z "},"v":{"ha":617,"x_min":47,"x_max":639,"o":"m 229 635 l 343 340 l 457 635 q 542 696 481 696 q 610 669 581 696 q 639 604 639 643 q 632 568 639 586 l 431 47 q 343 -28 401 -28 q 256 47 285 -28 l 54 568 q 47 604 47 586 q 76 669 47 643 q 144 696 106 696 q 229 635 206 696 z "},"w":{"ha":1064,"x_min":75,"x_max":1063,"o":"m 675 221 q 764 178 708 178 q 843 210 811 178 q 875 290 875 243 l 875 604 q 901 672 875 646 q 969 697 928 697 q 1037 672 1011 697 q 1063 604 1063 646 l 1063 290 q 976 77 1063 164 q 764 -10 890 -10 q 569 61 653 -10 q 375 -10 485 -10 q 161 76 247 -10 q 75 290 75 163 l 75 604 q 169 697 75 697 q 237 672 211 697 q 263 604 263 646 l 263 290 q 295 210 263 243 q 375 178 328 178 q 455 210 422 178 q 488 290 488 243 l 488 604 q 513 672 488 646 q 581 697 539 697 q 675 604 675 697 l 675 221 z "},"x":{"ha":676,"x_min":75,"x_max":674,"o":"m 674 81 q 648 13 674 39 q 581 -12 622 -12 q 513 14 540 -12 q 486 81 486 40 l 486 117 q 453 196 486 163 q 375 229 421 229 q 295 197 328 229 q 263 117 263 164 l 263 81 q 236 13 263 39 q 168 -12 210 -12 q 101 13 126 -12 q 75 81 75 39 l 75 117 q 176 342 75 251 q 75 565 75 431 l 75 601 q 101 669 75 643 q 168 694 126 694 q 263 601 263 694 l 263 565 q 295 486 263 518 q 375 454 328 454 q 453 487 421 454 q 486 565 486 519 l 486 601 q 513 669 486 643 q 581 694 539 694 q 648 669 622 694 q 674 601 674 643 l 674 565 q 572 342 674 431 q 674 117 674 251 l 674 81 z "},"y":{"ha":675,"x_min":75,"x_max":674,"o":"m 375 -12 q 161 74 247 -12 q 75 288 75 160 l 75 601 q 101 669 75 643 q 168 694 126 694 q 263 601 263 694 l 263 288 q 295 208 263 240 q 375 175 328 175 q 454 208 422 175 q 486 288 486 240 l 486 601 q 513 669 486 643 q 581 694 539 694 q 648 669 622 694 q 674 601 674 643 l 674 -18 q 587 -231 674 -144 q 374 -318 500 -318 l 368 -318 q 300 -292 326 -318 q 274 -225 274 -267 q 300 -157 274 -183 q 368 -131 326 -131 l 374 -131 q 453 -97 419 -131 q 486 -18 486 -64 l 486 8 q 375 -12 433 -12 z "},"z":{"ha":607,"x_min":21,"x_max":654,"o":"m 168 694 l 554 694 q 654 633 654 694 q 526 410 654 563 q 322 175 478 351 l 511 175 q 578 149 553 175 q 604 81 604 122 q 578 14 604 40 q 511 -12 551 -12 l 122 -12 q 21 50 21 -12 q 149 272 21 121 q 354 507 178 307 l 168 507 q 101 534 128 507 q 75 601 75 561 q 101 669 75 643 q 168 694 126 694 z "},"{":{"ha":529,"x_min":75,"x_max":529,"o":"m 436 -290 l 375 -290 q 162 -203 249 -290 q 75 10 75 -117 l 75 836 q 162 1049 75 963 q 375 1136 249 1136 l 436 1136 q 503 1110 478 1136 q 529 1042 529 1083 q 503 974 529 1000 q 436 949 478 949 l 375 949 q 295 916 328 949 q 263 836 263 883 l 263 10 q 295 -70 263 -37 q 375 -103 328 -103 l 436 -103 q 503 -129 478 -103 q 529 -197 529 -156 q 503 -265 529 -239 q 436 -290 478 -290 z "},"|":{"ha":263,"x_min":75,"x_max":263,"o":"m 263 1025 l 263 -58 q 236 -126 263 -100 q 168 -151 210 -151 q 101 -126 126 -151 q 75 -58 75 -100 l 75 1025 q 101 1092 75 1067 q 168 1118 126 1118 q 236 1092 210 1118 q 263 1025 263 1067 z "},"}":{"ha":529,"x_min":74,"x_max":529,"o":"m 168 -290 l 229 -290 q 442 -203 356 -290 q 529 10 529 -117 l 529 836 q 442 1049 529 961 q 229 1136 354 1136 l 168 1136 q 100 1110 126 1136 q 74 1042 74 1083 q 100 974 74 1000 q 168 949 126 949 l 229 949 q 308 915 275 949 q 342 836 342 882 l 342 10 q 309 -70 342 -37 q 229 -103 276 -103 l 168 -103 q 100 -129 126 -103 q 74 -197 74 -156 q 100 -265 74 -239 q 168 -290 126 -290 z "},"~":{"ha":546,"x_min":68,"x_max":546,"o":"m 93 913 q 222 978 151 978 q 318 953 260 978 l 375 926 q 381 928 379 926 q 449 961 410 961 q 517 933 488 961 q 546 865 546 904 q 519 803 546 832 q 392 738 461 738 q 298 763 358 738 q 238 789 238 789 q 233 788 235 789 q 164 754 203 754 q 97 783 126 754 q 68 850 68 813 q 93 913 68 885 z "},"†":{"ha":1603,"x_min":40,"x_max":1600,"o":"m 1554 722 q 1600 599 1600 661 q 1536 461 1600 521 q 1543 425 1543 442 q 1451 349 1543 361 q 1453 326 1453 338 q 1332 201 1453 225 q 1203 92 1314 92 q 1068 124 1140 92 q 1068 122 1068 122 q 1056 131 1063 125 q 951 53 1003 92 q 836 4 885 4 q 560 167 726 4 l 560 165 q 385 122 465 122 q 239 167 303 122 q 163 254 190 201 q 143 313 138 299 q 40 397 76 349 q 186 447 149 396 q 71 576 96 447 q 253 728 208 650 q 63 836 107 714 q 374 1032 314 885 q 532 1308 418 1188 q 811 1364 678 1464 q 885 1369 849 1369 q 1304 1126 1136 1369 q 1421 883 1374 1025 q 1432 786 1432 840 q 1413 654 1432 718 q 1483 626 1453 626 q 1554 722 1543 626 m 1208 699 q 1150 844 1190 774 q 861 1138 1053 1014 q 644 1018 710 1143 q 608 892 617 965 q 597 789 607 836 q 638 792 615 792 q 778 740 742 792 q 754 735 771 735 q 671 753 724 735 q 593 769 626 771 q 564 689 581 724 q 472 583 525 604 q 438 557 464 572 q 531 317 472 390 q 669 157 626 197 q 836 75 758 75 q 1001 157 914 75 q 1140 318 1044 197 q 1206 493 1196 386 q 1208 699 1208 515 m 1172 744 q 1143 746 1161 738 q 1085 764 1113 764 q 1013 749 1054 764 q 931 729 961 729 q 907 736 914 729 q 1046 786 943 786 q 1092 783 1071 786 q 1129 774 1114 779 q 1172 744 1167 761 m 1142 619 q 1107 603 1125 603 q 1076 617 1090 603 q 1039 638 1061 631 q 1044 614 1044 626 q 1031 581 1044 594 q 997 567 1017 567 q 964 581 978 567 q 950 614 950 594 q 961 643 950 631 q 929 610 929 631 q 932 597 929 604 l 908 604 q 926 632 915 621 q 990 663 951 661 l 990 661 q 997 663 993 663 q 1076 647 1046 664 q 1094 642 1085 642 q 1128 660 1114 642 q 1104 629 1131 635 q 1142 619 1122 614 m 785 603 l 761 596 q 763 607 763 601 q 718 643 763 638 q 728 615 728 631 q 715 583 728 596 q 682 569 701 569 q 649 583 663 569 q 636 615 636 596 q 642 638 636 628 q 618 622 626 632 q 576 597 599 597 q 550 607 563 597 q 579 625 561 607 q 557 646 557 629 q 561 660 557 653 q 597 640 586 640 q 622 653 599 640 q 685 664 644 665 q 729 654 711 661 q 785 603 776 638 m 961 299 l 717 299 q 839 379 758 379 q 961 299 921 379 m 960 285 q 917 213 947 242 q 840 181 882 181 q 765 211 797 181 q 719 285 732 242 l 733 285 q 840 253 774 253 q 940 285 907 253 l 960 285 m 1001 614 q 994 621 1001 621 q 988 614 988 621 q 994 607 988 607 q 1001 614 1001 607 m 997 594 q 985 607 997 607 q 974 594 974 607 q 985 582 974 582 q 997 594 997 582 m 688 614 q 679 621 688 621 q 672 614 672 621 q 679 607 672 607 q 688 614 688 607 m 682 594 q 669 607 682 607 q 658 594 658 607 q 669 582 658 582 q 682 594 682 582 z "},"¢":{"ha":524,"x_min":75,"x_max":524,"o":"m 429 649 q 311 599 360 649 q 263 481 263 550 q 311 363 263 411 q 429 314 360 314 q 497 288 471 314 q 524 219 524 261 q 497 152 524 178 q 429 126 471 126 q 178 229 281 126 q 75 481 75 332 q 177 733 75 631 q 429 836 279 836 q 497 810 471 836 q 524 742 524 783 q 497 674 524 700 q 429 649 471 649 m 333 -24 q 281 -3 303 -24 q 260 49 260 18 q 281 101 260 79 q 333 122 303 122 q 385 101 364 122 q 407 49 407 79 q 385 -3 407 18 q 333 -24 364 -24 m 333 832 q 281 853 303 832 q 260 906 260 875 q 281 958 260 936 q 333 979 303 979 q 385 958 364 979 q 407 906 407 936 q 385 853 407 875 q 333 832 364 832 z "},"£":{"ha":831,"x_min":75,"x_max":829,"o":"m 482 476 l 263 476 l 263 188 l 531 188 q 610 220 578 188 q 642 300 642 253 l 642 361 q 669 428 642 401 q 736 456 696 456 q 803 429 778 456 q 829 361 829 403 l 829 300 q 743 87 829 174 q 531 0 657 0 l 168 0 q 75 103 75 0 l 75 679 q 162 892 75 806 q 375 979 249 979 l 436 979 q 503 953 478 979 q 529 885 529 926 q 503 817 529 843 q 436 792 478 792 l 375 792 q 295 759 328 792 q 263 679 263 726 l 263 664 l 482 664 q 550 638 524 664 q 576 571 576 613 q 550 503 576 529 q 482 476 524 476 z "},"§":{"ha":907,"x_min":72,"x_max":906,"o":"m 475 453 q 388 240 475 326 q 175 153 301 153 l 165 153 q 98 178 124 153 q 72 246 72 204 q 98 314 72 288 q 165 340 124 340 l 175 340 q 255 373 222 340 q 288 453 288 406 l 288 679 q 374 892 288 806 q 588 979 461 979 l 594 979 q 663 953 636 979 q 689 885 689 926 q 663 817 689 843 q 594 792 636 792 l 588 792 q 508 759 540 792 q 475 679 475 726 l 475 453 m 693 288 q 606 74 693 161 q 393 -12 519 -12 l 383 -12 q 316 13 342 -12 q 290 81 290 39 q 316 149 290 122 q 383 175 342 175 l 393 175 q 473 208 440 175 q 506 288 506 240 l 506 514 q 592 727 506 640 q 806 814 679 814 l 813 814 q 906 719 906 814 q 880 652 906 678 q 813 626 854 626 l 806 626 q 726 594 758 626 q 693 514 693 561 l 693 288 z "},"•":{"ha":450,"x_min":75,"x_max":446,"o":"m 261 279 q 129 333 183 279 q 75 465 75 388 q 129 597 75 543 q 261 650 183 650 q 392 596 338 650 q 446 465 446 542 q 392 334 446 389 q 261 279 338 279 z "},"¶":{"ha":963,"x_min":75,"x_max":964,"o":"m 432 792 l 431 792 q 312 743 361 792 q 263 625 263 694 q 312 506 263 556 q 431 457 361 457 l 432 457 l 432 792 m 431 269 q 178 372 281 269 q 75 625 75 475 q 178 877 75 775 q 431 979 281 979 l 874 979 q 939 953 914 979 q 964 886 964 926 l 964 81 q 938 13 964 39 q 869 -12 911 -12 q 802 13 828 -12 q 776 81 776 39 l 776 792 l 619 792 l 619 81 q 593 13 619 39 q 525 -12 567 -12 q 458 13 483 -12 q 432 81 432 39 l 432 269 l 431 269 z "},"ß":{"ha":663,"x_min":75,"x_max":663,"o":"m 75 -186 l 75 686 q 160 894 75 810 q 368 979 244 979 q 577 894 492 979 q 663 686 663 810 q 581 482 663 567 q 663 281 663 399 q 577 72 663 157 q 368 -12 492 -12 q 301 14 328 -12 q 275 81 275 40 q 301 149 275 122 q 370 175 328 175 q 444 206 413 175 q 475 281 475 238 q 440 357 475 326 q 358 393 406 388 q 292 423 319 397 q 265 486 265 449 q 294 553 265 528 q 368 579 324 578 q 444 611 413 581 q 475 686 475 642 q 444 761 475 731 q 368 792 413 792 q 294 760 325 792 q 263 686 263 729 l 263 -186 q 237 -254 263 -228 q 169 -281 211 -281 q 101 -254 128 -281 q 75 -186 75 -228 z "},"´":{"ha":364,"x_min":67,"x_max":361,"o":"m 140 1290 q 246 1361 169 1361 q 290 1353 269 1361 q 361 1246 361 1324 q 353 1203 361 1224 l 288 1044 q 181 974 258 974 q 138 983 160 974 q 67 1089 67 1014 q 75 1133 67 1114 l 140 1290 z "},"¨":{"ha":574,"x_min":75,"x_max":571,"o":"m 190 979 q 272 1013 239 979 q 306 1094 306 1046 q 272 1175 306 1142 q 190 1208 238 1208 q 109 1175 143 1208 q 75 1094 75 1142 q 108 1013 75 1046 q 190 979 142 979 m 457 979 q 538 1013 506 979 q 571 1094 571 1046 q 538 1175 571 1142 q 457 1208 504 1208 q 375 1176 408 1208 q 342 1094 342 1143 q 375 1013 342 1046 q 457 979 408 979 z "},"Æ":{"ha":1188,"x_min":75,"x_max":1189,"o":"m 1094 -15 q 785 93 921 -15 l 785 0 q 597 0 758 1 l 597 311 q 429 269 518 269 q 362 296 388 269 q 336 364 336 322 q 362 431 336 406 q 429 457 388 457 q 548 506 499 457 q 597 625 597 556 q 548 743 597 694 q 429 792 499 792 q 311 743 360 792 q 263 625 263 694 l 263 81 q 236 13 263 39 q 168 -12 210 -12 q 101 13 126 -12 q 75 81 75 39 l 75 625 q 177 877 75 775 q 429 979 279 979 q 728 818 621 979 q 1094 979 875 979 q 1163 953 1136 979 q 1189 886 1189 928 q 1163 818 1189 844 q 1094 792 1136 792 q 914 734 994 792 q 801 582 833 676 l 1094 582 q 1163 556 1136 582 q 1189 489 1189 531 q 1163 421 1189 447 q 1094 394 1136 394 l 797 394 q 909 234 826 296 q 1094 172 992 172 q 1163 146 1136 172 q 1189 78 1189 119 q 1163 10 1189 36 q 1094 -15 1136 -15 z "},"Ø":{"ha":1068,"x_min":75,"x_max":1069,"o":"m 572 979 q 925 835 781 979 q 1069 482 1069 690 q 925 129 1069 274 q 572 -15 781 -15 q 219 129 364 -15 q 75 482 75 274 q 219 835 75 690 q 572 979 364 979 m 572 792 q 351 703 440 792 q 263 482 263 614 q 352 262 263 351 q 572 172 442 172 q 792 262 703 172 q 882 482 882 351 q 792 702 882 613 q 572 792 703 792 z "},"¥":{"ha":751,"x_min":76,"x_max":753,"o":"m 169 358 l 321 358 l 321 394 l 169 394 q 102 421 128 394 q 76 489 76 447 q 102 556 76 531 q 169 582 128 582 l 210 582 q 113 803 113 671 l 113 1017 q 138 1084 113 1058 q 206 1110 164 1110 q 300 1017 300 1110 l 300 803 q 333 723 300 756 q 413 690 365 690 q 492 723 460 690 q 525 803 525 756 l 525 1018 q 551 1086 525 1060 q 618 1113 576 1113 q 686 1086 660 1113 q 713 1018 713 1060 l 713 803 q 615 582 713 671 l 660 582 q 727 556 701 582 q 753 489 753 531 q 660 394 753 394 l 508 394 l 508 358 l 660 358 q 727 333 701 358 q 753 265 753 307 q 660 171 753 171 l 508 171 l 508 81 q 483 13 508 39 q 415 -12 457 -12 q 347 13 374 -12 q 321 81 321 39 l 321 171 l 169 171 q 102 197 128 171 q 76 265 76 224 q 102 333 76 307 q 169 358 128 358 z "},"ª":{"ha":1532,"x_min":40,"x_max":1600,"o":"m 1554 722 q 1600 599 1600 661 q 1536 461 1600 521 q 1543 425 1543 442 q 1451 349 1543 361 q 1453 326 1453 338 q 1332 201 1453 225 q 1203 92 1314 92 q 1068 124 1140 92 q 1068 122 1068 122 q 1056 131 1063 125 q 951 53 1003 92 q 836 4 885 4 q 560 167 726 4 l 560 165 q 385 122 465 122 q 239 167 303 122 q 163 254 190 201 q 143 313 138 299 q 40 397 76 349 q 186 447 149 396 q 71 576 96 447 q 253 728 208 650 q 63 836 107 714 q 374 1032 314 885 q 532 1308 418 1188 q 811 1364 678 1464 q 885 1369 849 1369 q 1304 1126 1136 1369 q 1421 883 1374 1025 q 1432 786 1432 840 q 1413 654 1432 718 q 1483 626 1453 626 q 1554 722 1543 626 m 1208 699 q 1150 844 1190 774 q 861 1138 1053 1014 q 644 1018 710 1143 q 608 892 617 965 q 597 789 607 836 q 638 792 615 792 q 778 740 742 792 q 754 735 771 735 q 671 753 724 735 q 593 769 626 771 q 564 689 581 724 q 472 583 525 604 q 438 557 464 572 q 531 317 472 390 q 669 157 626 197 q 836 75 758 75 q 1001 157 914 75 q 1140 318 1044 197 q 1206 493 1196 386 q 1208 699 1208 515 m 1172 744 q 1143 746 1161 738 q 1085 764 1113 764 q 1013 749 1054 764 q 931 729 961 729 q 907 736 914 729 q 1046 786 943 786 q 1092 783 1071 786 q 1129 774 1114 779 q 1172 744 1167 761 m 1142 619 q 1107 603 1125 603 q 1076 617 1090 603 q 1039 638 1061 631 q 1044 614 1044 626 q 1031 581 1044 594 q 997 567 1017 567 q 964 581 978 567 q 950 614 950 594 q 961 643 950 631 q 929 610 929 631 q 932 597 929 604 l 908 604 q 926 632 915 621 q 990 663 951 661 l 990 661 q 997 663 993 663 q 1076 647 1046 664 q 1094 642 1085 642 q 1128 660 1114 642 q 1104 629 1131 635 q 1142 619 1122 614 m 785 603 l 761 596 q 763 607 763 601 q 718 643 763 638 q 728 615 728 631 q 715 583 728 596 q 682 569 701 569 q 649 583 663 569 q 636 615 636 596 q 642 638 636 628 q 618 622 626 632 q 576 597 599 597 q 550 607 563 597 q 579 625 561 607 q 557 646 557 629 q 561 660 557 653 q 597 640 586 640 q 622 653 599 640 q 685 664 644 665 q 729 654 711 661 q 785 603 776 638 m 961 299 l 717 299 q 839 379 758 379 q 961 299 921 379 m 960 285 q 917 213 947 242 q 840 181 882 181 q 765 211 797 181 q 719 285 732 242 l 733 285 q 840 253 774 253 q 940 285 907 253 l 960 285 m 1001 614 q 994 621 1001 621 q 988 614 988 621 q 994 607 988 607 q 1001 614 1001 607 m 997 594 q 985 607 997 607 q 974 594 974 607 q 985 582 974 582 q 997 594 997 582 m 688 614 q 679 621 688 621 q 672 614 672 621 q 679 607 672 607 q 688 614 688 607 m 682 594 q 669 607 682 607 q 658 594 658 607 q 669 582 658 582 q 682 594 682 582 z "},"º":{"ha":1532,"x_min":40,"x_max":1600,"o":"m 1554 722 q 1600 599 1600 661 q 1536 461 1600 521 q 1543 425 1543 442 q 1451 349 1543 361 q 1453 326 1453 338 q 1332 201 1453 225 q 1203 92 1314 92 q 1068 124 1140 92 q 1068 122 1068 122 q 1056 131 1063 125 q 951 53 1003 92 q 836 4 885 4 q 560 167 726 4 l 560 165 q 385 122 465 122 q 239 167 303 122 q 163 254 190 201 q 143 313 138 299 q 40 397 76 349 q 186 447 149 396 q 71 576 96 447 q 253 728 208 650 q 63 836 107 714 q 374 1032 314 885 q 532 1308 418 1188 q 811 1364 678 1464 q 885 1369 849 1369 q 1304 1126 1136 1369 q 1421 883 1374 1025 q 1432 786 1432 840 q 1413 654 1432 718 q 1483 626 1453 626 q 1554 722 1543 626 m 1208 699 q 1150 844 1190 774 q 861 1138 1053 1014 q 644 1018 710 1143 q 608 892 617 965 q 597 789 607 836 q 638 792 615 792 q 778 740 742 792 q 754 735 771 735 q 671 753 724 735 q 593 769 626 771 q 564 689 581 724 q 472 583 525 604 q 438 557 464 572 q 531 317 472 390 q 669 157 626 197 q 836 75 758 75 q 1001 157 914 75 q 1140 318 1044 197 q 1206 493 1196 386 q 1208 699 1208 515 m 1172 744 q 1143 746 1161 738 q 1085 764 1113 764 q 1013 749 1054 764 q 931 729 961 729 q 907 736 914 729 q 1046 786 943 786 q 1092 783 1071 786 q 1129 774 1114 779 q 1172 744 1167 761 m 1142 619 q 1107 603 1125 603 q 1076 617 1090 603 q 1039 638 1061 631 q 1044 614 1044 626 q 1031 581 1044 594 q 997 567 1017 567 q 964 581 978 567 q 950 614 950 594 q 961 643 950 631 q 929 610 929 631 q 932 597 929 604 l 908 604 q 926 632 915 621 q 990 663 951 661 l 990 661 q 997 663 993 663 q 1076 647 1046 664 q 1094 642 1085 642 q 1128 660 1114 642 q 1104 629 1131 635 q 1142 619 1122 614 m 785 603 l 761 596 q 763 607 763 601 q 718 643 763 638 q 728 615 728 631 q 715 583 728 596 q 682 569 701 569 q 649 583 663 569 q 636 615 636 596 q 642 638 636 628 q 618 622 626 632 q 576 597 599 597 q 550 607 563 597 q 579 625 561 607 q 557 646 557 629 q 561 660 557 653 q 597 640 586 640 q 622 653 599 640 q 685 664 644 665 q 729 654 711 661 q 785 603 776 638 m 961 299 l 717 299 q 839 379 758 379 q 961 299 921 379 m 960 285 q 917 213 947 242 q 840 181 882 181 q 765 211 797 181 q 719 285 732 242 l 733 285 q 840 253 774 253 q 940 285 907 253 l 960 285 m 1001 614 q 994 621 1001 621 q 988 614 988 621 q 994 607 988 607 q 1001 614 1001 607 m 997 594 q 985 607 997 607 q 974 594 974 607 q 985 582 974 582 q 997 594 997 582 m 688 614 q 679 621 688 621 q 672 614 672 621 q 679 607 672 607 q 688 614 688 607 m 682 594 q 669 607 682 607 q 658 594 658 607 q 669 582 658 582 q 682 594 682 582 z "},"æ":{"ha":1238,"x_min":75,"x_max":1236,"o":"m 1196 446 l 1018 272 q 954 243 988 243 q 886 272 915 243 q 857 340 857 301 q 888 406 857 375 l 988 504 q 951 507 969 507 q 833 458 882 507 q 785 340 785 410 q 833 222 785 271 q 951 172 882 172 l 1075 172 q 1143 147 1117 172 q 1169 79 1169 121 q 1142 12 1169 39 q 1075 -15 1115 -15 l 951 -15 q 700 88 803 -15 q 597 340 597 192 q 548 458 597 410 q 429 507 499 507 q 311 458 360 507 q 263 340 263 410 q 311 222 263 271 q 429 172 360 172 q 497 147 471 172 q 524 79 524 121 q 497 11 524 38 q 429 -15 471 -15 q 177 88 279 -15 q 75 340 75 190 q 177 592 75 490 q 429 694 279 694 q 690 581 585 694 q 951 694 796 694 q 1208 586 1103 694 q 1236 522 1236 557 q 1196 446 1236 476 z "},"ø":{"ha":1068,"x_min":75,"x_max":1069,"o":"m 572 979 q 925 835 781 979 q 1069 482 1069 690 q 925 129 1069 274 q 572 -15 781 -15 q 219 129 364 -15 q 75 482 75 274 q 219 835 75 690 q 572 979 364 979 m 572 792 q 351 703 440 792 q 263 482 263 614 q 352 262 263 351 q 572 172 442 172 q 792 262 703 172 q 882 482 882 351 q 792 702 882 613 q 572 792 703 792 z "},"¿":{"ha":694,"x_min":75,"x_max":785,"o":"m 785 350 q 682 97 785 200 q 429 -6 579 -6 q 177 97 279 -6 q 75 350 75 200 q 178 601 75 499 q 429 704 281 704 l 539 704 q 607 678 581 704 q 633 611 633 653 q 608 543 633 569 q 540 517 582 517 l 429 517 q 312 467 361 517 q 263 350 263 418 q 311 231 263 281 q 429 182 360 182 q 548 231 499 182 q 597 350 597 281 q 624 417 597 390 q 690 443 650 443 q 758 417 732 443 q 785 350 785 392 m 526 750 q 608 783 575 750 q 640 865 640 817 q 607 946 640 913 q 526 979 574 979 q 444 947 478 979 q 411 865 411 914 q 444 783 411 817 q 526 750 478 750 z "},"¡":{"ha":264,"x_min":53,"x_max":283,"o":"m 263 94 q 236 26 263 53 q 168 0 210 0 q 101 26 126 0 q 75 94 75 53 l 75 589 q 101 657 75 631 q 168 683 126 683 q 236 657 210 683 q 263 589 263 631 l 263 94 m 168 979 q 86 946 119 979 q 53 864 53 913 q 87 783 53 817 q 168 750 121 750 q 249 783 215 750 q 283 864 283 817 q 250 946 283 913 q 168 979 217 979 z "},"ƒ":{"ha":611,"x_min":-26,"x_max":611,"o":"m 435 435 q 502 409 476 435 q 528 342 528 383 q 502 274 528 300 q 435 247 476 247 l 386 247 l 386 0 q 299 -213 386 -126 q 86 -300 213 -300 l 67 -300 q -1 -274 25 -300 q -26 -206 -26 -247 q -1 -138 -26 -164 q 67 -112 25 -112 l 86 -112 q 166 -80 133 -112 q 199 0 199 -47 l 199 247 l 169 247 q 102 274 128 247 q 76 342 76 300 q 102 409 76 383 q 169 435 128 435 l 199 435 l 199 679 q 285 892 199 806 q 499 979 372 979 l 518 979 q 611 885 611 979 q 585 817 611 843 q 518 792 560 792 l 499 792 q 419 759 451 792 q 386 679 386 726 l 386 435 l 435 435 z "},"«":{"ha":704,"x_min":78,"x_max":701,"o":"m 240 554 l 118 431 q 78 353 78 390 q 118 275 78 322 q 240 151 126 265 q 307 122 269 122 q 374 151 344 122 q 403 218 403 181 q 374 283 403 254 l 304 353 l 374 422 q 403 488 403 451 q 374 554 403 525 q 307 583 344 583 q 240 554 269 583 m 540 554 l 417 431 q 376 353 376 390 q 417 275 376 322 q 540 151 424 268 q 606 122 569 122 q 672 151 643 122 q 701 218 701 181 q 672 283 701 254 l 603 353 l 672 422 q 701 488 701 451 q 672 554 701 525 q 606 583 643 583 q 540 554 569 583 z "},"»":{"ha":704,"x_min":72,"x_max":697,"o":"m 533 554 l 656 431 q 697 353 697 389 q 656 275 697 322 q 533 151 644 263 q 468 122 504 122 q 401 151 429 122 q 372 218 372 179 q 401 283 372 254 l 469 353 l 401 422 q 372 488 372 451 q 401 555 372 526 q 468 583 429 583 q 533 554 504 583 m 235 554 l 357 431 q 399 353 399 389 q 357 275 399 322 q 235 151 346 263 q 169 122 206 122 q 101 151 131 122 q 72 218 72 179 q 101 283 72 254 l 171 353 l 101 422 q 72 488 72 451 q 101 555 72 526 q 169 583 131 583 q 235 554 206 583 z "},"…":{"ha":940,"x_min":53,"x_max":940,"o":"m 168 0 q 250 33 217 0 q 283 115 283 67 q 249 196 283 163 q 168 229 215 229 q 87 196 121 229 q 53 115 53 163 q 86 33 53 67 q 168 0 119 0 m 492 0 q 574 33 540 0 q 607 115 607 67 q 574 197 607 164 q 492 229 540 229 q 411 196 444 229 q 378 115 378 163 q 410 33 378 67 q 492 0 443 0 m 825 0 q 907 33 874 0 q 940 115 940 67 q 907 197 940 164 q 825 229 874 229 q 744 196 778 229 q 711 115 711 163 q 744 33 711 67 q 825 0 776 0 z "},"Œ":{"ha":1478,"x_min":75,"x_max":1474,"o":"m 572 792 q 351 703 440 792 q 263 482 263 614 q 352 262 263 351 q 572 172 442 172 q 792 262 703 172 q 882 482 882 351 q 792 702 882 613 q 572 792 703 792 m 1379 -15 q 1152 40 1258 -15 q 976 192 1046 94 q 799 40 906 94 q 572 -15 692 -15 q 219 129 364 -15 q 75 482 75 274 q 219 835 75 690 q 572 979 364 979 q 976 772 826 979 q 1152 924 1046 869 q 1379 979 1258 979 q 1447 953 1421 979 q 1474 886 1474 928 q 1447 818 1474 844 q 1379 792 1421 792 q 1199 734 1279 792 q 1086 582 1118 676 l 1379 582 q 1447 556 1421 582 q 1474 489 1474 531 q 1447 421 1474 447 q 1379 394 1421 394 l 1082 394 q 1194 234 1111 296 q 1379 172 1276 172 q 1447 146 1421 172 q 1474 78 1474 119 q 1447 10 1474 36 q 1379 -15 1421 -15 z "},"œ":{"ha":1238,"x_min":75,"x_max":1236,"o":"m 429 507 q 311 458 360 507 q 263 340 263 410 q 311 222 263 271 q 429 172 360 172 q 548 222 499 172 q 597 340 597 271 q 548 458 597 410 q 429 507 499 507 m 1196 446 l 1018 272 q 954 243 988 243 q 886 272 915 243 q 857 340 857 301 q 888 406 857 375 l 988 504 q 951 507 969 507 q 833 458 882 507 q 785 340 785 410 q 833 222 785 271 q 951 172 882 172 l 1075 172 q 1143 147 1117 172 q 1169 79 1169 121 q 1142 12 1169 39 q 1075 -15 1115 -15 l 951 -15 q 690 100 796 -15 q 429 -15 585 -15 q 177 88 279 -15 q 75 340 75 190 q 177 592 75 490 q 429 694 279 694 q 690 581 585 694 q 951 694 796 694 q 1208 586 1103 694 q 1236 522 1236 557 q 1196 446 1236 476 z "},"–":{"ha":586,"x_min":71,"x_max":588,"o":"m 493 435 q 561 409 535 435 q 588 342 588 383 q 561 274 588 300 q 493 247 535 247 l 165 247 q 97 274 124 247 q 71 342 71 300 q 97 409 71 383 q 165 435 124 435 l 493 435 z "},"—":{"ha":865,"x_min":71,"x_max":865,"o":"m 771 435 q 839 409 813 435 q 865 342 865 383 q 839 274 865 300 q 771 247 813 247 l 165 247 q 97 274 124 247 q 71 342 71 300 q 97 409 71 383 q 165 435 124 435 l 771 435 z "},"“":{"ha":576,"x_min":53,"x_max":575,"o":"m 283 864 q 249 945 283 911 q 168 979 215 979 q 87 945 121 979 q 53 864 53 911 l 53 693 q 87 613 53 646 q 168 579 121 579 q 249 613 215 579 q 283 693 283 646 l 283 864 m 575 864 q 542 946 575 913 q 460 979 508 979 q 379 945 413 979 q 346 864 346 911 l 346 693 q 379 613 346 646 q 460 579 413 579 q 542 612 508 579 q 575 693 575 644 l 575 864 z "},"”":{"ha":576,"x_min":53,"x_max":575,"o":"m 283 864 q 249 945 283 911 q 168 979 215 979 q 87 945 121 979 q 53 864 53 911 l 53 693 q 87 613 53 646 q 168 579 121 579 q 249 613 215 579 q 283 693 283 646 l 283 864 m 575 864 q 542 946 575 913 q 460 979 508 979 q 379 945 413 979 q 346 864 346 911 l 346 693 q 379 613 346 646 q 460 579 413 579 q 542 612 508 579 q 575 693 575 644 l 575 864 z "},"‘":{"ha":264,"x_min":53,"x_max":283,"o":"m 283 864 q 249 945 283 911 q 168 979 215 979 q 87 945 121 979 q 53 864 53 911 l 53 693 q 87 613 53 646 q 168 579 121 579 q 249 613 215 579 q 283 693 283 646 l 283 864 z "},"’":{"ha":264,"x_min":53,"x_max":283,"o":"m 283 864 q 249 945 283 911 q 168 979 215 979 q 87 945 121 979 q 53 864 53 911 l 53 693 q 87 613 53 646 q 168 579 121 579 q 249 613 215 579 q 283 693 283 646 l 283 864 z "},"⁄":{"ha":501,"x_min":-3,"x_max":558,"o":"m 553 951 l 179 -94 q 94 -157 157 -157 q 26 -131 56 -157 q -3 -67 -3 -106 q 3 -31 -3 -46 l 376 1014 q 461 1078 399 1078 q 530 1052 501 1078 q 558 986 558 1026 q 553 951 558 967 z "},"€":{"ha":765,"x_min":65,"x_max":764,"o":"m 160 443 l 174 443 q 172 482 172 463 q 174 528 172 504 l 160 528 q 92 553 118 528 q 67 621 67 579 q 92 689 67 663 q 160 715 118 715 l 229 715 q 413 908 294 838 q 669 979 531 979 q 738 953 711 979 q 764 886 764 928 q 738 818 764 844 q 669 792 711 792 q 465 715 553 792 l 617 715 q 685 689 658 715 q 711 621 711 663 q 685 553 711 579 q 617 528 658 528 l 363 528 q 360 482 360 504 q 363 443 360 463 l 617 443 q 685 417 658 443 q 711 350 711 392 q 685 282 711 308 q 617 256 658 256 l 458 256 q 669 172 547 172 q 738 146 711 172 q 764 78 764 119 q 738 10 764 36 q 669 -15 711 -15 q 410 58 529 -15 q 226 256 290 131 l 160 256 q 92 282 118 256 q 65 350 65 308 q 92 417 65 392 q 160 443 118 443 z "},"‹":{"ha":403,"x_min":78,"x_max":403,"o":"m 240 554 l 118 431 q 78 353 78 390 q 118 275 78 322 q 240 151 126 265 q 307 122 269 122 q 374 151 344 122 q 403 218 403 181 q 374 283 403 254 l 304 353 l 374 422 q 403 488 403 451 q 374 554 403 525 q 307 583 344 583 q 240 554 269 583 z "},"›":{"ha":403,"x_min":76,"x_max":401,"o":"m 239 554 l 361 431 q 401 353 401 390 q 361 275 401 322 q 239 151 353 265 q 172 122 210 122 q 106 151 135 122 q 76 218 76 181 q 106 283 76 254 l 175 353 l 106 422 q 76 488 76 451 q 106 554 76 525 q 172 583 135 583 q 239 554 210 583 z "},"":{"ha":907,"x_min":75,"x_max":922,"o":"m 586 293 l 263 293 l 263 81 q 236 13 263 39 q 168 -12 210 -12 q 101 13 126 -12 q 75 81 75 39 l 75 679 q 161 893 75 807 q 375 979 247 979 q 588 892 501 979 q 674 679 674 806 l 674 669 q 648 601 674 628 q 581 575 622 575 q 513 602 540 575 q 486 669 486 629 l 486 679 q 454 759 486 726 q 375 792 422 792 q 295 759 328 792 q 263 679 263 726 l 263 481 l 586 481 q 653 454 628 481 q 679 386 679 428 q 653 319 679 344 q 586 293 628 293 m 901 81 q 875 13 901 39 q 807 -12 849 -12 q 740 13 765 -12 q 714 81 714 39 l 714 601 q 740 669 714 643 q 807 694 765 694 q 901 601 901 694 l 901 81 m 807 992 q 726 958 760 992 q 692 876 692 924 q 726 795 692 829 q 807 761 760 761 q 888 795 854 761 q 922 876 922 829 q 888 958 922 924 q 807 992 854 992 z "},"":{"ha":903,"x_min":75,"x_max":901,"o":"m 586 293 l 263 293 l 263 81 q 236 13 263 39 q 168 -12 210 -12 q 101 13 126 -12 q 75 81 75 39 l 75 679 q 161 893 75 807 q 375 979 247 979 q 588 892 501 979 q 674 679 674 806 l 674 669 q 648 601 674 628 q 581 575 622 575 q 513 602 540 575 q 486 669 486 629 l 486 679 q 454 759 486 726 q 375 792 422 792 q 295 759 328 792 q 263 679 263 726 l 263 481 l 586 481 q 653 454 628 481 q 679 386 679 428 q 653 319 679 344 q 586 293 628 293 m 901 883 l 901 81 q 875 13 901 39 q 807 -12 849 -12 q 740 13 765 -12 q 714 81 714 39 l 714 883 q 740 951 714 925 q 807 976 765 976 q 901 883 901 976 z "},"‡":{"ha":1532,"x_min":40,"x_max":1600,"o":"m 1554 722 q 1600 599 1600 661 q 1536 461 1600 521 q 1543 425 1543 442 q 1451 349 1543 361 q 1453 326 1453 338 q 1332 201 1453 225 q 1203 92 1314 92 q 1068 124 1140 92 q 1068 122 1068 122 q 1056 131 1063 125 q 951 53 1003 92 q 836 4 885 4 q 560 167 726 4 l 560 165 q 385 122 465 122 q 239 167 303 122 q 163 254 190 201 q 143 313 138 299 q 40 397 76 349 q 186 447 149 396 q 71 576 96 447 q 253 728 208 650 q 63 836 107 714 q 374 1032 314 885 q 532 1308 418 1188 q 811 1364 678 1464 q 885 1369 849 1369 q 1304 1126 1136 1369 q 1421 883 1374 1025 q 1432 786 1432 840 q 1413 654 1432 718 q 1483 626 1453 626 q 1554 722 1543 626 m 1208 699 q 1150 844 1190 774 q 861 1138 1053 1014 q 644 1018 710 1143 q 608 892 617 965 q 597 789 607 836 q 638 792 615 792 q 778 740 742 792 q 754 735 771 735 q 671 753 724 735 q 593 769 626 771 q 564 689 581 724 q 472 583 525 604 q 438 557 464 572 q 531 317 472 390 q 669 157 626 197 q 836 75 758 75 q 1001 157 914 75 q 1140 318 1044 197 q 1206 493 1196 386 q 1208 699 1208 515 m 1172 744 q 1143 746 1161 738 q 1085 764 1113 764 q 1013 749 1054 764 q 931 729 961 729 q 907 736 914 729 q 1046 786 943 786 q 1092 783 1071 786 q 1129 774 1114 779 q 1172 744 1167 761 m 1142 619 q 1107 603 1125 603 q 1076 617 1090 603 q 1039 638 1061 631 q 1044 614 1044 626 q 1031 581 1044 594 q 997 567 1017 567 q 964 581 978 567 q 950 614 950 594 q 961 643 950 631 q 929 610 929 631 q 932 597 929 604 l 908 604 q 926 632 915 621 q 990 663 951 661 l 990 661 q 997 663 993 663 q 1076 647 1046 664 q 1094 642 1085 642 q 1128 660 1114 642 q 1104 629 1131 635 q 1142 619 1122 614 m 785 603 l 761 596 q 763 607 763 601 q 718 643 763 638 q 728 615 728 631 q 715 583 728 596 q 682 569 701 569 q 649 583 663 569 q 636 615 636 596 q 642 638 636 628 q 618 622 626 632 q 576 597 599 597 q 550 607 563 597 q 579 625 561 607 q 557 646 557 629 q 561 660 557 653 q 597 640 586 640 q 622 653 599 640 q 685 664 644 665 q 729 654 711 661 q 785 603 776 638 m 961 299 l 717 299 q 839 379 758 379 q 961 299 921 379 m 960 285 q 917 213 947 242 q 840 181 882 181 q 765 211 797 181 q 719 285 732 242 l 733 285 q 840 253 774 253 q 940 285 907 253 l 960 285 m 1001 614 q 994 621 1001 621 q 988 614 988 621 q 994 607 988 607 q 1001 614 1001 607 m 997 594 q 985 607 997 607 q 974 594 974 607 q 985 582 974 582 q 997 594 997 582 m 688 614 q 679 621 688 621 q 672 614 672 621 q 679 607 672 607 q 688 614 688 607 m 682 594 q 669 607 682 607 q 658 594 658 607 q 669 582 658 582 q 682 594 682 582 z "},"·":{"ha":264,"x_min":53,"x_max":283,"o":"m 168 0 q 250 33 217 0 q 283 115 283 67 q 249 196 283 163 q 168 229 215 229 q 87 196 121 229 q 53 115 53 163 q 86 33 53 67 q 168 0 119 0 z "},"‚":{"ha":264,"x_min":53,"x_max":283,"o":"m 283 115 q 249 196 283 163 q 168 229 215 229 q 87 196 121 229 q 53 115 53 163 l 53 -56 q 87 -137 53 -103 q 168 -171 121 -171 q 249 -137 215 -171 q 283 -56 283 -103 l 283 115 z "},"„":{"ha":554,"x_min":53,"x_max":551,"o":"m 283 115 q 249 196 283 163 q 168 229 215 229 q 87 196 121 229 q 53 115 53 163 l 53 -56 q 87 -137 53 -103 q 168 -171 121 -171 q 249 -137 215 -171 q 283 -56 283 -103 l 283 115 m 551 115 q 517 196 551 163 q 436 229 483 229 q 355 196 389 229 q 321 115 321 163 l 321 -56 q 355 -137 321 -103 q 436 -171 389 -171 q 517 -137 483 -171 q 551 -56 551 -103 l 551 115 z "},"‰":{"ha":1099,"x_min":75,"x_max":1094,"o":"m 1094 22 q 1042 -103 1094 -51 q 917 -156 990 -156 q 791 -103 843 -156 q 739 22 739 -51 q 743 56 739 39 q 626 113 674 63 q 579 233 579 164 q 631 359 579 307 q 757 411 683 411 q 883 359 831 411 q 935 233 935 307 q 932 199 935 215 q 1048 142 1001 193 q 1094 22 1094 92 m 842 233 q 817 292 842 268 q 757 317 792 317 q 698 292 722 317 q 674 233 674 268 q 698 174 674 199 q 757 150 722 150 q 817 174 792 150 q 842 233 842 199 m 1000 22 q 976 81 1000 57 q 917 106 951 106 q 858 81 882 106 q 833 22 833 57 q 858 -37 833 -12 q 917 -62 882 -62 q 976 -37 951 -62 q 1000 22 1000 -12 m 431 796 q 378 670 431 722 q 253 618 326 618 q 127 670 179 618 q 75 796 75 722 q 127 922 75 869 q 253 974 179 974 q 378 922 326 974 q 431 796 431 869 m 804 951 l 431 -94 q 346 -157 408 -157 q 277 -131 307 -157 q 247 -67 247 -106 q 254 -31 247 -50 l 626 1014 q 713 1078 649 1078 q 781 1051 751 1078 q 810 986 810 1025 q 804 951 810 967 m 336 796 q 312 855 336 831 q 253 879 288 879 q 194 855 218 879 q 169 796 169 831 q 194 737 169 761 q 253 713 218 713 q 312 737 288 713 q 336 796 336 761 z "},"ı":{"ha":264,"x_min":75,"x_max":263,"o":"m 263 81 q 236 13 263 39 q 168 -12 210 -12 q 101 13 126 -12 q 75 81 75 39 l 75 601 q 101 669 75 643 q 168 694 126 694 q 263 601 263 694 l 263 81 z "},"ˆ":{"ha":540,"x_min":78,"x_max":540,"o":"m 511 1140 q 386 1263 406 1244 q 308 1304 340 1304 q 232 1263 279 1304 q 107 1140 208 1242 q 78 1075 78 1111 q 106 1008 78 1036 q 174 979 135 979 q 239 1008 210 979 l 308 1076 l 378 1008 q 443 979 407 979 q 511 1008 482 979 q 540 1075 540 1036 q 511 1140 540 1111 z "},"˜":{"ha":546,"x_min":68,"x_max":546,"o":"m 93 1135 q 222 1200 151 1200 q 318 1175 260 1200 l 375 1149 q 381 1150 379 1149 q 449 1183 410 1183 q 517 1155 488 1183 q 546 1088 546 1126 q 519 1025 546 1054 q 392 960 461 960 q 298 985 358 960 q 238 1011 238 1011 q 233 1010 235 1011 q 164 976 203 976 q 97 1006 126 976 q 68 1072 68 1035 q 93 1135 68 1107 z "},"¯":{"ha":793,"x_min":172,"x_max":671,"o":"m 576 1167 q 644 1141 618 1167 q 671 1074 671 1115 q 644 1006 671 1032 q 576 979 618 979 l 267 979 q 199 1006 225 979 q 172 1074 172 1032 q 199 1141 172 1115 q 267 1167 225 1167 l 576 1167 z "},"˘":{"ha":606,"x_min":131,"x_max":542,"o":"m 542 1183 q 481 1038 542 1099 q 336 978 421 978 q 191 1038 251 978 q 131 1183 131 1099 q 157 1251 131 1225 q 225 1278 183 1278 q 292 1251 267 1278 q 318 1183 318 1225 q 336 1165 318 1165 q 354 1183 354 1165 q 381 1251 354 1225 q 449 1278 407 1278 q 516 1251 490 1278 q 542 1183 542 1225 z "},"˙":{"ha":606,"x_min":221,"x_max":451,"o":"m 336 978 q 418 1011 385 978 q 451 1093 451 1044 q 417 1174 451 1140 q 336 1207 383 1207 q 255 1174 289 1207 q 221 1093 221 1140 q 254 1011 221 1044 q 336 978 288 978 z "},"˚":{"ha":365,"x_min":75,"x_max":364,"o":"m 364 1126 q 322 1228 364 1186 q 219 1271 279 1271 q 117 1228 160 1271 q 75 1126 75 1186 q 117 1024 75 1067 q 219 982 160 982 q 322 1024 279 982 q 364 1126 364 1067 m 219 1086 q 179 1126 179 1086 q 219 1167 179 1167 q 260 1126 260 1167 q 219 1086 260 1086 z "},"¸":{"ha":529,"x_min":-19,"x_max":436,"o":"m 75 -468 l 136 -468 q 349 -381 263 -468 q 436 -168 436 -294 l 436 0 l 249 0 l 249 -168 q 216 -248 249 -215 q 136 -281 183 -281 l 75 -281 q 7 -307 33 -281 q -19 -375 -19 -333 q 7 -442 -19 -417 q 75 -468 33 -468 z "},"˝":{"ha":1294,"x_min":75,"x_max":1294,"o":"m 1294 83 q 1270 24 1294 49 q 1211 0 1246 0 l 158 0 q 99 24 124 0 q 75 83 75 49 l 75 1028 q 99 1087 75 1063 q 158 1111 124 1111 l 1211 1111 q 1270 1087 1246 1111 q 1294 1028 1294 1063 l 1294 83 m 1229 782 l 1229 861 q 1198 936 1229 906 q 1122 967 1167 967 q 1047 936 1078 967 q 1017 861 1017 906 q 1048 785 1017 817 q 1124 754 1079 754 q 1151 783 1151 754 q 1124 811 1151 811 q 1088 826 1103 811 q 1074 861 1074 840 q 1122 911 1074 911 q 1172 861 1172 911 l 1172 782 q 1201 754 1172 754 q 1229 782 1229 754 m 844 1021 q 810 1056 844 1056 q 775 1021 775 1056 q 810 986 775 986 q 844 1021 844 986 m 994 783 q 967 811 994 811 q 931 826 946 811 q 917 861 917 840 q 931 897 917 882 q 967 911 946 911 q 994 939 994 911 q 967 967 994 967 q 892 936 922 967 q 861 861 861 906 q 892 786 861 817 q 967 756 922 756 q 994 783 994 756 m 838 783 l 838 939 q 808 967 838 967 q 781 939 781 967 l 781 783 q 808 756 781 756 q 838 783 838 756 m 760 939 q 732 967 760 967 q 674 944 697 967 q 650 886 650 921 l 650 838 q 623 813 650 818 q 596 783 596 807 q 624 756 596 756 q 682 779 658 756 q 706 838 706 803 l 706 886 q 733 911 706 906 q 760 939 760 917 m 1229 318 l 1229 429 q 1185 535 1229 492 q 1079 579 1142 579 q 972 536 1015 579 q 929 429 929 493 q 973 323 929 367 q 1079 279 1017 279 q 1119 319 1119 279 q 1079 358 1119 358 q 1029 379 1050 358 q 1008 429 1008 400 q 1028 480 1008 460 q 1079 500 1049 500 q 1129 479 1108 500 q 1150 429 1150 458 l 1150 318 q 1189 279 1150 279 q 1229 318 1229 279 m 644 939 q 617 967 644 967 q 560 943 583 967 q 536 886 536 919 l 536 863 q 535 846 536 854 l 535 838 q 508 813 535 818 q 482 783 482 807 q 510 756 482 756 q 568 779 544 756 q 592 838 592 803 l 592 886 q 618 911 592 906 q 644 939 644 917 m 1231 71 l 1231 199 q 1215 213 1231 213 q 1200 199 1200 213 l 1200 71 q 1215 56 1200 56 q 1231 71 1231 56 m 281 1021 q 246 1056 281 1056 q 211 1021 211 1056 q 246 986 211 986 q 281 1021 281 986 m 897 429 q 853 535 897 492 q 747 579 810 579 q 708 540 708 579 q 747 500 708 500 q 797 479 776 500 q 818 429 818 458 q 797 380 818 400 q 747 360 776 360 q 697 380 717 360 q 676 431 676 400 l 676 660 q 638 700 676 700 q 597 660 597 700 l 597 429 q 641 324 597 367 q 747 281 685 281 q 853 324 810 281 q 897 429 897 367 m 1188 104 l 1188 154 q 1174 168 1188 168 q 1158 154 1158 168 l 1158 104 q 1140 86 1158 86 q 1122 104 1122 86 l 1122 154 q 1107 168 1122 168 q 1093 154 1093 168 l 1093 104 q 1140 56 1093 56 q 1188 104 1188 56 m 486 915 q 478 935 486 926 q 401 967 447 967 q 326 936 357 967 q 296 861 296 906 q 326 785 296 817 q 401 754 357 754 l 439 754 q 467 783 467 754 q 439 811 467 811 l 401 811 q 366 826 381 811 q 351 861 351 840 q 366 897 351 882 q 401 911 381 911 q 413 910 407 911 l 382 881 q 374 861 374 871 q 401 832 374 832 q 421 840 414 832 l 475 893 q 486 915 486 901 m 1081 119 q 1067 135 1081 135 l 1015 135 l 1015 167 q 1033 183 1015 183 q 1050 165 1050 183 l 1050 164 q 1065 149 1050 149 q 1081 164 1081 149 l 1081 165 q 1033 214 1081 214 q 985 167 985 214 l 985 71 q 1000 56 985 56 q 1015 71 1015 56 l 1015 104 l 1067 104 q 1081 119 1081 104 m 976 197 q 958 215 976 215 q 939 197 939 215 q 958 179 939 179 q 976 197 976 179 m 972 71 l 972 154 q 957 168 972 168 q 943 154 943 168 l 943 71 q 957 56 943 56 q 972 71 972 56 m 567 319 l 567 658 q 526 697 567 697 q 486 658 486 697 l 486 319 q 526 281 486 281 q 567 319 567 281 m 274 754 l 274 939 q 246 967 274 967 q 218 939 218 967 l 218 754 q 185 719 218 719 l 183 719 q 154 692 154 719 q 183 664 154 664 l 185 664 q 248 690 222 664 q 274 754 274 717 m 931 104 l 931 106 q 917 121 931 121 q 901 106 901 121 l 901 104 q 883 86 901 86 q 865 104 865 86 l 865 138 l 917 138 q 931 153 931 138 q 917 168 931 168 l 865 168 l 865 179 q 850 194 865 194 q 836 179 836 194 l 836 104 q 883 56 836 56 q 931 104 931 56 m 824 104 l 824 154 q 808 168 824 168 q 793 154 793 168 l 793 104 q 776 86 793 86 q 758 104 758 86 l 758 154 q 743 168 758 168 q 728 154 728 168 l 728 104 q 776 56 728 56 q 824 104 824 56 m 717 71 l 717 113 q 700 152 717 136 q 660 168 683 168 q 619 152 636 168 q 603 113 603 136 q 619 72 603 89 q 660 56 636 56 q 675 71 675 56 q 661 85 675 81 q 640 96 643 90 q 633 113 633 101 q 660 139 633 139 q 686 113 686 139 l 686 71 q 701 56 686 56 q 717 71 717 56 m 454 318 l 454 429 q 410 535 454 492 q 304 579 367 579 q 197 536 240 579 q 154 429 154 493 q 198 323 154 367 q 304 279 242 279 q 344 319 344 279 q 304 358 344 358 q 255 379 275 358 q 235 429 235 400 q 254 480 235 460 q 304 500 274 500 q 354 479 333 500 q 375 429 375 458 l 375 318 q 414 279 375 279 q 454 318 454 279 m 592 142 q 588 151 592 147 q 546 168 571 168 q 506 152 522 168 q 490 113 490 136 q 506 72 490 89 q 546 56 522 56 l 565 56 q 581 71 581 56 q 565 86 581 86 l 546 86 q 519 113 519 86 q 546 139 519 139 q 551 138 549 139 l 536 122 q 531 113 531 118 q 546 97 531 97 q 557 101 553 97 l 585 129 q 592 142 592 133 m 478 113 q 461 152 478 136 q 421 168 444 168 q 407 154 407 168 q 418 139 407 142 q 447 113 447 132 q 421 86 447 86 q 394 113 394 86 l 394 199 q 379 214 394 214 q 365 199 365 214 l 365 113 q 381 72 365 89 q 421 56 397 56 q 461 72 444 56 q 478 113 478 89 m 190 197 q 172 215 190 215 q 154 197 154 215 q 172 179 154 179 q 190 197 190 179 m 286 154 q 271 168 286 168 q 228 125 228 168 l 228 100 q 214 86 228 89 q 200 71 200 83 q 214 56 200 56 q 257 100 257 56 l 257 125 q 272 139 257 136 q 286 154 286 142 m 188 71 l 188 154 q 172 168 188 168 q 157 154 157 168 l 157 71 q 172 56 157 56 q 188 71 188 56 z "},"˛":{"ha":692,"x_min":228,"x_max":682,"o":"m 589 -468 l 528 -468 q 314 -382 400 -468 q 228 -168 228 -296 l 228 0 l 415 0 l 415 -168 q 448 -248 415 -215 q 528 -281 481 -281 l 589 -281 q 656 -307 631 -281 q 682 -375 682 -333 q 656 -442 682 -417 q 589 -468 631 -468 z "},"ˇ":{"ha":540,"x_min":78,"x_max":540,"o":"m 107 1147 q 232 1024 215 1038 q 308 983 279 983 q 386 1024 340 983 q 511 1147 397 1033 q 540 1213 540 1176 q 511 1280 540 1251 q 443 1308 482 1308 q 378 1279 407 1308 l 308 1210 l 239 1279 q 174 1308 210 1308 q 107 1279 136 1308 q 78 1213 78 1250 q 107 1147 78 1176 z "},"Ł":{"ha":1532,"x_min":40,"x_max":1600,"o":"m 1554 722 q 1600 599 1600 661 q 1536 461 1600 521 q 1543 425 1543 442 q 1451 349 1543 361 q 1453 326 1453 338 q 1332 201 1453 225 q 1203 92 1314 92 q 1068 124 1140 92 q 1068 122 1068 122 q 1056 131 1063 125 q 951 53 1003 92 q 836 4 885 4 q 560 167 726 4 l 560 165 q 385 122 465 122 q 239 167 303 122 q 163 254 190 201 q 143 313 138 299 q 40 397 76 349 q 186 447 149 396 q 71 576 96 447 q 253 728 208 650 q 63 836 107 714 q 374 1032 314 885 q 532 1308 418 1188 q 811 1364 678 1464 q 885 1369 849 1369 q 1304 1126 1136 1369 q 1421 883 1374 1025 q 1432 786 1432 840 q 1413 654 1432 718 q 1483 626 1453 626 q 1554 722 1543 626 m 1208 699 q 1150 844 1190 774 q 861 1138 1053 1014 q 644 1018 710 1143 q 608 892 617 965 q 597 789 607 836 q 638 792 615 792 q 778 740 742 792 q 754 735 771 735 q 671 753 724 735 q 593 769 626 771 q 564 689 581 724 q 472 583 525 604 q 438 557 464 572 q 531 317 472 390 q 669 157 626 197 q 836 75 758 75 q 1001 157 914 75 q 1140 318 1044 197 q 1206 493 1196 386 q 1208 699 1208 515 m 1172 744 q 1143 746 1161 738 q 1085 764 1113 764 q 1013 749 1054 764 q 931 729 961 729 q 907 736 914 729 q 1046 786 943 786 q 1092 783 1071 786 q 1129 774 1114 779 q 1172 744 1167 761 m 1142 619 q 1107 603 1125 603 q 1076 617 1090 603 q 1039 638 1061 631 q 1044 614 1044 626 q 1031 581 1044 594 q 997 567 1017 567 q 964 581 978 567 q 950 614 950 594 q 961 643 950 631 q 929 610 929 631 q 932 597 929 604 l 908 604 q 926 632 915 621 q 990 663 951 661 l 990 661 q 997 663 993 663 q 1076 647 1046 664 q 1094 642 1085 642 q 1128 660 1114 642 q 1104 629 1131 635 q 1142 619 1122 614 m 785 603 l 761 596 q 763 607 763 601 q 718 643 763 638 q 728 615 728 631 q 715 583 728 596 q 682 569 701 569 q 649 583 663 569 q 636 615 636 596 q 642 638 636 628 q 618 622 626 632 q 576 597 599 597 q 550 607 563 597 q 579 625 561 607 q 557 646 557 629 q 561 660 557 653 q 597 640 586 640 q 622 653 599 640 q 685 664 644 665 q 729 654 711 661 q 785 603 776 638 m 961 299 l 717 299 q 839 379 758 379 q 961 299 921 379 m 960 285 q 917 213 947 242 q 840 181 882 181 q 765 211 797 181 q 719 285 732 242 l 733 285 q 840 253 774 253 q 940 285 907 253 l 960 285 m 1001 614 q 994 621 1001 621 q 988 614 988 621 q 994 607 988 607 q 1001 614 1001 607 m 997 594 q 985 607 997 607 q 974 594 974 607 q 985 582 974 582 q 997 594 997 582 m 688 614 q 679 621 688 621 q 672 614 672 621 q 679 607 672 607 q 688 614 688 607 m 682 594 q 669 607 682 607 q 658 594 658 607 q 669 582 658 582 q 682 594 682 582 z "},"ł":{"ha":1532,"x_min":40,"x_max":1600,"o":"m 1554 722 q 1600 599 1600 661 q 1536 461 1600 521 q 1543 425 1543 442 q 1451 349 1543 361 q 1453 326 1453 338 q 1332 201 1453 225 q 1203 92 1314 92 q 1068 124 1140 92 q 1068 122 1068 122 q 1056 131 1063 125 q 951 53 1003 92 q 836 4 885 4 q 560 167 726 4 l 560 165 q 385 122 465 122 q 239 167 303 122 q 163 254 190 201 q 143 313 138 299 q 40 397 76 349 q 186 447 149 396 q 71 576 96 447 q 253 728 208 650 q 63 836 107 714 q 374 1032 314 885 q 532 1308 418 1188 q 811 1364 678 1464 q 885 1369 849 1369 q 1304 1126 1136 1369 q 1421 883 1374 1025 q 1432 786 1432 840 q 1413 654 1432 718 q 1483 626 1453 626 q 1554 722 1543 626 m 1208 699 q 1150 844 1190 774 q 861 1138 1053 1014 q 644 1018 710 1143 q 608 892 617 965 q 597 789 607 836 q 638 792 615 792 q 778 740 742 792 q 754 735 771 735 q 671 753 724 735 q 593 769 626 771 q 564 689 581 724 q 472 583 525 604 q 438 557 464 572 q 531 317 472 390 q 669 157 626 197 q 836 75 758 75 q 1001 157 914 75 q 1140 318 1044 197 q 1206 493 1196 386 q 1208 699 1208 515 m 1172 744 q 1143 746 1161 738 q 1085 764 1113 764 q 1013 749 1054 764 q 931 729 961 729 q 907 736 914 729 q 1046 786 943 786 q 1092 783 1071 786 q 1129 774 1114 779 q 1172 744 1167 761 m 1142 619 q 1107 603 1125 603 q 1076 617 1090 603 q 1039 638 1061 631 q 1044 614 1044 626 q 1031 581 1044 594 q 997 567 1017 567 q 964 581 978 567 q 950 614 950 594 q 961 643 950 631 q 929 610 929 631 q 932 597 929 604 l 908 604 q 926 632 915 621 q 990 663 951 661 l 990 661 q 997 663 993 663 q 1076 647 1046 664 q 1094 642 1085 642 q 1128 660 1114 642 q 1104 629 1131 635 q 1142 619 1122 614 m 785 603 l 761 596 q 763 607 763 601 q 718 643 763 638 q 728 615 728 631 q 715 583 728 596 q 682 569 701 569 q 649 583 663 569 q 636 615 636 596 q 642 638 636 628 q 618 622 626 632 q 576 597 599 597 q 550 607 563 597 q 579 625 561 607 q 557 646 557 629 q 561 660 557 653 q 597 640 586 640 q 622 653 599 640 q 685 664 644 665 q 729 654 711 661 q 785 603 776 638 m 961 299 l 717 299 q 839 379 758 379 q 961 299 921 379 m 960 285 q 917 213 947 242 q 840 181 882 181 q 765 211 797 181 q 719 285 732 242 l 733 285 q 840 253 774 253 q 940 285 907 253 l 960 285 m 1001 614 q 994 621 1001 621 q 988 614 988 621 q 994 607 988 607 q 1001 614 1001 607 m 997 594 q 985 607 997 607 q 974 594 974 607 q 985 582 974 582 q 997 594 997 582 m 688 614 q 679 621 688 621 q 672 614 672 621 q 679 607 672 607 q 688 614 688 607 m 682 594 q 669 607 682 607 q 658 594 658 607 q 669 582 658 582 q 682 594 682 582 z "},"Ð":{"ha":1532,"x_min":40,"x_max":1600,"o":"m 1554 722 q 1600 599 1600 661 q 1536 461 1600 521 q 1543 425 1543 442 q 1451 349 1543 361 q 1453 326 1453 338 q 1332 201 1453 225 q 1203 92 1314 92 q 1068 124 1140 92 q 1068 122 1068 122 q 1056 131 1063 125 q 951 53 1003 92 q 836 4 885 4 q 560 167 726 4 l 560 165 q 385 122 465 122 q 239 167 303 122 q 163 254 190 201 q 143 313 138 299 q 40 397 76 349 q 186 447 149 396 q 71 576 96 447 q 253 728 208 650 q 63 836 107 714 q 374 1032 314 885 q 532 1308 418 1188 q 811 1364 678 1464 q 885 1369 849 1369 q 1304 1126 1136 1369 q 1421 883 1374 1025 q 1432 786 1432 840 q 1413 654 1432 718 q 1483 626 1453 626 q 1554 722 1543 626 m 1208 699 q 1150 844 1190 774 q 861 1138 1053 1014 q 644 1018 710 1143 q 608 892 617 965 q 597 789 607 836 q 638 792 615 792 q 778 740 742 792 q 754 735 771 735 q 671 753 724 735 q 593 769 626 771 q 564 689 581 724 q 472 583 525 604 q 438 557 464 572 q 531 317 472 390 q 669 157 626 197 q 836 75 758 75 q 1001 157 914 75 q 1140 318 1044 197 q 1206 493 1196 386 q 1208 699 1208 515 m 1172 744 q 1143 746 1161 738 q 1085 764 1113 764 q 1013 749 1054 764 q 931 729 961 729 q 907 736 914 729 q 1046 786 943 786 q 1092 783 1071 786 q 1129 774 1114 779 q 1172 744 1167 761 m 1142 619 q 1107 603 1125 603 q 1076 617 1090 603 q 1039 638 1061 631 q 1044 614 1044 626 q 1031 581 1044 594 q 997 567 1017 567 q 964 581 978 567 q 950 614 950 594 q 961 643 950 631 q 929 610 929 631 q 932 597 929 604 l 908 604 q 926 632 915 621 q 990 663 951 661 l 990 661 q 997 663 993 663 q 1076 647 1046 664 q 1094 642 1085 642 q 1128 660 1114 642 q 1104 629 1131 635 q 1142 619 1122 614 m 785 603 l 761 596 q 763 607 763 601 q 718 643 763 638 q 728 615 728 631 q 715 583 728 596 q 682 569 701 569 q 649 583 663 569 q 636 615 636 596 q 642 638 636 628 q 618 622 626 632 q 576 597 599 597 q 550 607 563 597 q 579 625 561 607 q 557 646 557 629 q 561 660 557 653 q 597 640 586 640 q 622 653 599 640 q 685 664 644 665 q 729 654 711 661 q 785 603 776 638 m 961 299 l 717 299 q 839 379 758 379 q 961 299 921 379 m 960 285 q 917 213 947 242 q 840 181 882 181 q 765 211 797 181 q 719 285 732 242 l 733 285 q 840 253 774 253 q 940 285 907 253 l 960 285 m 1001 614 q 994 621 1001 621 q 988 614 988 621 q 994 607 988 607 q 1001 614 1001 607 m 997 594 q 985 607 997 607 q 974 594 974 607 q 985 582 974 582 q 997 594 997 582 m 688 614 q 679 621 688 621 q 672 614 672 621 q 679 607 672 607 q 688 614 688 607 m 682 594 q 669 607 682 607 q 658 594 658 607 q 669 582 658 582 q 682 594 682 582 z "},"ð":{"ha":1532,"x_min":40,"x_max":1600,"o":"m 1554 722 q 1600 599 1600 661 q 1536 461 1600 521 q 1543 425 1543 442 q 1451 349 1543 361 q 1453 326 1453 338 q 1332 201 1453 225 q 1203 92 1314 92 q 1068 124 1140 92 q 1068 122 1068 122 q 1056 131 1063 125 q 951 53 1003 92 q 836 4 885 4 q 560 167 726 4 l 560 165 q 385 122 465 122 q 239 167 303 122 q 163 254 190 201 q 143 313 138 299 q 40 397 76 349 q 186 447 149 396 q 71 576 96 447 q 253 728 208 650 q 63 836 107 714 q 374 1032 314 885 q 532 1308 418 1188 q 811 1364 678 1464 q 885 1369 849 1369 q 1304 1126 1136 1369 q 1421 883 1374 1025 q 1432 786 1432 840 q 1413 654 1432 718 q 1483 626 1453 626 q 1554 722 1543 626 m 1208 699 q 1150 844 1190 774 q 861 1138 1053 1014 q 644 1018 710 1143 q 608 892 617 965 q 597 789 607 836 q 638 792 615 792 q 778 740 742 792 q 754 735 771 735 q 671 753 724 735 q 593 769 626 771 q 564 689 581 724 q 472 583 525 604 q 438 557 464 572 q 531 317 472 390 q 669 157 626 197 q 836 75 758 75 q 1001 157 914 75 q 1140 318 1044 197 q 1206 493 1196 386 q 1208 699 1208 515 m 1172 744 q 1143 746 1161 738 q 1085 764 1113 764 q 1013 749 1054 764 q 931 729 961 729 q 907 736 914 729 q 1046 786 943 786 q 1092 783 1071 786 q 1129 774 1114 779 q 1172 744 1167 761 m 1142 619 q 1107 603 1125 603 q 1076 617 1090 603 q 1039 638 1061 631 q 1044 614 1044 626 q 1031 581 1044 594 q 997 567 1017 567 q 964 581 978 567 q 950 614 950 594 q 961 643 950 631 q 929 610 929 631 q 932 597 929 604 l 908 604 q 926 632 915 621 q 990 663 951 661 l 990 661 q 997 663 993 663 q 1076 647 1046 664 q 1094 642 1085 642 q 1128 660 1114 642 q 1104 629 1131 635 q 1142 619 1122 614 m 785 603 l 761 596 q 763 607 763 601 q 718 643 763 638 q 728 615 728 631 q 715 583 728 596 q 682 569 701 569 q 649 583 663 569 q 636 615 636 596 q 642 638 636 628 q 618 622 626 632 q 576 597 599 597 q 550 607 563 597 q 579 625 561 607 q 557 646 557 629 q 561 660 557 653 q 597 640 586 640 q 622 653 599 640 q 685 664 644 665 q 729 654 711 661 q 785 603 776 638 m 961 299 l 717 299 q 839 379 758 379 q 961 299 921 379 m 960 285 q 917 213 947 242 q 840 181 882 181 q 765 211 797 181 q 719 285 732 242 l 733 285 q 840 253 774 253 q 940 285 907 253 l 960 285 m 1001 614 q 994 621 1001 621 q 988 614 988 621 q 994 607 988 607 q 1001 614 1001 607 m 997 594 q 985 607 997 607 q 974 594 974 607 q 985 582 974 582 q 997 594 997 582 m 688 614 q 679 621 688 621 q 672 614 672 621 q 679 607 672 607 q 688 614 688 607 m 682 594 q 669 607 682 607 q 658 594 658 607 q 669 582 658 582 q 682 594 682 582 z "},"Š":{"ha":617,"x_min":75,"x_max":618,"o":"m 464 768 q 439 707 439 743 l 440 258 q 361 65 440 144 q 168 -14 282 -14 q 101 12 126 -14 q 75 79 75 38 q 101 147 75 121 q 168 174 126 174 q 228 198 204 174 q 253 258 253 222 l 251 707 q 331 901 251 822 q 524 979 410 979 q 592 953 565 979 q 618 886 618 928 q 594 820 618 844 q 527 792 569 796 q 464 768 485 789 m 149 1203 q 274 1079 257 1093 q 350 1039 321 1039 q 428 1079 382 1039 q 553 1203 439 1089 q 582 1268 582 1232 q 553 1335 582 1307 q 485 1364 524 1364 q 419 1335 449 1364 l 350 1265 l 281 1335 q 215 1364 251 1364 q 149 1335 178 1364 q 119 1268 119 1306 q 149 1203 119 1232 z "},"š":{"ha":619,"x_min":75,"x_max":621,"o":"m 465 481 q 453 469 465 481 q 442 422 442 457 l 440 261 q 360 68 439 147 q 168 -11 282 -11 q 101 15 126 -11 q 75 82 75 40 q 101 150 75 124 q 168 176 126 176 q 228 201 204 176 q 253 261 253 225 q 253 289 253 274 q 254 346 254 344 l 254 422 q 333 616 254 538 q 526 694 411 694 q 594 669 568 694 q 621 601 621 643 q 596 536 621 561 q 530 508 571 511 q 465 481 489 504 m 149 925 q 274 801 257 815 q 350 761 321 761 q 428 801 382 761 q 553 925 439 811 q 582 990 582 954 q 553 1058 582 1029 q 485 1086 524 1086 q 419 1057 449 1086 l 350 988 l 281 1057 q 215 1086 251 1086 q 149 1057 178 1086 q 119 990 119 1028 q 149 925 119 954 z "},"Ý":{"ha":675,"x_min":75,"x_max":674,"o":"m 674 288 q 588 74 674 161 q 375 -12 501 -12 q 161 74 247 -12 q 75 288 75 160 l 75 301 q 101 369 75 343 q 168 394 126 394 q 236 369 210 394 q 263 301 263 343 l 263 288 q 295 208 263 240 q 375 175 328 175 q 454 208 422 175 q 486 288 486 240 l 486 421 q 375 399 433 399 q 161 485 247 399 q 75 699 75 571 l 75 886 q 101 953 75 928 q 168 979 126 979 q 236 953 210 979 q 263 886 263 928 l 263 699 q 295 619 263 651 q 375 586 328 586 q 454 619 422 586 q 486 699 486 651 l 486 699 l 486 886 q 513 953 486 926 q 581 979 540 979 q 648 953 622 979 q 674 886 674 928 l 674 288 m 335 1360 q 440 1431 364 1431 q 485 1422 464 1431 q 556 1315 556 1393 q 547 1272 556 1293 l 482 1114 q 375 1043 453 1043 q 332 1053 354 1043 q 261 1158 261 1083 q 269 1203 261 1183 l 335 1360 z "},"Þ":{"ha":1532,"x_min":40,"x_max":1600,"o":"m 1554 722 q 1600 599 1600 661 q 1536 461 1600 521 q 1543 425 1543 442 q 1451 349 1543 361 q 1453 326 1453 338 q 1332 201 1453 225 q 1203 92 1314 92 q 1068 124 1140 92 q 1068 122 1068 122 q 1056 131 1063 125 q 951 53 1003 92 q 836 4 885 4 q 560 167 726 4 l 560 165 q 385 122 465 122 q 239 167 303 122 q 163 254 190 201 q 143 313 138 299 q 40 397 76 349 q 186 447 149 396 q 71 576 96 447 q 253 728 208 650 q 63 836 107 714 q 374 1032 314 885 q 532 1308 418 1188 q 811 1364 678 1464 q 885 1369 849 1369 q 1304 1126 1136 1369 q 1421 883 1374 1025 q 1432 786 1432 840 q 1413 654 1432 718 q 1483 626 1453 626 q 1554 722 1543 626 m 1208 699 q 1150 844 1190 774 q 861 1138 1053 1014 q 644 1018 710 1143 q 608 892 617 965 q 597 789 607 836 q 638 792 615 792 q 778 740 742 792 q 754 735 771 735 q 671 753 724 735 q 593 769 626 771 q 564 689 581 724 q 472 583 525 604 q 438 557 464 572 q 531 317 472 390 q 669 157 626 197 q 836 75 758 75 q 1001 157 914 75 q 1140 318 1044 197 q 1206 493 1196 386 q 1208 699 1208 515 m 1172 744 q 1143 746 1161 738 q 1085 764 1113 764 q 1013 749 1054 764 q 931 729 961 729 q 907 736 914 729 q 1046 786 943 786 q 1092 783 1071 786 q 1129 774 1114 779 q 1172 744 1167 761 m 1142 619 q 1107 603 1125 603 q 1076 617 1090 603 q 1039 638 1061 631 q 1044 614 1044 626 q 1031 581 1044 594 q 997 567 1017 567 q 964 581 978 567 q 950 614 950 594 q 961 643 950 631 q 929 610 929 631 q 932 597 929 604 l 908 604 q 926 632 915 621 q 990 663 951 661 l 990 661 q 997 663 993 663 q 1076 647 1046 664 q 1094 642 1085 642 q 1128 660 1114 642 q 1104 629 1131 635 q 1142 619 1122 614 m 785 603 l 761 596 q 763 607 763 601 q 718 643 763 638 q 728 615 728 631 q 715 583 728 596 q 682 569 701 569 q 649 583 663 569 q 636 615 636 596 q 642 638 636 628 q 618 622 626 632 q 576 597 599 597 q 550 607 563 597 q 579 625 561 607 q 557 646 557 629 q 561 660 557 653 q 597 640 586 640 q 622 653 599 640 q 685 664 644 665 q 729 654 711 661 q 785 603 776 638 m 961 299 l 717 299 q 839 379 758 379 q 961 299 921 379 m 960 285 q 917 213 947 242 q 840 181 882 181 q 765 211 797 181 q 719 285 732 242 l 733 285 q 840 253 774 253 q 940 285 907 253 l 960 285 m 1001 614 q 994 621 1001 621 q 988 614 988 621 q 994 607 988 607 q 1001 614 1001 607 m 997 594 q 985 607 997 607 q 974 594 974 607 q 985 582 974 582 q 997 594 997 582 m 688 614 q 679 621 688 621 q 672 614 672 621 q 679 607 672 607 q 688 614 688 607 m 682 594 q 669 607 682 607 q 658 594 658 607 q 669 582 658 582 q 682 594 682 582 z "},"þ":{"ha":1532,"x_min":40,"x_max":1600,"o":"m 1554 722 q 1600 599 1600 661 q 1536 461 1600 521 q 1543 425 1543 442 q 1451 349 1543 361 q 1453 326 1453 338 q 1332 201 1453 225 q 1203 92 1314 92 q 1068 124 1140 92 q 1068 122 1068 122 q 1056 131 1063 125 q 951 53 1003 92 q 836 4 885 4 q 560 167 726 4 l 560 165 q 385 122 465 122 q 239 167 303 122 q 163 254 190 201 q 143 313 138 299 q 40 397 76 349 q 186 447 149 396 q 71 576 96 447 q 253 728 208 650 q 63 836 107 714 q 374 1032 314 885 q 532 1308 418 1188 q 811 1364 678 1464 q 885 1369 849 1369 q 1304 1126 1136 1369 q 1421 883 1374 1025 q 1432 786 1432 840 q 1413 654 1432 718 q 1483 626 1453 626 q 1554 722 1543 626 m 1208 699 q 1150 844 1190 774 q 861 1138 1053 1014 q 644 1018 710 1143 q 608 892 617 965 q 597 789 607 836 q 638 792 615 792 q 778 740 742 792 q 754 735 771 735 q 671 753 724 735 q 593 769 626 771 q 564 689 581 724 q 472 583 525 604 q 438 557 464 572 q 531 317 472 390 q 669 157 626 197 q 836 75 758 75 q 1001 157 914 75 q 1140 318 1044 197 q 1206 493 1196 386 q 1208 699 1208 515 m 1172 744 q 1143 746 1161 738 q 1085 764 1113 764 q 1013 749 1054 764 q 931 729 961 729 q 907 736 914 729 q 1046 786 943 786 q 1092 783 1071 786 q 1129 774 1114 779 q 1172 744 1167 761 m 1142 619 q 1107 603 1125 603 q 1076 617 1090 603 q 1039 638 1061 631 q 1044 614 1044 626 q 1031 581 1044 594 q 997 567 1017 567 q 964 581 978 567 q 950 614 950 594 q 961 643 950 631 q 929 610 929 631 q 932 597 929 604 l 908 604 q 926 632 915 621 q 990 663 951 661 l 990 661 q 997 663 993 663 q 1076 647 1046 664 q 1094 642 1085 642 q 1128 660 1114 642 q 1104 629 1131 635 q 1142 619 1122 614 m 785 603 l 761 596 q 763 607 763 601 q 718 643 763 638 q 728 615 728 631 q 715 583 728 596 q 682 569 701 569 q 649 583 663 569 q 636 615 636 596 q 642 638 636 628 q 618 622 626 632 q 576 597 599 597 q 550 607 563 597 q 579 625 561 607 q 557 646 557 629 q 561 660 557 653 q 597 640 586 640 q 622 653 599 640 q 685 664 644 665 q 729 654 711 661 q 785 603 776 638 m 961 299 l 717 299 q 839 379 758 379 q 961 299 921 379 m 960 285 q 917 213 947 242 q 840 181 882 181 q 765 211 797 181 q 719 285 732 242 l 733 285 q 840 253 774 253 q 940 285 907 253 l 960 285 m 1001 614 q 994 621 1001 621 q 988 614 988 621 q 994 607 988 607 q 1001 614 1001 607 m 997 594 q 985 607 997 607 q 974 594 974 607 q 985 582 974 582 q 997 594 997 582 m 688 614 q 679 621 688 621 q 672 614 672 621 q 679 607 672 607 q 688 614 688 607 m 682 594 q 669 607 682 607 q 658 594 658 607 q 669 582 658 582 q 682 594 682 582 z "},"Ž":{"ha":665,"x_min":-7,"x_max":665,"o":"m 168 979 l 565 979 q 665 900 665 979 q 646 839 665 872 l 256 175 l 571 175 q 638 149 613 175 q 664 81 664 122 q 638 13 664 39 q 571 -12 613 -12 l 92 -12 q 22 8 51 -12 q -7 67 -7 28 q 11 129 -7 99 l 401 792 l 168 792 q 101 818 126 792 q 75 886 75 844 q 101 953 75 928 q 168 979 126 979 m 176 1203 q 301 1079 285 1093 q 378 1039 349 1039 q 456 1079 410 1039 q 581 1203 467 1089 q 610 1268 610 1232 q 581 1335 610 1307 q 513 1364 551 1364 q 447 1335 476 1364 l 378 1265 l 308 1335 q 243 1364 279 1364 q 176 1335 206 1364 q 147 1268 147 1306 q 176 1203 147 1232 z "},"ž":{"ha":607,"x_min":21,"x_max":654,"o":"m 168 694 l 554 694 q 654 633 654 694 q 526 410 654 563 q 322 175 478 351 l 511 175 q 578 149 553 175 q 604 81 604 122 q 578 14 604 40 q 511 -12 551 -12 l 122 -12 q 21 50 21 -12 q 149 272 21 121 q 354 507 178 307 l 168 507 q 101 534 128 507 q 75 601 75 561 q 101 669 75 643 q 168 694 126 694 m 149 925 q 274 801 257 815 q 350 761 321 761 q 428 801 382 761 q 553 925 439 811 q 582 990 582 954 q 553 1058 582 1029 q 485 1086 524 1086 q 419 1057 449 1086 l 350 988 l 281 1057 q 215 1086 251 1086 q 149 1057 178 1086 q 119 990 119 1028 q 149 925 119 954 z "},"Ä":{"ha":785,"x_min":75,"x_max":996,"o":"m 903 -318 l 896 -318 q 683 -231 769 -318 q 597 -18 597 -144 l 597 311 q 429 269 518 269 q 362 296 388 269 q 336 364 336 322 q 362 431 336 406 q 429 457 388 457 q 548 506 499 457 q 597 625 597 556 q 548 743 597 694 q 429 792 499 792 q 311 743 360 792 q 263 625 263 694 l 263 81 q 236 13 263 39 q 168 -12 210 -12 q 101 13 126 -12 q 75 81 75 39 l 75 625 q 177 877 75 775 q 429 979 279 979 q 682 877 579 979 q 785 625 785 775 l 785 -18 q 817 -98 785 -65 q 896 -131 849 -131 l 903 -131 q 970 -157 944 -131 q 996 -225 996 -183 q 969 -292 996 -265 q 903 -318 943 -318 m 301 1063 q 383 1096 350 1063 q 417 1178 417 1129 q 383 1258 417 1225 q 301 1292 349 1292 q 220 1258 254 1292 q 186 1178 186 1225 q 219 1096 186 1129 q 301 1063 253 1063 m 568 1063 q 649 1096 617 1063 q 682 1178 682 1129 q 649 1258 682 1225 q 568 1292 615 1292 q 486 1259 519 1292 q 453 1178 453 1226 q 486 1096 453 1129 q 568 1063 519 1063 z "},"Å":{"ha":785,"x_min":75,"x_max":996,"o":"m 903 -318 l 896 -318 q 683 -231 769 -318 q 597 -18 597 -144 l 597 311 q 429 269 518 269 q 362 296 388 269 q 336 364 336 322 q 362 431 336 406 q 429 457 388 457 q 548 506 499 457 q 597 625 597 556 q 548 743 597 694 q 429 792 499 792 q 311 743 360 792 q 263 625 263 694 l 263 81 q 236 13 263 39 q 168 -12 210 -12 q 101 13 126 -12 q 75 81 75 39 l 75 625 q 177 877 75 775 q 429 979 279 979 q 682 877 579 979 q 785 625 785 775 l 785 -18 q 817 -98 785 -65 q 896 -131 849 -131 l 903 -131 q 970 -157 944 -131 q 996 -225 996 -183 q 969 -292 996 -265 q 903 -318 943 -318 m 558 1196 q 516 1298 558 1256 q 414 1340 474 1340 q 312 1298 354 1340 q 269 1196 269 1256 q 312 1094 269 1136 q 414 1051 354 1051 q 516 1094 474 1051 q 558 1196 558 1136 m 414 1156 q 374 1196 374 1156 q 414 1236 374 1236 q 454 1196 454 1236 q 414 1156 454 1156 z "},"Ç":{"ha":665,"x_min":75,"x_max":667,"o":"m 572 -15 q 219 129 364 -15 q 75 482 75 274 q 219 835 75 690 q 572 979 364 979 q 640 953 614 979 q 667 886 667 928 q 640 818 667 844 q 572 792 614 792 q 352 702 442 792 q 263 482 263 613 q 352 262 263 351 q 572 172 442 172 q 640 146 614 172 q 667 78 667 119 q 640 10 667 36 q 572 -15 614 -15 m 422 -279 q 503 -245 469 -279 q 536 -164 536 -211 q 503 -83 536 -117 q 422 -49 469 -49 q 341 -83 375 -49 q 307 -164 307 -117 q 341 -245 307 -211 q 422 -279 375 -279 z "},"É":{"ha":661,"x_min":75,"x_max":667,"o":"m 572 -15 q 219 129 364 -15 q 75 482 75 274 q 219 835 75 690 q 572 979 364 979 q 640 953 614 979 q 667 886 667 928 q 640 818 667 844 q 572 792 614 792 q 392 734 472 792 q 279 582 311 676 l 572 582 q 640 556 614 582 q 667 489 667 531 q 640 421 667 447 q 572 394 614 394 l 275 394 q 387 234 304 296 q 572 172 469 172 q 640 146 614 172 q 667 78 667 119 q 640 10 667 36 q 572 -15 614 -15 m 335 1360 q 440 1431 364 1431 q 485 1422 464 1431 q 556 1315 556 1393 q 547 1272 556 1293 l 482 1114 q 375 1043 453 1043 q 332 1053 354 1043 q 261 1158 261 1083 q 269 1203 261 1183 l 335 1360 z "},"Ñ":{"ha":675,"x_min":75,"x_max":888,"o":"m 793 -318 l 788 -318 q 574 -232 660 -318 q 488 -18 488 -146 l 488 63 l 486 679 q 453 758 486 725 q 375 792 421 792 q 295 759 328 792 q 263 679 263 726 l 263 81 q 236 13 263 39 q 168 -12 210 -12 q 101 13 126 -12 q 75 81 75 39 l 75 679 q 162 892 75 806 q 375 979 249 979 q 583 897 493 979 q 674 696 674 814 l 675 -18 q 708 -98 675 -65 q 788 -131 740 -131 l 793 -131 q 861 -157 835 -131 q 888 -225 888 -183 q 861 -292 888 -267 q 793 -318 835 -318 m 149 1232 q 278 1297 207 1297 q 374 1272 315 1297 l 431 1246 q 436 1247 435 1246 q 504 1281 465 1281 q 572 1252 543 1281 q 601 1185 601 1224 q 575 1122 601 1151 q 447 1057 517 1057 q 353 1083 414 1057 q 293 1108 293 1108 q 289 1107 290 1108 q 219 1074 258 1074 q 153 1103 182 1074 q 124 1169 124 1132 q 149 1232 124 1204 z "},"Ö":{"ha":1068,"x_min":75,"x_max":1069,"o":"m 572 979 q 925 835 781 979 q 1069 482 1069 690 q 925 129 1069 274 q 572 -15 781 -15 q 219 129 364 -15 q 75 482 75 274 q 219 835 75 690 q 572 979 364 979 m 572 792 q 351 703 440 792 q 263 482 263 614 q 352 262 263 351 q 572 172 442 172 q 792 262 703 172 q 882 482 882 351 q 792 702 882 613 q 572 792 703 792 m 440 1063 q 522 1096 489 1063 q 556 1178 556 1129 q 522 1258 556 1225 q 440 1292 488 1292 q 359 1258 393 1292 q 325 1178 325 1225 q 358 1096 325 1129 q 440 1063 392 1063 m 707 1063 q 788 1096 756 1063 q 821 1178 821 1129 q 788 1258 821 1225 q 707 1292 754 1292 q 625 1259 658 1292 q 592 1178 592 1226 q 625 1096 592 1129 q 707 1063 658 1063 z "},"Ü":{"ha":675,"x_min":75,"x_max":674,"o":"m 263 886 l 263 288 q 295 208 263 240 q 375 175 328 175 q 454 208 422 175 q 486 288 486 240 l 486 888 q 513 955 486 928 q 581 982 540 982 q 648 956 622 982 q 674 888 674 929 l 674 288 q 588 74 674 161 q 375 -12 501 -12 q 161 74 247 -12 q 75 288 75 160 l 75 886 q 101 953 75 928 q 168 979 126 979 q 236 953 210 979 q 263 886 263 928 m 260 1063 q 342 1096 308 1063 q 375 1178 375 1129 q 341 1258 375 1225 q 260 1292 307 1292 q 178 1258 213 1292 q 144 1178 144 1225 q 178 1096 144 1129 q 260 1063 211 1063 m 526 1063 q 608 1096 575 1063 q 640 1178 640 1129 q 607 1258 640 1225 q 526 1292 574 1292 q 444 1259 478 1292 q 411 1178 411 1226 q 444 1096 411 1129 q 526 1063 478 1063 z "},"á":{"ha":785,"x_min":75,"x_max":785,"o":"m 429 -15 q 177 88 279 -15 q 75 340 75 190 q 177 592 75 490 q 429 694 279 694 q 682 592 579 694 q 785 340 785 490 l 785 81 q 758 13 785 39 q 690 -12 732 -12 q 623 13 649 -12 q 597 81 597 39 l 597 340 q 548 458 597 410 q 429 507 499 507 q 311 458 360 507 q 263 340 263 410 q 311 222 263 271 q 429 172 360 172 q 497 147 471 172 q 524 79 524 121 q 497 11 524 38 q 429 -15 471 -15 m 363 1082 q 468 1153 392 1153 q 513 1144 492 1153 q 583 1038 583 1115 q 575 994 583 1015 l 510 836 q 403 765 481 765 q 360 775 382 765 q 289 881 289 806 q 297 925 289 906 l 363 1082 z "},"à":{"ha":785,"x_min":75,"x_max":785,"o":"m 429 -15 q 177 88 279 -15 q 75 340 75 190 q 177 592 75 490 q 429 694 279 694 q 682 592 579 694 q 785 340 785 490 l 785 81 q 758 13 785 39 q 690 -12 732 -12 q 623 13 649 -12 q 597 81 597 39 l 597 340 q 548 458 597 410 q 429 507 499 507 q 311 458 360 507 q 263 340 263 410 q 311 222 263 271 q 429 172 360 172 q 497 147 471 172 q 524 79 524 121 q 497 11 524 38 q 429 -15 471 -15 m 454 1082 q 347 1153 425 1153 q 304 1144 325 1153 q 233 1038 233 1115 q 242 994 233 1015 l 307 836 q 413 765 336 765 q 457 775 435 765 q 528 881 528 806 q 519 925 528 906 l 454 1082 z "},"â":{"ha":785,"x_min":75,"x_max":785,"o":"m 429 -15 q 177 88 279 -15 q 75 340 75 190 q 177 592 75 490 q 429 694 279 694 q 682 592 579 694 q 785 340 785 490 l 785 81 q 758 13 785 39 q 690 -12 732 -12 q 623 13 649 -12 q 597 81 597 39 l 597 340 q 548 458 597 410 q 429 507 499 507 q 311 458 360 507 q 263 340 263 410 q 311 222 263 271 q 429 172 360 172 q 497 147 471 172 q 524 79 524 121 q 497 11 524 38 q 429 -15 471 -15 m 650 932 q 525 1054 544 1036 q 447 1096 479 1096 q 371 1054 418 1096 q 246 932 347 1033 q 217 867 217 903 q 245 799 217 828 q 313 771 274 771 q 378 800 349 771 l 447 868 l 517 800 q 582 771 546 771 q 650 799 621 771 q 679 867 679 828 q 650 932 679 903 z "},"ä":{"ha":785,"x_min":75,"x_max":785,"o":"m 429 -15 q 177 88 279 -15 q 75 340 75 190 q 177 592 75 490 q 429 694 279 694 q 682 592 579 694 q 785 340 785 490 l 785 81 q 758 13 785 39 q 690 -12 732 -12 q 623 13 649 -12 q 597 81 597 39 l 597 340 q 548 458 597 410 q 429 507 499 507 q 311 458 360 507 q 263 340 263 410 q 311 222 263 271 q 429 172 360 172 q 497 147 471 172 q 524 79 524 121 q 497 11 524 38 q 429 -15 471 -15 m 301 785 q 383 818 350 785 q 417 900 417 851 q 383 981 417 947 q 301 1014 349 1014 q 220 981 254 1014 q 186 900 186 947 q 219 818 186 851 q 301 785 253 785 m 568 785 q 649 818 617 785 q 682 900 682 851 q 649 981 682 947 q 568 1014 615 1014 q 486 981 519 1014 q 453 900 453 949 q 486 818 453 851 q 568 785 519 785 z "},"ã":{"ha":785,"x_min":75,"x_max":785,"o":"m 429 -15 q 177 88 279 -15 q 75 340 75 190 q 177 592 75 490 q 429 694 279 694 q 682 592 579 694 q 785 340 785 490 l 785 81 q 758 13 785 39 q 690 -12 732 -12 q 623 13 649 -12 q 597 81 597 39 l 597 340 q 548 458 597 410 q 429 507 499 507 q 311 458 360 507 q 263 340 263 410 q 311 222 263 271 q 429 172 360 172 q 497 147 471 172 q 524 79 524 121 q 497 11 524 38 q 429 -15 471 -15 m 218 954 q 347 1019 276 1019 q 443 994 385 1019 l 500 968 q 506 969 504 968 q 574 1003 535 1003 q 642 974 613 1003 q 671 907 671 946 q 644 844 671 874 q 517 779 586 779 q 423 805 483 779 q 363 831 363 831 q 358 829 360 831 q 289 796 328 796 q 222 825 251 796 q 193 892 193 854 q 218 954 193 926 z "},"å":{"ha":785,"x_min":75,"x_max":785,"o":"m 429 -15 q 177 88 279 -15 q 75 340 75 190 q 177 592 75 490 q 429 694 279 694 q 682 592 579 694 q 785 340 785 490 l 785 81 q 758 13 785 39 q 690 -12 732 -12 q 623 13 649 -12 q 597 81 597 39 l 597 340 q 548 458 597 410 q 429 507 499 507 q 311 458 360 507 q 263 340 263 410 q 311 222 263 271 q 429 172 360 172 q 497 147 471 172 q 524 79 524 121 q 497 11 524 38 q 429 -15 471 -15 m 558 918 q 516 1020 558 978 q 414 1063 474 1063 q 312 1020 354 1063 q 269 918 269 978 q 312 816 269 858 q 414 774 354 774 q 516 816 474 774 q 558 918 558 858 m 414 878 q 374 918 374 878 q 414 958 374 958 q 454 918 454 958 q 414 878 454 878 z "},"ç":{"ha":524,"x_min":75,"x_max":524,"o":"m 429 510 q 311 460 360 510 q 263 342 263 411 q 311 224 263 272 q 429 175 360 175 q 497 149 471 175 q 524 81 524 122 q 497 13 524 39 q 429 -12 471 -12 q 178 90 281 -12 q 75 342 75 193 q 177 594 75 492 q 429 697 279 697 q 497 671 471 697 q 524 603 524 644 q 497 535 524 561 q 429 510 471 510 m 353 -279 q 433 -245 400 -279 q 467 -164 467 -211 q 433 -83 467 -117 q 353 -49 400 -49 q 272 -83 306 -49 q 238 -164 238 -117 q 272 -245 238 -211 q 353 -279 306 -279 z "},"é":{"ha":714,"x_min":75,"x_max":714,"o":"m 674 446 l 496 272 q 431 243 465 243 q 363 272 392 243 q 335 340 335 301 q 365 406 335 375 l 465 504 q 429 507 447 507 q 311 458 360 507 q 263 340 263 410 q 311 222 263 271 q 429 172 360 172 l 553 172 q 620 147 594 172 q 646 79 646 121 q 620 11 646 38 q 553 -15 594 -15 l 429 -15 q 177 88 279 -15 q 75 340 75 190 q 177 592 75 490 q 429 694 279 694 q 686 586 581 694 q 714 522 714 557 q 674 446 714 476 m 363 1082 q 468 1153 392 1153 q 513 1144 492 1153 q 583 1038 583 1115 q 575 994 583 1015 l 510 836 q 403 765 481 765 q 360 775 382 765 q 289 881 289 806 q 297 925 289 906 l 363 1082 z "},"è":{"ha":714,"x_min":75,"x_max":714,"o":"m 674 446 l 496 272 q 431 243 465 243 q 363 272 392 243 q 335 340 335 301 q 365 406 335 375 l 465 504 q 429 507 447 507 q 311 458 360 507 q 263 340 263 410 q 311 222 263 271 q 429 172 360 172 l 553 172 q 620 147 594 172 q 646 79 646 121 q 620 11 646 38 q 553 -15 594 -15 l 429 -15 q 177 88 279 -15 q 75 340 75 190 q 177 592 75 490 q 429 694 279 694 q 686 586 581 694 q 714 522 714 557 q 674 446 714 476 m 454 1082 q 347 1153 425 1153 q 304 1144 325 1153 q 233 1038 233 1115 q 242 994 233 1015 l 307 836 q 413 765 336 765 q 457 775 435 765 q 528 881 528 806 q 519 925 528 906 l 454 1082 z "},"ê":{"ha":714,"x_min":75,"x_max":714,"o":"m 674 446 l 496 272 q 431 243 465 243 q 363 272 392 243 q 335 340 335 301 q 365 406 335 375 l 465 504 q 429 507 447 507 q 311 458 360 507 q 263 340 263 410 q 311 222 263 271 q 429 172 360 172 l 553 172 q 620 147 594 172 q 646 79 646 121 q 620 11 646 38 q 553 -15 594 -15 l 429 -15 q 177 88 279 -15 q 75 340 75 190 q 177 592 75 490 q 429 694 279 694 q 686 586 581 694 q 714 522 714 557 q 674 446 714 476 m 636 932 q 511 1054 531 1036 q 433 1096 465 1096 q 357 1054 404 1096 q 232 932 333 1033 q 203 867 203 903 q 231 799 203 828 q 299 771 260 771 q 364 800 335 771 l 433 868 l 503 800 q 568 771 532 771 q 636 799 607 771 q 665 867 665 828 q 636 932 665 903 z "},"ë":{"ha":714,"x_min":75,"x_max":714,"o":"m 674 446 l 496 272 q 431 243 465 243 q 363 272 392 243 q 335 340 335 301 q 365 406 335 375 l 465 504 q 429 507 447 507 q 311 458 360 507 q 263 340 263 410 q 311 222 263 271 q 429 172 360 172 l 553 172 q 620 147 594 172 q 646 79 646 121 q 620 11 646 38 q 553 -15 594 -15 l 429 -15 q 177 88 279 -15 q 75 340 75 190 q 177 592 75 490 q 429 694 279 694 q 686 586 581 694 q 714 522 714 557 q 674 446 714 476 m 288 785 q 369 818 336 785 q 403 900 403 851 q 369 981 403 947 q 288 1014 335 1014 q 206 981 240 1014 q 172 900 172 947 q 206 818 172 851 q 288 785 239 785 m 554 785 q 635 818 603 785 q 668 900 668 851 q 635 981 668 947 q 554 1014 601 1014 q 472 981 506 1014 q 439 900 439 949 q 472 818 439 851 q 554 785 506 785 z "},"í":{"ha":264,"x_min":25,"x_max":319,"o":"m 263 81 q 236 13 263 39 q 168 -12 210 -12 q 101 13 126 -12 q 75 81 75 39 l 75 601 q 101 669 75 643 q 168 694 126 694 q 263 601 263 694 l 263 81 m 99 1082 q 204 1153 128 1153 q 249 1144 228 1153 q 319 1038 319 1115 q 311 994 319 1015 l 246 836 q 139 765 217 765 q 96 775 118 765 q 25 881 25 806 q 33 925 25 906 l 99 1082 z "},"ì":{"ha":264,"x_min":-44,"x_max":263,"o":"m 263 81 q 236 13 263 39 q 168 -12 210 -12 q 101 13 126 -12 q 75 81 75 39 l 75 601 q 101 669 75 643 q 168 694 126 694 q 263 601 263 694 l 263 81 m 176 1082 q 69 1153 147 1153 q 26 1144 47 1153 q -44 1038 -44 1115 q -36 994 -44 1015 l 29 836 q 135 765 58 765 q 179 775 157 765 q 250 881 250 806 q 242 925 250 906 l 176 1082 z "},"î":{"ha":264,"x_min":-61,"x_max":401,"o":"m 263 81 q 236 13 263 39 q 168 -12 210 -12 q 101 13 126 -12 q 75 81 75 39 l 75 601 q 101 669 75 643 q 168 694 126 694 q 263 601 263 694 l 263 81 m 372 932 q 247 1054 267 1036 q 169 1096 201 1096 q 93 1054 140 1096 q -32 932 69 1033 q -61 867 -61 903 q -33 799 -61 828 q 35 771 -4 771 q 100 800 71 771 l 169 868 l 239 800 q 304 771 268 771 q 372 799 343 771 q 401 867 401 828 q 372 932 401 903 z "},"ï":{"ha":264,"x_min":-78,"x_max":418,"o":"m 263 81 q 236 13 263 39 q 168 -12 210 -12 q 101 13 126 -12 q 75 81 75 39 l 75 601 q 101 669 75 643 q 168 694 126 694 q 263 601 263 694 l 263 81 m 38 785 q 119 818 86 785 q 153 900 153 851 q 119 981 153 947 q 38 1014 85 1014 q -44 981 -10 1014 q -78 900 -78 947 q -44 818 -78 851 q 38 785 -11 785 m 304 785 q 385 818 353 785 q 418 900 418 851 q 385 981 418 947 q 304 1014 351 1014 q 222 981 256 1014 q 189 900 189 949 q 222 818 189 851 q 304 785 256 785 z "},"ñ":{"ha":675,"x_min":75,"x_max":888,"o":"m 793 -318 l 788 -318 q 574 -232 660 -318 q 488 -18 488 -146 l 488 47 l 486 396 q 453 474 486 442 q 375 507 421 507 q 295 475 328 507 q 263 396 263 443 l 263 81 q 236 13 263 39 q 168 -12 210 -12 q 101 13 126 -12 q 75 81 75 39 l 75 396 q 162 608 75 522 q 375 694 249 694 q 588 608 501 694 q 675 396 675 522 l 675 -18 q 708 -98 675 -65 q 788 -131 740 -131 l 793 -131 q 861 -157 835 -131 q 888 -225 888 -183 q 861 -292 888 -267 q 793 -318 835 -318 m 163 954 q 292 1019 221 1019 q 388 994 329 1019 l 444 968 q 450 969 449 968 q 518 1003 479 1003 q 586 974 557 1003 q 615 907 615 946 q 589 844 615 874 q 461 779 531 779 q 367 805 428 779 q 307 831 307 831 q 303 829 304 831 q 233 796 272 796 q 167 825 196 796 q 138 892 138 854 q 163 954 138 926 z "},"ó":{"ha":786,"x_min":75,"x_max":785,"o":"m 429 694 q 682 592 579 694 q 785 340 785 490 q 682 88 785 190 q 429 -15 579 -15 q 177 88 279 -15 q 75 340 75 190 q 177 592 75 490 q 429 694 279 694 m 429 507 q 311 458 360 507 q 263 340 263 410 q 311 222 263 271 q 429 172 360 172 q 548 222 499 172 q 597 340 597 271 q 548 458 597 410 q 429 507 499 507 m 363 1082 q 468 1153 392 1153 q 513 1144 492 1153 q 583 1038 583 1115 q 575 994 583 1015 l 510 836 q 403 765 481 765 q 360 775 382 765 q 289 881 289 806 q 297 925 289 906 l 363 1082 z "},"ò":{"ha":786,"x_min":75,"x_max":785,"o":"m 429 694 q 682 592 579 694 q 785 340 785 490 q 682 88 785 190 q 429 -15 579 -15 q 177 88 279 -15 q 75 340 75 190 q 177 592 75 490 q 429 694 279 694 m 429 507 q 311 458 360 507 q 263 340 263 410 q 311 222 263 271 q 429 172 360 172 q 548 222 499 172 q 597 340 597 271 q 548 458 597 410 q 429 507 499 507 m 454 1082 q 347 1153 425 1153 q 304 1144 325 1153 q 233 1038 233 1115 q 242 994 233 1015 l 307 836 q 413 765 336 765 q 457 775 435 765 q 528 881 528 806 q 519 925 528 906 l 454 1082 z "},"ô":{"ha":786,"x_min":75,"x_max":785,"o":"m 429 694 q 682 592 579 694 q 785 340 785 490 q 682 88 785 190 q 429 -15 579 -15 q 177 88 279 -15 q 75 340 75 190 q 177 592 75 490 q 429 694 279 694 m 429 507 q 311 458 360 507 q 263 340 263 410 q 311 222 263 271 q 429 172 360 172 q 548 222 499 172 q 597 340 597 271 q 548 458 597 410 q 429 507 499 507 m 636 932 q 511 1054 531 1036 q 433 1096 465 1096 q 357 1054 404 1096 q 232 932 333 1033 q 203 867 203 903 q 231 799 203 828 q 299 771 260 771 q 364 800 335 771 l 433 868 l 503 800 q 568 771 532 771 q 636 799 607 771 q 665 867 665 828 q 636 932 665 903 z "},"ö":{"ha":786,"x_min":75,"x_max":785,"o":"m 429 694 q 682 592 579 694 q 785 340 785 490 q 682 88 785 190 q 429 -15 579 -15 q 177 88 279 -15 q 75 340 75 190 q 177 592 75 490 q 429 694 279 694 m 429 507 q 311 458 360 507 q 263 340 263 410 q 311 222 263 271 q 429 172 360 172 q 548 222 499 172 q 597 340 597 271 q 548 458 597 410 q 429 507 499 507 m 301 785 q 383 818 350 785 q 417 900 417 851 q 383 981 417 947 q 301 1014 349 1014 q 220 981 254 1014 q 186 900 186 947 q 219 818 186 851 q 301 785 253 785 m 568 785 q 649 818 617 785 q 682 900 682 851 q 649 981 682 947 q 568 1014 615 1014 q 486 981 519 1014 q 453 900 453 949 q 486 818 453 851 q 568 785 519 785 z "},"õ":{"ha":786,"x_min":75,"x_max":785,"o":"m 429 694 q 682 592 579 694 q 785 340 785 490 q 682 88 785 190 q 429 -15 579 -15 q 177 88 279 -15 q 75 340 75 190 q 177 592 75 490 q 429 694 279 694 m 429 507 q 311 458 360 507 q 263 340 263 410 q 311 222 263 271 q 429 172 360 172 q 548 222 499 172 q 597 340 597 271 q 548 458 597 410 q 429 507 499 507 m 232 954 q 361 1019 290 1019 q 457 994 399 1019 l 514 968 q 519 969 518 968 q 588 1003 549 1003 q 656 974 626 1003 q 685 907 685 946 q 658 844 685 874 q 531 779 600 779 q 437 805 497 779 q 376 831 376 831 q 372 829 374 831 q 303 796 342 796 q 236 825 265 796 q 207 892 207 854 q 232 954 207 926 z "},"ú":{"ha":675,"x_min":75,"x_max":674,"o":"m 263 599 l 263 288 q 295 208 263 240 q 375 175 328 175 q 454 208 422 175 q 486 288 486 240 l 486 601 q 513 669 486 643 q 581 694 539 694 q 648 669 622 694 q 674 601 674 643 l 674 288 q 588 74 674 161 q 375 -12 501 -12 q 161 74 247 -12 q 75 288 75 160 l 75 599 q 101 667 75 640 q 168 693 126 693 q 236 667 210 693 q 263 599 263 640 m 349 1082 q 454 1153 378 1153 q 499 1144 478 1153 q 569 1038 569 1115 q 561 994 569 1015 l 496 836 q 389 765 467 765 q 346 775 368 765 q 275 881 275 806 q 283 925 275 906 l 349 1082 z "},"ù":{"ha":675,"x_min":75,"x_max":674,"o":"m 263 599 l 263 288 q 295 208 263 240 q 375 175 328 175 q 454 208 422 175 q 486 288 486 240 l 486 601 q 513 669 486 643 q 581 694 539 694 q 648 669 622 694 q 674 601 674 643 l 674 288 q 588 74 674 161 q 375 -12 501 -12 q 161 74 247 -12 q 75 288 75 160 l 75 599 q 101 667 75 640 q 168 693 126 693 q 236 667 210 693 q 263 599 263 640 m 426 1082 q 319 1153 397 1153 q 276 1144 297 1153 q 206 1038 206 1115 q 214 994 206 1015 l 279 836 q 385 765 308 765 q 429 775 407 765 q 500 881 500 806 q 492 925 500 906 l 426 1082 z "},"û":{"ha":675,"x_min":75,"x_max":674,"o":"m 263 599 l 263 288 q 295 208 263 240 q 375 175 328 175 q 454 208 422 175 q 486 288 486 240 l 486 601 q 513 669 486 643 q 581 694 539 694 q 648 669 622 694 q 674 601 674 643 l 674 288 q 588 74 674 161 q 375 -12 501 -12 q 161 74 247 -12 q 75 288 75 160 l 75 599 q 101 667 75 640 q 168 693 126 693 q 236 667 210 693 q 263 599 263 640 m 594 932 q 469 1054 489 1036 q 392 1096 424 1096 q 315 1054 363 1096 q 190 932 292 1033 q 161 867 161 903 q 190 799 161 828 q 257 771 218 771 q 322 800 293 771 l 392 868 l 461 800 q 526 771 490 771 q 594 799 565 771 q 624 867 624 828 q 594 932 624 903 z "},"ü":{"ha":675,"x_min":75,"x_max":674,"o":"m 263 599 l 263 288 q 295 208 263 240 q 375 175 328 175 q 454 208 422 175 q 486 288 486 240 l 486 601 q 513 669 486 643 q 581 694 539 694 q 648 669 622 694 q 674 601 674 643 l 674 288 q 588 74 674 161 q 375 -12 501 -12 q 161 74 247 -12 q 75 288 75 160 l 75 599 q 101 667 75 640 q 168 693 126 693 q 236 667 210 693 q 263 599 263 640 m 246 785 q 328 818 294 785 q 361 900 361 851 q 327 981 361 947 q 246 1014 293 1014 q 165 981 199 1014 q 131 900 131 947 q 164 818 131 851 q 246 785 197 785 m 513 785 q 594 818 561 785 q 626 900 626 851 q 593 981 626 947 q 513 1014 560 1014 q 431 981 464 1014 q 397 900 397 949 q 431 818 397 851 q 513 785 464 785 z "},"°":{"ha":365,"x_min":75,"x_max":364,"o":"m 364 835 q 322 937 364 894 q 219 979 279 979 q 117 937 160 979 q 75 835 75 894 q 117 733 75 775 q 219 690 160 690 q 322 733 279 690 q 364 835 364 775 m 219 794 q 179 835 179 794 q 219 875 179 875 q 260 835 260 875 q 219 794 260 794 z "},"®":{"ha":1068,"x_min":75,"x_max":1069,"o":"m 572 979 q 925 835 781 979 q 1069 482 1069 690 q 925 129 1069 274 q 572 -15 781 -15 q 219 129 364 -15 q 75 482 75 274 q 219 835 75 690 q 572 979 364 979 m 572 792 q 351 703 440 792 q 263 482 263 614 q 352 262 263 351 q 572 172 442 172 q 792 262 703 172 q 882 482 882 351 q 792 702 882 613 q 572 792 703 792 m 615 383 q 671 329 618 329 q 718 282 718 329 q 671 235 718 235 q 564 279 610 235 q 521 385 518 324 l 522 424 q 536 456 522 442 q 568 471 550 471 q 628 495 603 471 q 653 554 653 519 q 628 613 653 589 q 568 638 603 638 q 509 613 533 638 q 485 554 485 589 l 485 282 q 438 236 485 236 q 392 282 392 236 l 392 554 q 443 680 392 628 q 568 732 494 732 q 694 680 642 732 q 746 554 746 628 q 710 447 746 494 q 615 383 674 399 z "},"©":{"ha":1068,"x_min":75,"x_max":1069,"o":"m 572 979 q 925 835 781 979 q 1069 482 1069 690 q 925 129 1069 274 q 572 -15 781 -15 q 219 129 364 -15 q 75 482 75 274 q 219 835 75 690 q 572 979 364 979 m 572 792 q 351 703 440 792 q 263 482 263 614 q 352 262 263 351 q 572 172 442 172 q 792 262 703 172 q 882 482 882 351 q 792 702 882 613 q 572 792 703 792 m 588 233 q 411 306 483 233 q 339 482 339 378 q 411 658 339 586 q 588 731 483 731 q 633 683 633 731 q 588 638 633 638 q 477 592 522 638 q 432 482 432 547 q 477 372 432 417 q 588 328 522 328 q 633 281 633 328 q 588 233 633 233 z "},"™":{"ha":863,"x_min":75,"x_max":863,"o":"m 75 693 l 75 932 q 122 979 75 979 q 169 932 169 979 l 169 896 l 286 896 q 333 849 333 896 q 286 801 333 801 l 169 801 l 169 693 q 185 653 169 669 q 225 636 201 636 l 313 636 q 352 653 336 636 q 368 693 368 669 l 368 742 q 412 848 368 804 q 518 892 456 892 q 615 856 574 892 q 713 892 657 892 q 819 848 775 892 q 863 742 863 804 l 863 585 q 815 538 863 538 q 769 585 769 538 l 769 742 q 753 781 769 765 q 713 797 736 797 q 673 781 689 797 q 657 742 657 765 l 657 585 q 610 538 657 538 q 563 585 563 538 l 563 775 q 518 797 546 797 q 478 781 494 797 q 463 742 463 765 l 463 665 q 417 572 463 604 q 313 543 376 543 l 225 543 q 119 587 163 543 q 75 693 75 631 z "},"≠":{"ha":1532,"x_min":40,"x_max":1600,"o":"m 1554 722 q 1600 599 1600 661 q 1536 461 1600 521 q 1543 425 1543 442 q 1451 349 1543 361 q 1453 326 1453 338 q 1332 201 1453 225 q 1203 92 1314 92 q 1068 124 1140 92 q 1068 122 1068 122 q 1056 131 1063 125 q 951 53 1003 92 q 836 4 885 4 q 560 167 726 4 l 560 165 q 385 122 465 122 q 239 167 303 122 q 163 254 190 201 q 143 313 138 299 q 40 397 76 349 q 186 447 149 396 q 71 576 96 447 q 253 728 208 650 q 63 836 107 714 q 374 1032 314 885 q 532 1308 418 1188 q 811 1364 678 1464 q 885 1369 849 1369 q 1304 1126 1136 1369 q 1421 883 1374 1025 q 1432 786 1432 840 q 1413 654 1432 718 q 1483 626 1453 626 q 1554 722 1543 626 m 1208 699 q 1150 844 1190 774 q 861 1138 1053 1014 q 644 1018 710 1143 q 608 892 617 965 q 597 789 607 836 q 638 792 615 792 q 778 740 742 792 q 754 735 771 735 q 671 753 724 735 q 593 769 626 771 q 564 689 581 724 q 472 583 525 604 q 438 557 464 572 q 531 317 472 390 q 669 157 626 197 q 836 75 758 75 q 1001 157 914 75 q 1140 318 1044 197 q 1206 493 1196 386 q 1208 699 1208 515 m 1172 744 q 1143 746 1161 738 q 1085 764 1113 764 q 1013 749 1054 764 q 931 729 961 729 q 907 736 914 729 q 1046 786 943 786 q 1092 783 1071 786 q 1129 774 1114 779 q 1172 744 1167 761 m 1142 619 q 1107 603 1125 603 q 1076 617 1090 603 q 1039 638 1061 631 q 1044 614 1044 626 q 1031 581 1044 594 q 997 567 1017 567 q 964 581 978 567 q 950 614 950 594 q 961 643 950 631 q 929 610 929 631 q 932 597 929 604 l 908 604 q 926 632 915 621 q 990 663 951 661 l 990 661 q 997 663 993 663 q 1076 647 1046 664 q 1094 642 1085 642 q 1128 660 1114 642 q 1104 629 1131 635 q 1142 619 1122 614 m 785 603 l 761 596 q 763 607 763 601 q 718 643 763 638 q 728 615 728 631 q 715 583 728 596 q 682 569 701 569 q 649 583 663 569 q 636 615 636 596 q 642 638 636 628 q 618 622 626 632 q 576 597 599 597 q 550 607 563 597 q 579 625 561 607 q 557 646 557 629 q 561 660 557 653 q 597 640 586 640 q 622 653 599 640 q 685 664 644 665 q 729 654 711 661 q 785 603 776 638 m 961 299 l 717 299 q 839 379 758 379 q 961 299 921 379 m 960 285 q 917 213 947 242 q 840 181 882 181 q 765 211 797 181 q 719 285 732 242 l 733 285 q 840 253 774 253 q 940 285 907 253 l 960 285 m 1001 614 q 994 621 1001 621 q 988 614 988 621 q 994 607 988 607 q 1001 614 1001 607 m 997 594 q 985 607 997 607 q 974 594 974 607 q 985 582 974 582 q 997 594 997 582 m 688 614 q 679 621 688 621 q 672 614 672 621 q 679 607 672 607 q 688 614 688 607 m 682 594 q 669 607 682 607 q 658 594 658 607 q 669 582 658 582 q 682 594 682 582 z "},"∞":{"ha":1294,"x_min":94,"x_max":1290,"o":"m 235 1072 q 196 1035 235 1035 q 158 1072 158 1035 q 196 1111 158 1111 q 235 1072 235 1111 m 94 707 q 126 738 94 738 l 128 738 q 165 775 165 738 l 165 982 q 196 1013 165 1013 q 228 982 228 1013 l 228 775 q 199 705 228 733 q 128 676 169 676 l 126 676 q 94 707 94 676 m 450 931 l 392 872 q 369 864 383 864 q 338 894 338 864 q 349 917 338 906 l 381 949 q 369 950 375 950 q 330 934 346 950 q 314 894 314 918 q 330 855 314 871 q 369 839 346 839 l 410 839 q 442 808 442 839 q 410 776 442 776 l 369 776 q 285 810 319 776 q 251 894 251 844 q 285 978 251 944 q 369 1013 319 1013 q 454 976 419 1013 q 464 956 464 967 q 450 931 464 940 m 588 942 q 584 938 588 942 q 581 922 581 933 l 581 868 q 554 803 581 829 q 489 778 528 778 q 458 810 458 778 q 488 840 458 835 q 518 869 518 846 l 518 922 q 544 986 518 960 q 608 1013 571 1013 q 640 982 640 1013 q 610 951 640 953 q 588 942 596 950 m 715 942 q 711 938 715 942 q 707 922 707 933 l 707 868 q 681 804 707 831 q 617 778 654 778 q 586 810 586 778 q 615 840 586 835 q 644 869 644 846 l 646 878 l 646 922 q 672 986 646 960 q 736 1013 699 1013 q 767 982 767 1013 q 738 951 767 953 q 715 942 724 950 m 861 1072 q 822 1035 861 1035 q 785 1072 785 1035 q 822 1111 785 1111 q 861 1072 861 1111 m 853 982 q 822 1013 853 1013 q 790 982 790 1013 l 790 808 q 822 778 790 778 q 853 808 853 778 l 853 982 m 997 950 q 958 934 974 950 q 942 894 942 918 q 997 840 942 840 q 1028 808 1028 840 q 997 778 1028 778 q 914 812 949 778 q 879 894 879 846 q 913 978 879 944 q 997 1013 947 1013 q 1028 982 1028 1013 q 997 950 1028 950 m 1171 776 q 1088 811 1122 776 q 1053 894 1053 846 q 1087 978 1053 944 q 1171 1013 1121 1013 q 1255 978 1221 1013 q 1289 894 1289 944 l 1289 808 q 1257 776 1289 776 q 1226 808 1226 776 l 1226 894 q 1210 934 1226 918 q 1171 950 1194 950 q 1131 934 1147 950 q 1115 894 1115 918 q 1131 855 1115 871 q 1171 839 1147 839 q 1203 808 1203 839 q 1171 776 1203 776 m 261 254 q 142 303 190 254 q 94 422 94 351 q 143 540 94 492 q 261 589 192 589 q 379 540 331 589 q 428 421 428 490 l 428 299 q 383 254 428 254 q 340 299 340 254 l 340 421 q 317 477 340 454 q 261 500 294 500 q 206 478 228 500 q 183 422 183 456 q 206 366 183 389 q 261 343 228 343 q 306 299 306 343 q 261 254 306 254 m 551 676 l 551 299 q 507 256 551 256 q 464 299 464 256 l 464 676 q 507 719 464 719 q 551 676 551 719 m 753 589 q 872 540 824 589 q 919 421 919 492 q 871 303 919 351 q 753 256 822 256 q 635 304 683 256 q 588 422 588 353 l 588 678 q 631 721 588 721 q 675 678 675 721 l 675 422 q 697 366 675 389 q 753 343 719 343 q 809 365 786 343 q 832 421 832 388 q 809 477 832 454 q 753 500 786 500 q 710 544 710 500 q 753 589 710 589 m 1122 254 q 1003 303 1051 254 q 956 422 956 351 q 1004 540 956 492 q 1122 589 1053 589 q 1240 540 1192 589 q 1289 421 1289 490 l 1289 299 q 1244 254 1289 254 q 1200 299 1200 254 l 1200 421 q 1178 477 1200 454 q 1122 500 1156 500 q 1067 478 1089 500 q 1044 422 1044 456 q 1067 366 1044 389 q 1122 343 1089 343 q 1167 299 1167 343 q 1122 254 1167 254 m 135 157 q 114 138 135 138 q 94 157 94 138 q 114 178 94 178 q 135 157 135 178 m 131 110 q 114 126 131 126 q 97 110 97 126 l 97 17 q 114 0 97 0 q 131 17 131 0 l 131 110 m 214 88 q 210 78 210 83 l 210 49 q 195 15 210 29 q 161 1 181 1 q 144 17 144 1 q 160 33 144 31 q 176 49 176 36 l 176 78 q 225 126 176 126 q 242 110 242 126 q 238 97 242 103 q 214 88 229 97 m 392 126 q 436 108 418 126 q 454 63 454 89 q 435 19 454 38 q 392 0 417 0 q 347 18 365 0 q 329 63 329 36 l 329 160 q 344 176 329 176 q 361 160 361 176 l 361 63 q 392 33 361 33 q 421 63 421 33 q 392 93 421 93 q 375 108 375 93 q 392 126 375 126 m 574 82 l 542 50 q 531 46 538 46 q 514 63 514 46 q 518 74 514 68 l 536 92 q 529 93 533 93 q 500 63 500 93 q 531 33 500 33 l 551 33 q 568 17 568 33 q 551 0 568 0 l 531 0 q 485 18 504 0 q 467 63 467 36 q 485 108 467 89 q 531 126 504 126 q 575 107 557 126 q 581 94 581 101 q 574 82 581 88 m 656 0 q 611 18 629 0 q 593 63 593 36 q 611 108 593 89 q 656 126 629 126 q 701 108 682 126 q 719 63 719 89 l 719 17 q 701 0 719 0 q 686 17 686 0 l 686 63 q 656 93 686 93 q 626 63 626 93 q 656 33 626 33 q 672 17 672 33 q 656 0 672 0 m 765 108 l 765 54 q 785 33 765 33 q 806 54 806 33 l 806 110 q 822 126 806 126 q 839 110 839 126 l 839 54 q 823 16 839 32 q 785 0 807 0 q 747 16 763 0 q 732 54 732 32 l 732 108 q 749 126 732 126 q 765 108 765 126 m 957 53 q 942 15 957 31 q 904 0 926 0 q 867 15 882 0 q 851 53 851 31 l 851 138 q 868 154 851 154 q 885 138 885 154 l 885 125 l 942 125 q 957 108 957 125 q 942 92 957 92 l 885 92 l 885 53 q 904 33 885 33 q 924 53 924 33 l 924 56 q 940 72 924 72 q 957 56 957 72 l 957 53 m 1008 157 q 988 138 1008 138 q 967 157 967 138 q 988 178 967 178 q 1008 157 1008 178 m 1004 110 q 988 126 1004 126 q 971 110 971 126 l 971 17 q 988 0 971 0 q 1004 17 1004 0 l 1004 110 m 1108 54 l 1051 54 l 1051 17 q 1035 0 1051 0 q 1018 17 1018 0 l 1018 122 q 1033 160 1018 144 q 1071 176 1049 176 q 1108 160 1093 176 q 1124 122 1124 144 l 1124 121 q 1107 104 1124 104 q 1090 121 1090 104 l 1090 122 q 1071 143 1090 143 q 1051 122 1051 143 l 1051 88 l 1108 88 q 1125 71 1125 88 q 1108 54 1125 54 m 1171 108 l 1171 54 q 1190 33 1171 33 q 1210 54 1210 33 l 1210 110 q 1226 126 1210 126 q 1243 110 1243 126 l 1243 54 q 1228 16 1243 32 q 1190 0 1213 0 q 1153 16 1168 0 q 1138 54 1138 32 l 1138 108 q 1154 126 1138 126 q 1171 108 1171 126 m 1290 158 l 1290 17 q 1274 0 1290 0 q 1257 17 1257 0 l 1257 158 q 1274 175 1257 175 q 1290 158 1290 175 z "},"±":{"ha":608,"x_min":76,"x_max":610,"o":"m 169 188 l 517 188 q 584 162 558 188 q 610 94 610 136 q 517 0 610 0 l 169 0 q 102 26 128 0 q 76 94 76 53 q 102 162 76 136 q 169 188 128 188 m 249 318 l 249 397 l 169 397 q 102 424 128 397 q 76 492 76 450 q 102 559 76 533 q 169 585 128 585 l 249 585 l 249 664 q 343 757 249 757 q 410 731 385 757 q 436 664 436 706 l 436 585 l 515 585 q 583 559 557 585 q 608 492 608 533 q 515 397 608 397 l 436 397 l 436 318 q 410 251 436 276 q 343 225 385 225 q 275 251 301 225 q 249 318 249 276 z "},"≤":{"ha":496,"x_min":76,"x_max":496,"o":"m 282 665 l 160 542 q 119 464 119 501 q 160 386 119 433 q 282 263 168 376 q 349 233 311 233 q 415 263 386 233 q 444 329 444 292 q 415 394 444 365 l 346 464 l 415 533 q 444 599 444 563 q 415 665 444 636 q 349 694 386 694 q 282 665 311 694 m 169 188 l 403 188 q 470 162 444 188 q 496 94 496 136 q 403 0 496 0 l 169 0 q 102 26 128 0 q 76 94 76 53 q 102 162 76 136 q 169 188 128 188 z "},"≥":{"ha":496,"x_min":76,"x_max":496,"o":"m 281 651 l 403 528 q 443 450 443 488 q 403 372 443 419 q 281 249 394 363 q 214 219 251 219 q 147 249 176 219 q 118 315 118 278 q 147 381 118 351 l 217 450 l 147 519 q 118 585 118 549 q 147 651 118 622 q 214 681 176 681 q 281 651 251 681 m 169 188 l 403 188 q 470 162 444 188 q 496 94 496 136 q 403 0 496 0 l 169 0 q 102 26 128 0 q 76 94 76 53 q 102 162 76 136 q 169 188 128 188 z "},"µ":{"ha":943,"x_min":75,"x_max":942,"o":"m 581 69 q 375 -12 494 -12 q 263 8 315 -12 l 263 -226 q 237 -294 263 -268 q 169 -319 211 -319 q 101 -294 128 -319 q 75 -226 75 -268 l 75 601 q 101 669 75 643 q 168 694 126 694 q 263 601 263 694 l 263 288 q 295 208 263 240 q 375 175 328 175 q 454 208 422 175 q 486 288 486 240 l 486 601 q 513 669 486 643 q 581 694 539 694 q 648 669 622 694 q 674 601 674 643 l 674 288 q 706 208 674 240 q 786 175 739 175 l 847 175 q 915 149 889 175 q 942 81 942 122 q 915 13 942 39 q 847 -12 889 -12 l 786 -12 q 581 69 667 -12 z "},"∂":{"ha":1532,"x_min":40,"x_max":1600,"o":"m 1554 722 q 1600 599 1600 661 q 1536 461 1600 521 q 1543 425 1543 442 q 1451 349 1543 361 q 1453 326 1453 338 q 1332 201 1453 225 q 1203 92 1314 92 q 1068 124 1140 92 q 1068 122 1068 122 q 1056 131 1063 125 q 951 53 1003 92 q 836 4 885 4 q 560 167 726 4 l 560 165 q 385 122 465 122 q 239 167 303 122 q 163 254 190 201 q 143 313 138 299 q 40 397 76 349 q 186 447 149 396 q 71 576 96 447 q 253 728 208 650 q 63 836 107 714 q 374 1032 314 885 q 532 1308 418 1188 q 811 1364 678 1464 q 885 1369 849 1369 q 1304 1126 1136 1369 q 1421 883 1374 1025 q 1432 786 1432 840 q 1413 654 1432 718 q 1483 626 1453 626 q 1554 722 1543 626 m 1208 699 q 1150 844 1190 774 q 861 1138 1053 1014 q 644 1018 710 1143 q 608 892 617 965 q 597 789 607 836 q 638 792 615 792 q 778 740 742 792 q 754 735 771 735 q 671 753 724 735 q 593 769 626 771 q 564 689 581 724 q 472 583 525 604 q 438 557 464 572 q 531 317 472 390 q 669 157 626 197 q 836 75 758 75 q 1001 157 914 75 q 1140 318 1044 197 q 1206 493 1196 386 q 1208 699 1208 515 m 1172 744 q 1143 746 1161 738 q 1085 764 1113 764 q 1013 749 1054 764 q 931 729 961 729 q 907 736 914 729 q 1046 786 943 786 q 1092 783 1071 786 q 1129 774 1114 779 q 1172 744 1167 761 m 1142 619 q 1107 603 1125 603 q 1076 617 1090 603 q 1039 638 1061 631 q 1044 614 1044 626 q 1031 581 1044 594 q 997 567 1017 567 q 964 581 978 567 q 950 614 950 594 q 961 643 950 631 q 929 610 929 631 q 932 597 929 604 l 908 604 q 926 632 915 621 q 990 663 951 661 l 990 661 q 997 663 993 663 q 1076 647 1046 664 q 1094 642 1085 642 q 1128 660 1114 642 q 1104 629 1131 635 q 1142 619 1122 614 m 785 603 l 761 596 q 763 607 763 601 q 718 643 763 638 q 728 615 728 631 q 715 583 728 596 q 682 569 701 569 q 649 583 663 569 q 636 615 636 596 q 642 638 636 628 q 618 622 626 632 q 576 597 599 597 q 550 607 563 597 q 579 625 561 607 q 557 646 557 629 q 561 660 557 653 q 597 640 586 640 q 622 653 599 640 q 685 664 644 665 q 729 654 711 661 q 785 603 776 638 m 961 299 l 717 299 q 839 379 758 379 q 961 299 921 379 m 960 285 q 917 213 947 242 q 840 181 882 181 q 765 211 797 181 q 719 285 732 242 l 733 285 q 840 253 774 253 q 940 285 907 253 l 960 285 m 1001 614 q 994 621 1001 621 q 988 614 988 621 q 994 607 988 607 q 1001 614 1001 607 m 997 594 q 985 607 997 607 q 974 594 974 607 q 985 582 974 582 q 997 594 997 582 m 688 614 q 679 621 688 621 q 672 614 672 621 q 679 607 672 607 q 688 614 688 607 m 682 594 q 669 607 682 607 q 658 594 658 607 q 669 582 658 582 q 682 594 682 582 z "},"∑":{"ha":1532,"x_min":40,"x_max":1600,"o":"m 1554 722 q 1600 599 1600 661 q 1536 461 1600 521 q 1543 425 1543 442 q 1451 349 1543 361 q 1453 326 1453 338 q 1332 201 1453 225 q 1203 92 1314 92 q 1068 124 1140 92 q 1068 122 1068 122 q 1056 131 1063 125 q 951 53 1003 92 q 836 4 885 4 q 560 167 726 4 l 560 165 q 385 122 465 122 q 239 167 303 122 q 163 254 190 201 q 143 313 138 299 q 40 397 76 349 q 186 447 149 396 q 71 576 96 447 q 253 728 208 650 q 63 836 107 714 q 374 1032 314 885 q 532 1308 418 1188 q 811 1364 678 1464 q 885 1369 849 1369 q 1304 1126 1136 1369 q 1421 883 1374 1025 q 1432 786 1432 840 q 1413 654 1432 718 q 1483 626 1453 626 q 1554 722 1543 626 m 1208 699 q 1150 844 1190 774 q 861 1138 1053 1014 q 644 1018 710 1143 q 608 892 617 965 q 597 789 607 836 q 638 792 615 792 q 778 740 742 792 q 754 735 771 735 q 671 753 724 735 q 593 769 626 771 q 564 689 581 724 q 472 583 525 604 q 438 557 464 572 q 531 317 472 390 q 669 157 626 197 q 836 75 758 75 q 1001 157 914 75 q 1140 318 1044 197 q 1206 493 1196 386 q 1208 699 1208 515 m 1172 744 q 1143 746 1161 738 q 1085 764 1113 764 q 1013 749 1054 764 q 931 729 961 729 q 907 736 914 729 q 1046 786 943 786 q 1092 783 1071 786 q 1129 774 1114 779 q 1172 744 1167 761 m 1142 619 q 1107 603 1125 603 q 1076 617 1090 603 q 1039 638 1061 631 q 1044 614 1044 626 q 1031 581 1044 594 q 997 567 1017 567 q 964 581 978 567 q 950 614 950 594 q 961 643 950 631 q 929 610 929 631 q 932 597 929 604 l 908 604 q 926 632 915 621 q 990 663 951 661 l 990 661 q 997 663 993 663 q 1076 647 1046 664 q 1094 642 1085 642 q 1128 660 1114 642 q 1104 629 1131 635 q 1142 619 1122 614 m 785 603 l 761 596 q 763 607 763 601 q 718 643 763 638 q 728 615 728 631 q 715 583 728 596 q 682 569 701 569 q 649 583 663 569 q 636 615 636 596 q 642 638 636 628 q 618 622 626 632 q 576 597 599 597 q 550 607 563 597 q 579 625 561 607 q 557 646 557 629 q 561 660 557 653 q 597 640 586 640 q 622 653 599 640 q 685 664 644 665 q 729 654 711 661 q 785 603 776 638 m 961 299 l 717 299 q 839 379 758 379 q 961 299 921 379 m 960 285 q 917 213 947 242 q 840 181 882 181 q 765 211 797 181 q 719 285 732 242 l 733 285 q 840 253 774 253 q 940 285 907 253 l 960 285 m 1001 614 q 994 621 1001 621 q 988 614 988 621 q 994 607 988 607 q 1001 614 1001 607 m 997 594 q 985 607 997 607 q 974 594 974 607 q 985 582 974 582 q 997 594 997 582 m 688 614 q 679 621 688 621 q 672 614 672 621 q 679 607 672 607 q 688 614 688 607 m 682 594 q 669 607 682 607 q 658 594 658 607 q 669 582 658 582 q 682 594 682 582 z "},"∏":{"ha":704,"x_min":76,"x_max":704,"o":"m 517 792 l 411 792 l 411 81 q 385 13 411 39 q 318 -12 360 -12 q 250 13 276 -12 q 224 81 224 39 l 224 792 l 171 792 q 103 818 129 792 q 76 886 76 844 q 103 953 76 928 q 171 979 129 979 l 614 979 q 679 953 654 979 q 704 886 704 926 l 704 81 q 678 13 704 39 q 611 -12 653 -12 q 543 13 569 -12 q 517 81 517 39 l 517 792 z "},"π":{"ha":704,"x_min":76,"x_max":704,"o":"m 517 504 l 411 504 l 411 81 q 385 13 411 39 q 318 -12 360 -12 q 250 13 276 -12 q 224 81 224 39 l 224 504 l 171 504 q 103 531 131 504 q 76 599 76 558 q 103 666 76 640 q 171 692 129 692 l 614 692 q 679 665 654 692 q 704 599 704 639 l 704 81 q 678 13 704 39 q 611 -12 653 -12 q 543 13 569 -12 q 517 81 517 39 l 517 504 z "},"∫":{"ha":529,"x_min":-193,"x_max":529,"o":"m 436 792 l 375 792 q 295 759 328 792 q 263 679 263 726 l 263 0 q 176 -213 263 -126 q -37 -300 89 -300 l -99 -300 q -167 -274 -140 -300 q -193 -206 -193 -247 q -167 -138 -193 -164 q -99 -112 -140 -112 l -37 -112 q 42 -80 10 -112 q 75 0 75 -47 l 75 679 q 162 892 75 806 q 375 979 249 979 l 436 979 q 503 953 478 979 q 529 885 529 926 q 503 817 529 843 q 436 792 478 792 z "},"Ω":{"ha":1532,"x_min":40,"x_max":1600,"o":"m 1554 722 q 1600 599 1600 661 q 1536 461 1600 521 q 1543 425 1543 442 q 1451 349 1543 361 q 1453 326 1453 338 q 1332 201 1453 225 q 1203 92 1314 92 q 1068 124 1140 92 q 1068 122 1068 122 q 1056 131 1063 125 q 951 53 1003 92 q 836 4 885 4 q 560 167 726 4 l 560 165 q 385 122 465 122 q 239 167 303 122 q 163 254 190 201 q 143 313 138 299 q 40 397 76 349 q 186 447 149 396 q 71 576 96 447 q 253 728 208 650 q 63 836 107 714 q 374 1032 314 885 q 532 1308 418 1188 q 811 1364 678 1464 q 885 1369 849 1369 q 1304 1126 1136 1369 q 1421 883 1374 1025 q 1432 786 1432 840 q 1413 654 1432 718 q 1483 626 1453 626 q 1554 722 1543 626 m 1208 699 q 1150 844 1190 774 q 861 1138 1053 1014 q 644 1018 710 1143 q 608 892 617 965 q 597 789 607 836 q 638 792 615 792 q 778 740 742 792 q 754 735 771 735 q 671 753 724 735 q 593 769 626 771 q 564 689 581 724 q 472 583 525 604 q 438 557 464 572 q 531 317 472 390 q 669 157 626 197 q 836 75 758 75 q 1001 157 914 75 q 1140 318 1044 197 q 1206 493 1196 386 q 1208 699 1208 515 m 1172 744 q 1143 746 1161 738 q 1085 764 1113 764 q 1013 749 1054 764 q 931 729 961 729 q 907 736 914 729 q 1046 786 943 786 q 1092 783 1071 786 q 1129 774 1114 779 q 1172 744 1167 761 m 1142 619 q 1107 603 1125 603 q 1076 617 1090 603 q 1039 638 1061 631 q 1044 614 1044 626 q 1031 581 1044 594 q 997 567 1017 567 q 964 581 978 567 q 950 614 950 594 q 961 643 950 631 q 929 610 929 631 q 932 597 929 604 l 908 604 q 926 632 915 621 q 990 663 951 661 l 990 661 q 997 663 993 663 q 1076 647 1046 664 q 1094 642 1085 642 q 1128 660 1114 642 q 1104 629 1131 635 q 1142 619 1122 614 m 785 603 l 761 596 q 763 607 763 601 q 718 643 763 638 q 728 615 728 631 q 715 583 728 596 q 682 569 701 569 q 649 583 663 569 q 636 615 636 596 q 642 638 636 628 q 618 622 626 632 q 576 597 599 597 q 550 607 563 597 q 579 625 561 607 q 557 646 557 629 q 561 660 557 653 q 597 640 586 640 q 622 653 599 640 q 685 664 644 665 q 729 654 711 661 q 785 603 776 638 m 961 299 l 717 299 q 839 379 758 379 q 961 299 921 379 m 960 285 q 917 213 947 242 q 840 181 882 181 q 765 211 797 181 q 719 285 732 242 l 733 285 q 840 253 774 253 q 940 285 907 253 l 960 285 m 1001 614 q 994 621 1001 621 q 988 614 988 621 q 994 607 988 607 q 1001 614 1001 607 m 997 594 q 985 607 997 607 q 974 594 974 607 q 985 582 974 582 q 997 594 997 582 m 688 614 q 679 621 688 621 q 672 614 672 621 q 679 607 672 607 q 688 614 688 607 m 682 594 q 669 607 682 607 q 658 594 658 607 q 669 582 658 582 q 682 594 682 582 z "},"¬":{"ha":1876,"x_min":8,"x_max":1872,"o":"m 947 556 q 916 477 947 508 q 838 446 885 446 q 760 478 792 446 q 728 556 728 510 q 729 572 728 563 q 694 578 715 571 q 674 597 674 585 q 681 599 674 601 q 697 597 689 597 q 738 608 717 597 q 686 643 686 626 q 693 664 686 651 q 719 643 701 643 q 739 649 728 643 q 839 667 778 669 q 916 633 885 665 q 947 556 947 601 m 1818 690 q 1872 574 1872 633 q 1797 442 1872 500 q 1806 408 1806 424 q 1696 335 1806 347 q 1697 313 1697 324 q 1551 194 1697 217 q 1399 90 1532 90 q 1238 119 1324 90 l 1238 118 q 1222 126 1231 122 q 1097 51 1181 101 q 960 7 1021 7 q 731 92 869 7 q 535 244 617 161 q 299 150 401 150 q 192 189 235 150 q 128 274 128 222 q 132 300 128 289 q 8 381 51 335 q 183 429 138 381 q 46 551 75 428 q 263 696 210 622 q 36 800 89 683 q 408 986 336 846 q 597 1285 467 1149 q 819 1404 713 1404 q 929 1372 875 1404 q 1501 1104 1274 1367 q 1660 844 1596 994 q 1672 751 1672 803 q 1649 626 1672 686 q 1735 599 1697 599 q 1818 690 1806 599 m 1419 668 q 1346 847 1396 765 q 990 1139 1225 1046 q 689 851 722 1100 q 504 547 654 624 q 463 533 492 542 q 579 322 490 426 q 760 160 656 229 q 960 92 864 92 q 1157 161 1054 92 q 1324 306 1226 208 q 1410 472 1390 372 q 1419 668 1419 524 m 1235 733 q 1228 732 1231 732 q 1211 738 1219 732 q 1154 757 1183 757 q 1101 749 1136 757 q 1047 742 1067 742 q 1019 749 1026 742 q 1108 779 1046 779 q 1203 761 1164 779 q 1235 733 1232 747 m 1246 599 q 1253 597 1253 601 q 1232 578 1253 585 q 1197 572 1211 571 l 1197 556 q 1166 477 1197 508 q 1088 446 1135 446 q 1010 478 1042 446 q 978 556 978 510 q 1010 633 978 601 q 1088 667 1042 665 q 1188 649 1149 669 q 1207 643 1199 643 q 1233 664 1225 643 q 1242 643 1242 651 q 1190 608 1242 614 q 1231 597 1211 597 q 1246 599 1238 597 m 929 757 q 896 749 921 749 q 848 755 879 749 q 800 761 817 761 q 738 739 767 761 q 714 733 725 729 q 774 774 718 756 q 847 785 810 785 q 929 757 903 785 m 1092 288 l 831 288 q 960 364 875 364 q 1092 288 1049 364 m 1089 274 q 1041 203 1076 232 q 963 174 1006 174 q 883 202 918 174 q 833 274 847 231 l 849 274 q 963 243 892 243 q 1069 274 1033 243 l 1089 274 m 1092 621 q 1072 640 1092 640 q 1051 621 1051 640 q 1072 601 1051 601 q 1092 621 1092 601 m 1028 601 q 1017 613 1028 613 q 1006 601 1006 613 q 1017 590 1006 590 q 1028 601 1028 590 m 1088 553 q 1051 589 1088 589 q 1015 553 1015 589 q 1051 517 1015 517 q 1088 553 1088 517 m 838 621 q 818 640 838 640 q 799 621 799 640 q 818 601 799 601 q 838 621 838 601 m 774 601 q 763 613 774 613 q 753 601 753 613 q 763 590 753 590 q 774 601 774 590 m 835 553 q 799 589 835 589 q 763 553 763 589 q 799 517 763 517 q 835 553 835 517 z "},"√":{"ha":1631,"x_min":51,"x_max":1610,"o":"m 1564 764 q 1610 640 1610 703 q 1547 503 1610 563 q 1554 467 1554 483 q 1463 390 1554 403 q 1464 368 1464 379 q 1342 243 1464 267 q 1214 133 1325 133 q 1078 165 1151 133 q 1079 164 1079 164 q 1065 172 1072 167 q 961 94 1014 133 q 847 46 896 46 q 569 208 736 46 l 571 207 q 396 164 476 164 q 250 208 313 164 q 172 296 201 243 q 154 354 149 340 q 51 439 86 390 q 197 489 158 438 q 82 618 107 489 q 263 769 218 692 q 74 878 118 756 q 385 1074 325 926 q 543 1350 429 1229 q 821 1406 688 1506 q 896 1411 860 1411 q 1314 1168 1147 1411 q 1432 925 1385 1067 q 1442 828 1442 882 q 1422 696 1442 760 q 1494 668 1464 668 q 1564 764 1554 668 m 1219 740 q 1160 886 1200 815 q 872 1179 1063 1056 q 654 1060 721 1185 q 619 933 628 1007 q 607 831 617 878 q 649 833 626 833 q 789 782 751 833 q 765 776 781 776 q 682 794 733 776 q 603 811 636 813 q 575 731 590 765 q 483 625 536 646 q 449 599 475 614 q 542 358 482 432 q 681 199 636 239 q 847 117 768 117 q 1011 199 925 117 q 1151 360 1054 239 q 1217 535 1206 428 q 1219 740 1219 557 m 1183 786 q 1154 788 1171 779 q 1096 806 1122 806 q 1024 790 1065 806 q 942 771 972 771 q 917 778 925 771 q 1056 828 954 828 q 1103 824 1082 828 q 1140 815 1125 821 q 1183 786 1178 803 m 1151 661 q 1118 644 1136 644 q 1087 659 1101 644 q 1047 679 1072 674 q 1051 661 1051 671 q 1008 618 1051 618 q 965 661 965 618 q 972 686 965 675 q 939 651 939 672 q 943 639 939 646 l 919 646 q 936 674 926 663 q 1000 704 963 703 l 1000 703 q 1008 704 1004 704 q 1088 689 1057 706 q 1106 683 1096 683 q 1138 701 1124 683 q 1114 671 1142 676 q 1151 661 1133 656 m 794 644 l 771 638 q 775 651 775 644 q 738 685 775 678 q 744 661 744 674 q 701 618 744 618 q 658 661 658 618 q 663 679 658 671 q 622 658 638 674 q 588 643 606 643 q 558 654 572 643 q 589 667 576 649 q 569 690 569 671 q 571 701 569 696 q 604 683 585 683 q 622 689 614 683 q 701 704 653 706 q 715 701 708 704 q 794 644 788 692 m 972 340 l 728 340 q 849 421 769 421 q 972 340 931 421 m 969 326 q 926 253 958 283 q 851 222 893 222 q 776 253 808 222 q 731 326 743 283 l 743 326 q 851 294 785 294 q 951 326 918 294 l 969 326 z "},"≈":{"ha":785,"x_min":75,"x_max":788,"o":"m 693 -526 q 761 -552 735 -526 q 788 -619 788 -578 q 761 -687 788 -661 q 693 -714 735 -714 l 375 -714 q 162 -627 249 -714 q 75 -414 75 -540 l 75 -399 q 177 -147 75 -250 q 428 -43 279 -43 l 549 -43 q 582 -28 568 -43 q 596 6 596 -14 l 596 340 q 547 458 596 410 q 429 507 499 507 q 311 458 360 507 q 263 340 263 410 q 311 222 263 271 q 429 172 360 172 q 497 147 471 172 q 524 79 524 121 q 497 11 524 38 q 429 -15 471 -15 q 177 88 279 -15 q 75 340 75 190 q 177 592 75 490 q 429 694 279 694 q 681 592 579 694 q 783 340 783 490 l 783 6 q 715 -162 783 -93 q 549 -231 646 -231 l 429 -231 q 311 -280 360 -231 q 263 -399 263 -329 l 263 -414 q 295 -494 263 -461 q 375 -526 328 -526 l 693 -526 z "},"Δ":{"ha":1532,"x_min":40,"x_max":1600,"o":"m 1554 722 q 1600 599 1600 661 q 1536 461 1600 521 q 1543 425 1543 442 q 1451 349 1543 361 q 1453 326 1453 338 q 1332 201 1453 225 q 1203 92 1314 92 q 1068 124 1140 92 q 1068 122 1068 122 q 1056 131 1063 125 q 951 53 1003 92 q 836 4 885 4 q 560 167 726 4 l 560 165 q 385 122 465 122 q 239 167 303 122 q 163 254 190 201 q 143 313 138 299 q 40 397 76 349 q 186 447 149 396 q 71 576 96 447 q 253 728 208 650 q 63 836 107 714 q 374 1032 314 885 q 532 1308 418 1188 q 811 1364 678 1464 q 885 1369 849 1369 q 1304 1126 1136 1369 q 1421 883 1374 1025 q 1432 786 1432 840 q 1413 654 1432 718 q 1483 626 1453 626 q 1554 722 1543 626 m 1208 699 q 1150 844 1190 774 q 861 1138 1053 1014 q 644 1018 710 1143 q 608 892 617 965 q 597 789 607 836 q 638 792 615 792 q 778 740 742 792 q 754 735 771 735 q 671 753 724 735 q 593 769 626 771 q 564 689 581 724 q 472 583 525 604 q 438 557 464 572 q 531 317 472 390 q 669 157 626 197 q 836 75 758 75 q 1001 157 914 75 q 1140 318 1044 197 q 1206 493 1196 386 q 1208 699 1208 515 m 1172 744 q 1143 746 1161 738 q 1085 764 1113 764 q 1013 749 1054 764 q 931 729 961 729 q 907 736 914 729 q 1046 786 943 786 q 1092 783 1071 786 q 1129 774 1114 779 q 1172 744 1167 761 m 1142 619 q 1107 603 1125 603 q 1076 617 1090 603 q 1039 638 1061 631 q 1044 614 1044 626 q 1031 581 1044 594 q 997 567 1017 567 q 964 581 978 567 q 950 614 950 594 q 961 643 950 631 q 929 610 929 631 q 932 597 929 604 l 908 604 q 926 632 915 621 q 990 663 951 661 l 990 661 q 997 663 993 663 q 1076 647 1046 664 q 1094 642 1085 642 q 1128 660 1114 642 q 1104 629 1131 635 q 1142 619 1122 614 m 785 603 l 761 596 q 763 607 763 601 q 718 643 763 638 q 728 615 728 631 q 715 583 728 596 q 682 569 701 569 q 649 583 663 569 q 636 615 636 596 q 642 638 636 628 q 618 622 626 632 q 576 597 599 597 q 550 607 563 597 q 579 625 561 607 q 557 646 557 629 q 561 660 557 653 q 597 640 586 640 q 622 653 599 640 q 685 664 644 665 q 729 654 711 661 q 785 603 776 638 m 961 299 l 717 299 q 839 379 758 379 q 961 299 921 379 m 960 285 q 917 213 947 242 q 840 181 882 181 q 765 211 797 181 q 719 285 732 242 l 733 285 q 840 253 774 253 q 940 285 907 253 l 960 285 m 1001 614 q 994 621 1001 621 q 988 614 988 621 q 994 607 988 607 q 1001 614 1001 607 m 997 594 q 985 607 997 607 q 974 594 974 607 q 985 582 974 582 q 997 594 997 582 m 688 614 q 679 621 688 621 q 672 614 672 621 q 679 607 672 607 q 688 614 688 607 m 682 594 q 669 607 682 607 q 658 594 658 607 q 669 582 658 582 q 682 594 682 582 z "},"À":{"ha":785,"x_min":75,"x_max":996,"o":"m 903 -318 l 896 -318 q 683 -231 769 -318 q 597 -18 597 -144 l 597 311 q 429 269 518 269 q 362 296 388 269 q 336 364 336 322 q 362 431 336 406 q 429 457 388 457 q 548 506 499 457 q 597 625 597 556 q 548 743 597 694 q 429 792 499 792 q 311 743 360 792 q 263 625 263 694 l 263 81 q 236 13 263 39 q 168 -12 210 -12 q 101 13 126 -12 q 75 81 75 39 l 75 625 q 177 877 75 775 q 429 979 279 979 q 682 877 579 979 q 785 625 785 775 l 785 -18 q 817 -98 785 -65 q 896 -131 849 -131 l 903 -131 q 970 -157 944 -131 q 996 -225 996 -183 q 969 -292 996 -265 q 903 -318 943 -318 m 454 1360 q 347 1431 425 1431 q 304 1422 325 1431 q 233 1315 233 1393 q 242 1272 233 1293 l 307 1114 q 413 1043 336 1043 q 457 1053 435 1043 q 528 1158 528 1083 q 519 1203 528 1183 l 454 1360 z "},"Ã":{"ha":785,"x_min":75,"x_max":996,"o":"m 903 -318 l 896 -318 q 683 -231 769 -318 q 597 -18 597 -144 l 597 311 q 429 269 518 269 q 362 296 388 269 q 336 364 336 322 q 362 431 336 406 q 429 457 388 457 q 548 506 499 457 q 597 625 597 556 q 548 743 597 694 q 429 792 499 792 q 311 743 360 792 q 263 625 263 694 l 263 81 q 236 13 263 39 q 168 -12 210 -12 q 101 13 126 -12 q 75 81 75 39 l 75 625 q 177 877 75 775 q 429 979 279 979 q 682 877 579 979 q 785 625 785 775 l 785 -18 q 817 -98 785 -65 q 896 -131 849 -131 l 903 -131 q 970 -157 944 -131 q 996 -225 996 -183 q 969 -292 996 -265 q 903 -318 943 -318 m 218 1232 q 347 1297 276 1297 q 443 1272 385 1297 l 500 1246 q 506 1247 504 1246 q 574 1281 535 1281 q 642 1252 613 1281 q 671 1185 671 1224 q 644 1122 671 1151 q 517 1057 586 1057 q 423 1083 483 1057 q 363 1108 363 1108 q 358 1107 360 1108 q 289 1074 328 1074 q 222 1103 251 1074 q 193 1169 193 1132 q 218 1232 193 1204 z "},"Õ":{"ha":1068,"x_min":75,"x_max":1069,"o":"m 572 979 q 925 835 781 979 q 1069 482 1069 690 q 925 129 1069 274 q 572 -15 781 -15 q 219 129 364 -15 q 75 482 75 274 q 219 835 75 690 q 572 979 364 979 m 572 792 q 351 703 440 792 q 263 482 263 614 q 352 262 263 351 q 572 172 442 172 q 792 262 703 172 q 882 482 882 351 q 792 702 882 613 q 572 792 703 792 m 371 1232 q 500 1297 429 1297 q 596 1272 538 1297 l 653 1246 q 658 1247 657 1246 q 726 1281 688 1281 q 794 1252 765 1281 q 824 1185 824 1224 q 797 1122 824 1151 q 669 1057 739 1057 q 576 1083 636 1057 q 515 1108 515 1108 q 511 1107 513 1108 q 442 1074 481 1074 q 375 1103 404 1074 q 346 1169 346 1132 q 371 1232 346 1204 z "},"÷":{"ha":1532,"x_min":40,"x_max":1600,"o":"m 1554 722 q 1600 599 1600 661 q 1536 461 1600 521 q 1543 425 1543 442 q 1451 349 1543 361 q 1453 326 1453 338 q 1332 201 1453 225 q 1203 92 1314 92 q 1068 124 1140 92 q 1068 122 1068 122 q 1056 131 1063 125 q 951 53 1003 92 q 836 4 885 4 q 560 167 726 4 l 560 165 q 385 122 465 122 q 239 167 303 122 q 163 254 190 201 q 143 313 138 299 q 40 397 76 349 q 186 447 149 396 q 71 576 96 447 q 253 728 208 650 q 63 836 107 714 q 374 1032 314 885 q 532 1308 418 1188 q 811 1364 678 1464 q 885 1369 849 1369 q 1304 1126 1136 1369 q 1421 883 1374 1025 q 1432 786 1432 840 q 1413 654 1432 718 q 1483 626 1453 626 q 1554 722 1543 626 m 1208 699 q 1150 844 1190 774 q 861 1138 1053 1014 q 644 1018 710 1143 q 608 892 617 965 q 597 789 607 836 q 638 792 615 792 q 778 740 742 792 q 754 735 771 735 q 671 753 724 735 q 593 769 626 771 q 564 689 581 724 q 472 583 525 604 q 438 557 464 572 q 531 317 472 390 q 669 157 626 197 q 836 75 758 75 q 1001 157 914 75 q 1140 318 1044 197 q 1206 493 1196 386 q 1208 699 1208 515 m 1172 744 q 1143 746 1161 738 q 1085 764 1113 764 q 1013 749 1054 764 q 931 729 961 729 q 907 736 914 729 q 1046 786 943 786 q 1092 783 1071 786 q 1129 774 1114 779 q 1172 744 1167 761 m 1142 619 q 1107 603 1125 603 q 1076 617 1090 603 q 1039 638 1061 631 q 1044 614 1044 626 q 1031 581 1044 594 q 997 567 1017 567 q 964 581 978 567 q 950 614 950 594 q 961 643 950 631 q 929 610 929 631 q 932 597 929 604 l 908 604 q 926 632 915 621 q 990 663 951 661 l 990 661 q 997 663 993 663 q 1076 647 1046 664 q 1094 642 1085 642 q 1128 660 1114 642 q 1104 629 1131 635 q 1142 619 1122 614 m 785 603 l 761 596 q 763 607 763 601 q 718 643 763 638 q 728 615 728 631 q 715 583 728 596 q 682 569 701 569 q 649 583 663 569 q 636 615 636 596 q 642 638 636 628 q 618 622 626 632 q 576 597 599 597 q 550 607 563 597 q 579 625 561 607 q 557 646 557 629 q 561 660 557 653 q 597 640 586 640 q 622 653 599 640 q 685 664 644 665 q 729 654 711 661 q 785 603 776 638 m 961 299 l 717 299 q 839 379 758 379 q 961 299 921 379 m 960 285 q 917 213 947 242 q 840 181 882 181 q 765 211 797 181 q 719 285 732 242 l 733 285 q 840 253 774 253 q 940 285 907 253 l 960 285 m 1001 614 q 994 621 1001 621 q 988 614 988 621 q 994 607 988 607 q 1001 614 1001 607 m 997 594 q 985 607 997 607 q 974 594 974 607 q 985 582 974 582 q 997 594 997 582 m 688 614 q 679 621 688 621 q 672 614 672 621 q 679 607 672 607 q 688 614 688 607 m 682 594 q 669 607 682 607 q 658 594 658 607 q 669 582 658 582 q 682 594 682 582 z "},"◊":{"ha":1532,"x_min":40,"x_max":1600,"o":"m 1554 722 q 1600 599 1600 661 q 1536 461 1600 521 q 1543 425 1543 442 q 1451 349 1543 361 q 1453 326 1453 338 q 1332 201 1453 225 q 1203 92 1314 92 q 1068 124 1140 92 q 1068 122 1068 122 q 1056 131 1063 125 q 951 53 1003 92 q 836 4 885 4 q 560 167 726 4 l 560 165 q 385 122 465 122 q 239 167 303 122 q 163 254 190 201 q 143 313 138 299 q 40 397 76 349 q 186 447 149 396 q 71 576 96 447 q 253 728 208 650 q 63 836 107 714 q 374 1032 314 885 q 532 1308 418 1188 q 811 1364 678 1464 q 885 1369 849 1369 q 1304 1126 1136 1369 q 1421 883 1374 1025 q 1432 786 1432 840 q 1413 654 1432 718 q 1483 626 1453 626 q 1554 722 1543 626 m 1208 699 q 1150 844 1190 774 q 861 1138 1053 1014 q 644 1018 710 1143 q 608 892 617 965 q 597 789 607 836 q 638 792 615 792 q 778 740 742 792 q 754 735 771 735 q 671 753 724 735 q 593 769 626 771 q 564 689 581 724 q 472 583 525 604 q 438 557 464 572 q 531 317 472 390 q 669 157 626 197 q 836 75 758 75 q 1001 157 914 75 q 1140 318 1044 197 q 1206 493 1196 386 q 1208 699 1208 515 m 1172 744 q 1143 746 1161 738 q 1085 764 1113 764 q 1013 749 1054 764 q 931 729 961 729 q 907 736 914 729 q 1046 786 943 786 q 1092 783 1071 786 q 1129 774 1114 779 q 1172 744 1167 761 m 1142 619 q 1107 603 1125 603 q 1076 617 1090 603 q 1039 638 1061 631 q 1044 614 1044 626 q 1031 581 1044 594 q 997 567 1017 567 q 964 581 978 567 q 950 614 950 594 q 961 643 950 631 q 929 610 929 631 q 932 597 929 604 l 908 604 q 926 632 915 621 q 990 663 951 661 l 990 661 q 997 663 993 663 q 1076 647 1046 664 q 1094 642 1085 642 q 1128 660 1114 642 q 1104 629 1131 635 q 1142 619 1122 614 m 785 603 l 761 596 q 763 607 763 601 q 718 643 763 638 q 728 615 728 631 q 715 583 728 596 q 682 569 701 569 q 649 583 663 569 q 636 615 636 596 q 642 638 636 628 q 618 622 626 632 q 576 597 599 597 q 550 607 563 597 q 579 625 561 607 q 557 646 557 629 q 561 660 557 653 q 597 640 586 640 q 622 653 599 640 q 685 664 644 665 q 729 654 711 661 q 785 603 776 638 m 961 299 l 717 299 q 839 379 758 379 q 961 299 921 379 m 960 285 q 917 213 947 242 q 840 181 882 181 q 765 211 797 181 q 719 285 732 242 l 733 285 q 840 253 774 253 q 940 285 907 253 l 960 285 m 1001 614 q 994 621 1001 621 q 988 614 988 621 q 994 607 988 607 q 1001 614 1001 607 m 997 594 q 985 607 997 607 q 974 594 974 607 q 985 582 974 582 q 997 594 997 582 m 688 614 q 679 621 688 621 q 672 614 672 621 q 679 607 672 607 q 688 614 688 607 m 682 594 q 669 607 682 607 q 658 594 658 607 q 669 582 658 582 q 682 594 682 582 z "},"ÿ":{"ha":675,"x_min":75,"x_max":674,"o":"m 375 -12 q 161 74 247 -12 q 75 288 75 160 l 75 601 q 101 669 75 643 q 168 694 126 694 q 263 601 263 694 l 263 288 q 295 208 263 240 q 375 175 328 175 q 454 208 422 175 q 486 288 486 240 l 486 601 q 513 669 486 643 q 581 694 539 694 q 648 669 622 694 q 674 601 674 643 l 674 -18 q 587 -231 674 -144 q 374 -318 500 -318 l 368 -318 q 300 -292 326 -318 q 274 -225 274 -267 q 300 -157 274 -183 q 368 -131 326 -131 l 374 -131 q 453 -97 419 -131 q 486 -18 486 -64 l 486 8 q 375 -12 433 -12 m 246 785 q 328 818 294 785 q 361 900 361 851 q 327 981 361 947 q 246 1014 293 1014 q 165 981 199 1014 q 131 900 131 947 q 164 818 131 851 q 246 785 197 785 m 513 785 q 594 818 561 785 q 626 900 626 851 q 593 981 626 947 q 513 1014 560 1014 q 431 981 464 1014 q 397 900 397 949 q 431 818 397 851 q 513 785 464 785 z "},"Ÿ":{"ha":675,"x_min":75,"x_max":674,"o":"m 674 288 q 588 74 674 161 q 375 -12 501 -12 q 161 74 247 -12 q 75 288 75 160 l 75 301 q 101 369 75 343 q 168 394 126 394 q 236 369 210 394 q 263 301 263 343 l 263 288 q 295 208 263 240 q 375 175 328 175 q 454 208 422 175 q 486 288 486 240 l 486 421 q 375 399 433 399 q 161 485 247 399 q 75 699 75 571 l 75 886 q 101 953 75 928 q 168 979 126 979 q 236 953 210 979 q 263 886 263 928 l 263 699 q 295 619 263 651 q 375 586 328 586 q 454 619 422 586 q 486 699 486 651 l 486 699 l 486 886 q 513 953 486 926 q 581 979 540 979 q 648 953 622 979 q 674 886 674 928 l 674 288 m 246 1063 q 328 1096 294 1063 q 361 1178 361 1129 q 327 1258 361 1225 q 246 1292 293 1292 q 165 1258 199 1292 q 131 1178 131 1225 q 164 1096 131 1129 q 246 1063 197 1063 m 513 1063 q 594 1096 561 1063 q 626 1178 626 1129 q 593 1258 626 1225 q 513 1292 560 1292 q 431 1259 464 1292 q 397 1178 397 1226 q 431 1096 397 1129 q 513 1063 464 1063 z "},"Â":{"ha":785,"x_min":75,"x_max":996,"o":"m 903 -318 l 896 -318 q 683 -231 769 -318 q 597 -18 597 -144 l 597 311 q 429 269 518 269 q 362 296 388 269 q 336 364 336 322 q 362 431 336 406 q 429 457 388 457 q 548 506 499 457 q 597 625 597 556 q 548 743 597 694 q 429 792 499 792 q 311 743 360 792 q 263 625 263 694 l 263 81 q 236 13 263 39 q 168 -12 210 -12 q 101 13 126 -12 q 75 81 75 39 l 75 625 q 177 877 75 775 q 429 979 279 979 q 682 877 579 979 q 785 625 785 775 l 785 -18 q 817 -98 785 -65 q 896 -131 849 -131 l 903 -131 q 970 -157 944 -131 q 996 -225 996 -183 q 969 -292 996 -265 q 903 -318 943 -318 m 650 1210 q 525 1332 544 1314 q 447 1374 479 1374 q 371 1332 418 1374 q 246 1210 347 1311 q 217 1144 217 1181 q 245 1077 217 1106 q 313 1049 274 1049 q 378 1078 349 1049 l 447 1146 l 517 1078 q 582 1049 546 1049 q 650 1077 621 1049 q 679 1144 679 1106 q 650 1210 679 1181 z "},"Ê":{"ha":661,"x_min":75,"x_max":667,"o":"m 572 -15 q 219 129 364 -15 q 75 482 75 274 q 219 835 75 690 q 572 979 364 979 q 640 953 614 979 q 667 886 667 928 q 640 818 667 844 q 572 792 614 792 q 392 734 472 792 q 279 582 311 676 l 572 582 q 640 556 614 582 q 667 489 667 531 q 640 421 667 447 q 572 394 614 394 l 275 394 q 387 234 304 296 q 572 172 469 172 q 640 146 614 172 q 667 78 667 119 q 640 10 667 36 q 572 -15 614 -15 m 636 1210 q 511 1332 531 1314 q 433 1374 465 1374 q 357 1332 404 1374 q 232 1210 333 1311 q 203 1144 203 1181 q 231 1077 203 1106 q 299 1049 260 1049 q 364 1078 335 1049 l 433 1146 l 503 1078 q 568 1049 532 1049 q 636 1077 607 1049 q 665 1144 665 1106 q 636 1210 665 1181 z "},"Á":{"ha":785,"x_min":75,"x_max":996,"o":"m 903 -318 l 896 -318 q 683 -231 769 -318 q 597 -18 597 -144 l 597 311 q 429 269 518 269 q 362 296 388 269 q 336 364 336 322 q 362 431 336 406 q 429 457 388 457 q 548 506 499 457 q 597 625 597 556 q 548 743 597 694 q 429 792 499 792 q 311 743 360 792 q 263 625 263 694 l 263 81 q 236 13 263 39 q 168 -12 210 -12 q 101 13 126 -12 q 75 81 75 39 l 75 625 q 177 877 75 775 q 429 979 279 979 q 682 877 579 979 q 785 625 785 775 l 785 -18 q 817 -98 785 -65 q 896 -131 849 -131 l 903 -131 q 970 -157 944 -131 q 996 -225 996 -183 q 969 -292 996 -265 q 903 -318 943 -318 m 363 1360 q 468 1431 392 1431 q 513 1422 492 1431 q 583 1315 583 1393 q 575 1272 583 1293 l 510 1114 q 403 1043 481 1043 q 360 1053 382 1043 q 289 1158 289 1083 q 297 1203 289 1183 l 363 1360 z "},"Ë":{"ha":661,"x_min":75,"x_max":682,"o":"m 572 -15 q 219 129 364 -15 q 75 482 75 274 q 219 835 75 690 q 572 979 364 979 q 640 953 614 979 q 667 886 667 928 q 640 818 667 844 q 572 792 614 792 q 392 734 472 792 q 279 582 311 676 l 572 582 q 640 556 614 582 q 667 489 667 531 q 640 421 667 447 q 572 394 614 394 l 275 394 q 387 234 304 296 q 572 172 469 172 q 640 146 614 172 q 667 78 667 119 q 640 10 667 36 q 572 -15 614 -15 m 301 1063 q 383 1096 350 1063 q 417 1178 417 1129 q 383 1258 417 1225 q 301 1292 349 1292 q 220 1258 254 1292 q 186 1178 186 1225 q 219 1096 186 1129 q 301 1063 253 1063 m 568 1063 q 649 1096 617 1063 q 682 1178 682 1129 q 649 1258 682 1225 q 568 1292 615 1292 q 486 1259 519 1292 q 453 1178 453 1226 q 486 1096 453 1129 q 568 1063 519 1063 z "},"È":{"ha":661,"x_min":75,"x_max":667,"o":"m 572 -15 q 219 129 364 -15 q 75 482 75 274 q 219 835 75 690 q 572 979 364 979 q 640 953 614 979 q 667 886 667 928 q 640 818 667 844 q 572 792 614 792 q 392 734 472 792 q 279 582 311 676 l 572 582 q 640 556 614 582 q 667 489 667 531 q 640 421 667 447 q 572 394 614 394 l 275 394 q 387 234 304 296 q 572 172 469 172 q 640 146 614 172 q 667 78 667 119 q 640 10 667 36 q 572 -15 614 -15 m 454 1360 q 347 1431 425 1431 q 304 1422 325 1431 q 233 1315 233 1393 q 242 1272 233 1293 l 307 1114 q 413 1043 336 1043 q 457 1053 435 1043 q 528 1158 528 1083 q 519 1203 528 1183 l 454 1360 z "},"Í":{"ha":263,"x_min":11,"x_max":306,"o":"m 263 886 l 263 81 q 236 13 263 39 q 168 -12 210 -12 q 101 13 126 -12 q 75 81 75 39 l 75 886 q 101 953 75 928 q 168 979 126 979 q 236 953 210 979 q 263 886 263 928 m 85 1360 q 190 1431 114 1431 q 235 1422 214 1431 q 306 1315 306 1393 q 297 1272 306 1293 l 232 1114 q 125 1043 203 1043 q 82 1053 104 1043 q 11 1158 11 1083 q 19 1203 11 1183 l 85 1360 z "},"Î":{"ha":263,"x_min":-61,"x_max":401,"o":"m 263 886 l 263 81 q 236 13 263 39 q 168 -12 210 -12 q 101 13 126 -12 q 75 81 75 39 l 75 886 q 101 953 75 928 q 168 979 126 979 q 236 953 210 979 q 263 886 263 928 m 372 1210 q 247 1332 267 1314 q 169 1374 201 1374 q 93 1332 140 1374 q -32 1210 69 1311 q -61 1144 -61 1181 q -33 1077 -61 1106 q 35 1049 -4 1049 q 100 1078 71 1049 l 169 1146 l 239 1078 q 304 1049 268 1049 q 372 1077 343 1049 q 401 1144 401 1106 q 372 1210 401 1181 z "},"Ï":{"ha":263,"x_min":-92,"x_max":404,"o":"m 263 886 l 263 81 q 236 13 263 39 q 168 -12 210 -12 q 101 13 126 -12 q 75 81 75 39 l 75 886 q 101 953 75 928 q 168 979 126 979 q 236 953 210 979 q 263 886 263 928 m 24 1063 q 106 1096 72 1063 q 139 1178 139 1129 q 105 1258 139 1225 q 24 1292 71 1292 q -58 1258 -24 1292 q -92 1178 -92 1225 q -58 1096 -92 1129 q 24 1063 -25 1063 m 290 1063 q 372 1096 339 1063 q 404 1178 404 1129 q 371 1258 404 1225 q 290 1292 338 1292 q 208 1259 242 1292 q 175 1178 175 1226 q 208 1096 175 1129 q 290 1063 242 1063 z "},"Ì":{"ha":263,"x_min":-3,"x_max":292,"o":"m 263 886 l 263 81 q 236 13 263 39 q 168 -12 210 -12 q 101 13 126 -12 q 75 81 75 39 l 75 886 q 101 953 75 928 q 168 979 126 979 q 236 953 210 979 q 263 886 263 928 m 218 1360 q 111 1431 189 1431 q 68 1422 89 1431 q -3 1315 -3 1393 q 6 1272 -3 1293 l 71 1114 q 176 1043 100 1043 q 221 1053 199 1043 q 292 1158 292 1083 q 283 1203 292 1183 l 218 1360 z "},"Ó":{"ha":1068,"x_min":75,"x_max":1069,"o":"m 572 979 q 925 835 781 979 q 1069 482 1069 690 q 925 129 1069 274 q 572 -15 781 -15 q 219 129 364 -15 q 75 482 75 274 q 219 835 75 690 q 572 979 364 979 m 572 792 q 351 703 440 792 q 263 482 263 614 q 352 262 263 351 q 572 172 442 172 q 792 262 703 172 q 882 482 882 351 q 792 702 882 613 q 572 792 703 792 m 501 1360 q 607 1431 531 1431 q 651 1422 631 1431 q 722 1315 722 1393 q 714 1272 722 1293 l 649 1114 q 542 1043 619 1043 q 499 1053 521 1043 q 428 1158 428 1083 q 436 1203 428 1183 l 501 1360 z "},"Ô":{"ha":1068,"x_min":75,"x_max":1069,"o":"m 572 979 q 925 835 781 979 q 1069 482 1069 690 q 925 129 1069 274 q 572 -15 781 -15 q 219 129 364 -15 q 75 482 75 274 q 219 835 75 690 q 572 979 364 979 m 572 792 q 351 703 440 792 q 263 482 263 614 q 352 262 263 351 q 572 172 442 172 q 792 262 703 172 q 882 482 882 351 q 792 702 882 613 q 572 792 703 792 m 789 1210 q 664 1332 683 1314 q 586 1374 618 1374 q 510 1332 557 1374 q 385 1210 486 1311 q 356 1144 356 1181 q 384 1077 356 1106 q 451 1049 413 1049 q 517 1078 488 1049 l 586 1146 l 656 1078 q 721 1049 685 1049 q 789 1077 760 1049 q 818 1144 818 1106 q 789 1210 818 1181 z "},"Ò":{"ha":1068,"x_min":75,"x_max":1069,"o":"m 572 979 q 925 835 781 979 q 1069 482 1069 690 q 925 129 1069 274 q 572 -15 781 -15 q 219 129 364 -15 q 75 482 75 274 q 219 835 75 690 q 572 979 364 979 m 572 792 q 351 703 440 792 q 263 482 263 614 q 352 262 263 351 q 572 172 442 172 q 792 262 703 172 q 882 482 882 351 q 792 702 882 613 q 572 792 703 792 m 593 1360 q 486 1431 564 1431 q 443 1422 464 1431 q 372 1315 372 1393 q 381 1272 372 1293 l 446 1114 q 551 1043 475 1043 q 596 1053 574 1043 q 667 1158 667 1083 q 658 1203 667 1183 l 593 1360 z "},"Ú":{"ha":675,"x_min":75,"x_max":674,"o":"m 263 886 l 263 288 q 295 208 263 240 q 375 175 328 175 q 454 208 422 175 q 486 288 486 240 l 486 888 q 513 955 486 928 q 581 982 540 982 q 648 956 622 982 q 674 888 674 929 l 674 288 q 588 74 674 161 q 375 -12 501 -12 q 161 74 247 -12 q 75 288 75 160 l 75 886 q 101 953 75 928 q 168 979 126 979 q 236 953 210 979 q 263 886 263 928 m 349 1360 q 454 1431 378 1431 q 499 1422 478 1431 q 569 1315 569 1393 q 561 1272 569 1293 l 496 1114 q 389 1043 467 1043 q 346 1053 368 1043 q 275 1158 275 1083 q 283 1203 275 1183 l 349 1360 z "},"Û":{"ha":675,"x_min":75,"x_max":674,"o":"m 263 886 l 263 288 q 295 208 263 240 q 375 175 328 175 q 454 208 422 175 q 486 288 486 240 l 486 888 q 513 955 486 928 q 581 982 540 982 q 648 956 622 982 q 674 888 674 929 l 674 288 q 588 74 674 161 q 375 -12 501 -12 q 161 74 247 -12 q 75 288 75 160 l 75 886 q 101 953 75 928 q 168 979 126 979 q 236 953 210 979 q 263 886 263 928 m 581 1210 q 456 1332 475 1314 q 378 1374 410 1374 q 301 1332 349 1374 q 176 1210 278 1311 q 147 1144 147 1181 q 176 1077 147 1106 q 243 1049 204 1049 q 308 1078 279 1049 l 378 1146 l 447 1078 q 513 1049 476 1049 q 581 1077 551 1049 q 610 1144 610 1106 q 581 1210 610 1181 z "},"Ù":{"ha":675,"x_min":75,"x_max":674,"o":"m 263 886 l 263 288 q 295 208 263 240 q 375 175 328 175 q 454 208 422 175 q 486 288 486 240 l 486 888 q 513 955 486 928 q 581 982 540 982 q 648 956 622 982 q 674 888 674 929 l 674 288 q 588 74 674 161 q 375 -12 501 -12 q 161 74 247 -12 q 75 288 75 160 l 75 886 q 101 953 75 928 q 168 979 126 979 q 236 953 210 979 q 263 886 263 928 m 454 1360 q 347 1431 425 1431 q 304 1422 325 1431 q 233 1315 233 1393 q 242 1272 233 1293 l 307 1114 q 413 1043 336 1043 q 457 1053 435 1043 q 528 1158 528 1083 q 519 1203 528 1183 l 454 1360 z "}}}
